<?xml version="1.0" encoding="utf-8"?>
<!-- Generator: Adobe Illustrator 18.1.1, SVG Export Plug-In . SVG Version: 6.00 Build 0)  -->
<svg version="1.1" id="Camada_1" xmlns="http://www.w3.org/2000/svg" xmlns:xlink="http://www.w3.org/1999/xlink" x="0px" y="0px"
	 viewBox="0 0 540 350" enable-background="new 0 0 540 350" xml:space="preserve">
<g>
	<path fill="#1C7E97" d="M538.6,345.3c0,2.6,0.4,1.7,0.5,2C538.9,343,538.5,345.4,538.6,345.3z"/>
	<polygon fill="#1C7E97" points="537.6,302.6 537.8,303.4 537.4,297.1 	"/>
	<path fill="#1C7E97" d="M537.6,262.7c-0.7,3.8,0.1,14.5-0.1,21.6l-0.2,1.2l0.6,3.2C537.8,280,537.4,268.8,537.6,262.7z"/>
	<path fill="#1C7E97" d="M539.1,246.4c0-0.5,0-0.6,0.1-0.9c0-0.9,0-2,0-4.1C538.9,242.7,538.9,236.8,539.1,246.4z"/>
	<path fill="#1C7E97" d="M539.2,245.5C539.2,249.7,539.4,242.7,539.2,245.5L539.2,245.5z"/>
	<path fill="#1C7E97" d="M539,226.1l0.2,5.5c0.2-1.2,0.2-6.1,0.3-4.3C539.4,221.7,539.3,222.8,539,226.1z"/>
	<path fill="#1C7E97" d="M538.6,223.7c0.1-0.5,0.1-1.3-0.1-2.9L538.6,223.7z"/>
	<path fill="#1C7E97" d="M538.8,229.8l-0.2-6.1c-0.1,0.8-0.3,0.9,0.1,2.8C538.4,226,538.6,227.2,538.8,229.8z"/>
	<path fill="#1C7E97" d="M538.7,233.2c-0.2,3.1-0.3,7.1-0.5,1.6C538.3,245.4,538.8,243.8,538.7,233.2z"/>
	<path fill="#1C7E97" d="M536.9,260.7l-0.2,4.2l0.2,3.6C536.8,266.6,537.1,260.4,536.9,260.7z"/>
	<path fill="#1C7E97" d="M539.4,191.6c-0.2-0.3-0.4,1.9-0.6,2.3l0.2,4.1C539,195.9,539.1,191.9,539.4,191.6z"/>
	<path fill="#1C7E97" d="M538.8,193.9l-0.3-6.1C538.5,193.2,538.6,194.2,538.8,193.9z"/>
	<polygon fill="#1C7E97" points="537.7,219.8 538.2,229.9 537.7,217.9 	"/>
	<polygon fill="#1C7E97" points="539.4,168.2 539.7,171.7 539.2,165.5 	"/>
	<path fill="#1C7E97" d="M539.5,140.9c0.1,3.4,0.1,7.1-0.1,11.8c0.3,2.6,0.5-3.5,0.7-0.8C539.9,147.7,539.7,144.1,539.5,140.9z"/>
	<path fill="#1C7E97" d="M539.5,140.9c-0.1-1.8-0.2-3.6-0.3-5.4C539.2,137.2,539.3,138.9,539.5,140.9z"/>
	<path fill="#1C7E97" d="M538.6,174.9c0-2.6,0-4.4,0-5.2C538.6,170.4,538.6,172,538.6,174.9L538.6,174.9c0,0.7,0,1.6,0,2.4
		c0.1-0.5,0.3-1.4,0.4-4.8L538.6,174.9z"/>
	<path fill="#1C7E97" d="M538.6,177.3c0,0.2-0.1,0.4,0,0.6C538.6,177.7,538.6,177.5,538.6,177.3z"/>
	<path fill="#1C7E97" d="M538.1,203.8c-0.2-3.6-0.5-11.1-0.9-3.8C537.5,202.5,537.7,198.4,538.1,203.8z"/>
	<path fill="#1C7E97" d="M538,180.9l-0.1,6.5c0.1-0.1,0.3-1.3,0.4,0.5L538,180.9z"/>
	<polygon fill="#1C7E97" points="538.1,178.5 537.9,177.7 538,180.9 	"/>
	<path fill="#1C7E97" d="M538.4,148.4c0.1,0.5,0.4,2.1,0.4-1.9c-0.2-2.8-0.2-5.9-0.2-9.3C538.4,140.9,538.4,144.8,538.4,148.4z"/>
	<path fill="#1C7E97" d="M538.6,160.4c0-0.2,0-0.4,0-0.6C538.6,160.1,538.5,160.5,538.6,160.4z"/>
	<path fill="#1C7E97" d="M538.5,103.1c0,0.2-0.1,0.4-0.1,0.5c0,0,0,0.1,0.1,0.1L538.5,103.1z"/>
	<path fill="#1C7E97" d="M538.4,148.4c-0.1-0.2-0.1-0.3-0.1,0.6c-0.1,2.8,0,4.5,0.2,6.1C538.4,153,538.4,150.8,538.4,148.4z"/>
	<path fill="#1C7E97" d="M538.9,125.9c-0.1,1.5-0.2,3.1-0.2,4.8C538.8,129.3,539.1,126.4,538.9,125.9z"/>
	<path fill="#1C7E97" d="M538.7,158.8c0,0.1,0,0.3,0,0.4C538.8,158.3,538.8,158.4,538.7,158.8z"/>
	<path fill="#1C7E97" d="M538.7,158.8c-0.1-1.4-0.2-2.6-0.3-3.7c0,1.7,0.1,3.3,0.1,4.6C538.6,159.4,538.7,159.1,538.7,158.8z"/>
	<path fill="#1C7E97" d="M538.4,103.6c-0.2-0.2-0.3-0.2-0.6-6.6c-0.2,2.2-0.5,14.3-0.9,8.8c-0.2-8.5,0.1-7,0.4-11.1
		c-0.5,3.5-0.7-10.8-1.5-9l0.3,7.5c-0.1,0.1-0.3-2.6-0.4-0.5c0.4,0.5,0.8,7.8,0.3,14.2C536.4,113.2,537.7,109.1,538.4,103.6z"/>
	<path fill="#1C7E97" d="M538.4,118.5c0.1-3,0.2-5.2,0.5-9.1c-0.2-4.4-0.3-5.3-0.5-5.6l-0.1,13l-0.1-0.9L538.4,118.5z"/>
	<path fill="#1C7E97" d="M538.4,130.5c0.1,2.5,0.1,4.7,0.1,6.8c0.1-2.3,0.1-4.4,0.2-6.5c0,0.1,0,0.2,0,0.3l0,0.1l0,0
		c-0.1,0.5-0.1,0.7-0.1,0.1c0,0,0-0.2,0-0.3C538.5,130.9,538.5,130.6,538.4,130.5c0.1-3.7,0.2-0.7,0.2,0.5c0,0,0,0.1,0.1,0.2
		c0,0,0,0,0,0l-0.2-12.5C538.4,121.2,538.4,124.5,538.4,130.5c-0.4-2.2-0.6-8.5-1-4.6c0,7.8,0.4,5.4,0.6,10.1
		C537.8,123.4,538.1,139.5,538.4,130.5z"/>
	<path fill="#1C7E97" d="M536.3,193.3c0-0.4,0.1-0.4,0.1-0.4C536.3,192.1,536.3,191.8,536.3,193.3z"/>
	<path fill="#1C7E97" d="M537.5,182.4c0-0.1,0.1-0.2,0.1-0.4C537.6,181.8,537.5,182,537.5,182.4z"/>
	<path fill="#1C7E97" d="M536.9,193.5l-0.1-0.9c0.1-4,0.5-8.8,0.7-10.3c-0.3,1.3-0.6,2.7-1,5.8c0.1,0.9,0.2,1.7,0.2,4.6
		c-0.1,2.6-0.2,0-0.4,0.1C536.5,194.7,536.7,199.1,536.9,193.5z"/>
	<path fill="#1C7E97" d="M537.4,158.9l-0.2-10.4l-0.4,5.3l0.2-0.3C536.9,159.4,537.2,158.1,537.4,158.9z"/>
	<polygon fill="#1C7E97" points="538.7,101.9 539.2,103.3 538.5,97.2 	"/>
	<polygon fill="#1C7E97" points="538.7,88.3 539.1,88.8 538.8,85.2 	"/>
	<path fill="#1C7E97" d="M5.3,155.4c0-1.5-0.1-2.4-0.1-3.1L5.3,155.4z"/>
	<path fill="#1C7E97" d="M5.2,130.1L5,129.6C5.1,130.6,5.2,131,5.2,130.1z"/>
	<path fill="#1C7E97" d="M279.5,0.8c3.1-0.1,5.5,0,7.6,0.1c-4.5-0.4-9.5-0.9-8.9-0.5L279.5,0.8z"/>
	<path fill="#1C7E97" d="M62.5,3.2c-1.3,0.1-2.8,0.2-4.3,0.3c0.4,0,0.9,0.1,1.3,0.1C60.6,3.4,61.6,3.3,62.5,3.2z"/>
	<path fill="#1C7E97" d="M55,5.2L49.1,5C50.4,5.1,52.3,5.1,55,5.2z"/>
	<path fill="#1C7E97" d="M5.7,273.6l0.4,3.6C6.1,271.6,5.9,274.1,5.7,273.6z"/>
	<path fill="#1C7E97" d="M482,1c-3.9-0.2-6.9-0.2-9.7-0.3C477,0.9,480.8,1.3,482,1z"/>
	<path fill="#1C7E97" d="M0.8,146.2c-0.1-1.9-0.2-3-0.3-2.6C0.7,145.5,0.7,146.3,0.8,146.2z"/>
	<path fill="#1C7E97" d="M472.3,0.7c-3.4-0.2-7.4-0.3-11.2,0c0.7,0,1.4,0.1,2,0.1C466,0.7,468.9,0.7,472.3,0.7z"/>
	<path fill="#1C7E97" d="M370.2,344.8c0.3,0,0.7,0,1,0.1C371.3,344.8,370.8,344.8,370.2,344.8z"/>
	<path fill="#1C7E97" d="M498.7,349.2c-1.3,0-3.3,0-5.3,0C494.4,349.3,496,349.3,498.7,349.2z"/>
	<path fill="#1C7E97" d="M538.9,33.7C538.9,36.6,538.9,34.2,538.9,33.7L538.9,33.7z"/>
	<path fill="#1C7E97" d="M537.1,47.7c0-0.6-0.1-1.1-0.2-1.1C537,46.8,537.1,47.2,537.1,47.7z"/>
	<path fill="#1C7E97" d="M538.7,38.1c0.1-1.1,0.1-2.3,0.1-3.7C538.8,35,538.7,36.1,538.7,38.1z"/>
	<path fill="#1C7E97" d="M538.9,37.5c0,1,0,1.8,0,2.5C538.9,40.4,538.9,40,538.9,37.5z"/>
	<path fill="#1C7E97" d="M538.8,29.7c0,1.6,0,3.2,0,4.7c0-0.6,0.1-0.8,0.1-0.6C538.9,32.9,538.8,31.7,538.8,29.7z"/>
	<path fill="#1C7E97" d="M134.3,346.1c2.9-0.2,1.6-0.2-0.6,0C133.9,346,134.1,346,134.3,346.1z"/>
	<path fill="#1C7E97" d="M212.3,5.3c-0.1,0-0.3,0-0.4,0l0.1,0C212.1,5.3,212.2,5.3,212.3,5.3z"/>
	<path fill="#1C7E97" d="M201.6,5.7c4.4-0.5,6.9-0.5,10.3-0.4l-3.4-1.3L201.6,5.7z"/>
	<path fill="#1C7E97" d="M5.1,142.4l0,1.3C5.1,143.2,5.1,142.7,5.1,142.4z"/>
	<path fill="#1C7E97" d="M514.6,346.1c-7.6,0.9-20.2-1.3-32.7,0c-2.8-0.2,2.4-0.3,0.9-0.5c-3.2,0.4-7,0.5-14.1,0.3l0.8-0.1
		c-20,0.1-28.6-0.3-51-0.6l1.7,0.5c-4.8-0.1-5.8-0.2-8.1-0.3c-5.5,0.7,13.6,0,8.5,0.8c-6.4-1-34,0-38.4-1.1c-7.4,0,2.2,0.5-5.2,0.5
		l-2-0.3l-1.9,0.4c-4.9-0.1-7.3-0.4-7.5-0.7c1.2,0,3.4-0.1,4.6-0.1c-5.9-0.3-16.2,0.1-19.4,0l6.5,0.2c-20.3,0.3-45-0.1-64.6,0.5
		l1.5,0.2c-14.9,0.4-12-0.2-28.4-0.1l0.6-0.1c-3.3,0.2-7.7,0.3-12.2,0.3c4.1-0.3-7.8-0.5-2.4-0.8c-16.2,0.4-8,0.4-18.7,1.2l-2.5-0.4
		c-3.6,0.3-4,0.5-12.2,0.6c6.7-0.3-5.2-0.6,2.3-1c-17.2-0.8-25.5,0.8-33.4-0.4c-7.9,1,14.9,0.6,10.5,0.8c3.7,0.3-6.5,0.8-11.9,0.7
		c-5.5,0-9.3-1.3-23.2-1.3c1.4,0,1.5-0.1,2.8-0.1c-5.2-0.3-10.1,0.4-16.5-0.1c-3.6,0.6-8.2,0-9.3,0.8l12.7-0.2
		c-7.2,0.2-13.9,1.1-25.8,0.7c0.9-0.2,4.4-0.4,6.9-0.5c-3.5-0.2-6.7,0.2-10.3-0.1c1-0.8,15.4-0.2,23.1-0.8
		c-3.7-0.3-14.6,0.6-10.7-0.3c-5.6,1.1-13.6-0.1-23,0.7l0.6-0.5c-1.5,0.1-4.6,0.3-7.3,0.3l4.9-0.6c-7.6,0.5-14.6-0.5-21.9-0.2
		c15.2,0,3.4,0.6,9.9,0.9c-18.5,0.6-11.1-1.2-30.8-1c3.3,0,9.3,0.3,5.3,0.5c-4-0.1-9.3-0.3-11.7-0.5c-13.9,0.1,2.1,0.5-3.8,0.8
		c-4.7-0.6-6.8,0.2-12.9,0.4l0-0.5c-15.9-0.3-4.2,1-18.5,0.6l6-0.7l-7.4,0.2l1.5-0.6c-8.1,0.4-10.6,0.3-18.6,0.1
		c0.8,0.1,0.7,0.3-0.2,0.5c-0.2,0-0.5,0.1-0.8,0.1c-0.1,0-0.4,0-0.5,0.1c-0.1,0-0.2,0-0.3,0.1c-0.5,0.1-1.1,0.1-1.9,0.1
		c0-0.5,0-1,0-1.6c0-0.2,0-0.3,0.1-0.5c0-0.2,0-0.3,0-0.4c0-0.3,0.1-0.4,0.1-0.5c0.1-0.1,0.1,0,0.1,0.1s0.1-0.1,0.1-0.9
		c0-0.8,0-2.2,0-4.7c0.2,1.1,0.3,2.3,0.4,3.7c0,0.7,0.1,1.5,0,2.4c0,0.4-0.1,0.7-0.2,1.3c0.1,0,0.1,0.1,0.2,0.3
		c0.3-0.1,0.7-0.2,0.8-0.3c-0.2,0-0.3-0.1-0.5-0.1c0-0.2,0-0.4,0.1-0.6l0-0.3l0-0.4c0-1.4,0-2.8,0-4.1c0-2.7-0.1-5.1-0.1-6.8
		c0,1.4,0,3-0.1,3.9L4.7,322c0.2-2.3,0.3-0.5,0.5,1.3c-0.1-2.9-0.3-4.9-0.3-9.2c0.4,1.1,0.8,0.8,1,6.9l-0.4-13.7
		c0.2-0.9,0.5-7,0.6-5.3c0.2-7.6-0.8-18.6-0.5-28.7c-0.1-0.5-0.1-1.6-0.2-3.7c0.1-9.5,0.6-17.9,0-29.1l0.7-6.4
		c-0.2-8.8-0.9,8.6-1.2-6c-0.2-10.4,0.6-3.9,0.8-7.5c-0.4-5.2-1.1-14.1-0.5-23.6c0.1,3.2,0,5.6,0.1,8.6l0.4-7.3
		c0.6,8.8,0.4,15.1,1,8.3c-1.4-1-0.1-28.2-1.5-29.2l0.3-4.8c0,1.4,0.1,1.6,0.1,2.9c0.7-9.3-1-6.9-0.8-18.9c0.1-4.2,0.3-7.1,0.5-4.2
		L4.9,143c0-2.2,0.2-2.2,0.2-0.6L5,129.5l0,0.1c-0.2-2-0.5-6.6-0.7-8.9c0.2-3.6,0.1,1.8,0.3,0.9l-0.3-7.9c0.4-3.2,0.7,3.3,0.6,8.7
		c1.4-7.3-0.3-6.5,0.5-22.4l0.2,7.4c0.8-4.8,0.5-10.6,1-19c-0.3,2-1.2,16.8-1.6,8.3c0.1-2.4,0.2-5.6-0.1-10.2
		c0.5,0,0.4-4.5,0.3-10.2l0.6,0.4c-0.2-6.1-0.5-5.6-0.8-9.2c0.1-6.8,0.6-8.2,1-9.8c0.1-10.9-0.8,7.5-0.9-5.4c0.2-9,0-15.4-0.4-26.2
		c0.2-6.3,0.4,1.1,0.6-1.2l-0.5-5.6c0-1.4,0.2-0.9,0.2-0.7c-0.2-4.7-0.6-0.4-0.8-7.8C4.1,10.7,4,9.7,4.1,8.4c0-0.3,0-0.7,0-1.1
		c0-0.3,0-0.5,0.1-0.8c0-0.5,0.1-1.1,0.1-1.7C5.1,4.9,5.9,4.9,6.8,5c1.4,0.1,2.8,0.1,4.3,0.2c2.9,0.1,5.8,0,8.4-0.2
		c2.3,0.2-1.1,0.4-0.4,0.6c12.6-0.5,10.8-0.4,21.2-1.1L49.1,5c-6.5-0.5,1.8-1.1,9.1-1.5c-2.3-0.2-4.3-0.4-5.6-0.5l11.6-0.3
		c1.4,0.1,0.2,0.3-1.7,0.6C63.3,3.1,64.1,3,64.6,3c4.1,0.2,2,0.6-1,1c-1.4-0.1-2.8-0.3-4.2-0.4c-2.9,0.4-5.5,0.8-4.9,1.2
		c0.8-0.1,2.2-0.1,3.8-0.2c-0.7,0.1-1.2,0.2-0.9,0.3c0.4,0.1,1.6-0.1,3.5-0.2l2.6,0.7L64.2,5l15.2,0.4C90.3,4.8,99.7,3.7,117,3.4
		c-4.3,0.5-0.9,0.9-1.2,1.5c-4.7-0.7-13.3,0.3-22.3,0.1c4.7,0.1,3.6,0.4,2.5,0.5l15.9-0.6c-0.4,0.5,3.4,0.4,7.5,0.6
		c-3.1-1,11.9-0.7,18.4-1c0.4,0.3-1.2,0.7-9.1,0.6c8.7,0.8,11.3-1.2,19.8-0.5c-1.9,0-3,0-3.7,0.1c4.5-0.3,15.5-0.1,12.9,0.2l-1.9,0
		c12.8,0.1,39,0,40.9-0.8c0.1,0.1-1.7,1-2.5,1.2l22.9-2.9c-2,0.7,5.7,2.5-4.9,2.9c3.1,0.1,6.8,0.2,13.3,0c-2.1-0.1-5.2-1.1-2.3-1.1
		c7.8,0.8,5.4,0.4,15.1,1.1c-3.1-0.2,0.3-1.3,5.3-1.3c-0.8,0.2,0.4,1.1-1.4,1.3l11.7-1.1c-2.1,0.3,0.2,0.9,2.8,1.2
		c-1.3-0.2,10.6,0,13.9-0.1l-5.2-0.3c13.9,0.2,13.7-1.6,27.4-1.5c-1.7,0.2-4.1,1.4,2.9,1.6c3.2-0.6,14.2-2.8,26.4-3.2l2.3,0.3
		l9.3-0.4c-5.8,0.9-22.1,2.7-31,3.4c5.2,0.3,1.4,0.4,9.2,0.4c2.7,0.3-4.2,0.5-6.5,0.5l18.1,0.2c-0.8-0.7,13.8-0.7,13.1-1.2
		l-19.6,0.7c-0.8-0.7,11.4-1.9,24.2-1.8c3.3,0.3-2.4,1.2-2.2,1.4c1.7-0.2,12.2-0.4,13.3-0.3l-5.4,0.4c7.1,0.3,11.6-0.9,20.2-0.3
		c3,0,8.8,0.9,9.3,0.5c-4.8-0.8-5.8-3.1-2.6-3.7c1,0.1,15.5,0.7,18.9,1.1c4.9,0.6-7.3,1.4-3.2,2c0.2-0.2,2.9-0.4,4-0.5
		c3.1,0.2-1.3,0.6,5.5,0.5c1.1-0.7,13.7,0.1,3.2-0.6c6.6-0.2,7,0.1,14.8,0.1c-2.5-0.4,7-1.5,13.6-1.7c-0.4,0.2,1.1,0.4,1.8,0.5
		c-0.1,0-0.2,0-0.2,0c0.9,0.1,0.7,0.1,0.3,0c13.5,0.1,20.8,0.4,33.4,0.4c1.2,0.2,7.3,0.4,4.7,0.7c1.8-0.1,3.5-0.4,7.4-0.4
		c7.5,0.6-8.7,0.1-2.9,0.8c0.5-0.4,10.1-0.5,15.6-0.8c-1.7-0.6-12.8-0.1-18.4,0.1c0-0.8,9.6-1.7,22.8-2.1c10.5-0.2,4.5,0.5,6.4,0.4
		c9.8,0.1,14-0.3,17.8-0.6c1.9-0.2,3.7-0.3,6-0.4c1.2,0,2.5,0,4,0c1.8,0,3.9,0.1,6.3,0.1c0.9,0.1,1.7,0.1,2.1,0.2
		c-0.2,2.3-0.4,2.4-0.6,2.1c-0.2-0.3-0.4-1-0.5-1c-0.1,0-0.2,0.1-0.1,0.1c0,0,0,0-0.1,0.1c0,0,0,0.1-0.1,0.2c0-0.1,0-0.1,0-0.2
		c-4.6,0.1-7.7,0-10.6-0.1c-2.9-0.1-5.5-0.2-8.4-0.2l7.1,0.3c-2.7,0.2-8.4,0.3-11.5,0.2c1.5,0.1,4.6,0.2,8.7,0.2c4.1,0,9,0,14.3,0.1
		c0,4.4,0,8.9-0.1,13.2c0,4.3-0.1,8.4-0.2,11.9c0.2,2.7,0.4,7.3,0.6,5.1l-0.1-4.8c0.4-4.4,0.6,9,0.8,3c0.3,6.4,0.8,13.6,0.5,22.7
		l-0.6,1.7c0.2-0.2,0.4-5.9,0.2-8.5c0.3,3.8-0.8,13.9,0,18l0.4-6.3c0.3,6.5,1,14.4,0.8,22.5c0.6-3.6-0.1-1.8,0.6-7.5
		c-0.9,4.8,0-18.6-0.8-13.3c0.7-5.5,0.3-9.7,1-17c-0.2,0.2-0.4,2.7-0.3-4c-0.1-0.3-0.1-1-0.2-1.5c0-0.2,0-0.3,0-0.5
		c0,0.1,0,0.2,0,0.4c0-0.3,0-0.3,0,0.1c-0.1,1.6-0.2,2.9-0.3,3.4c-0.5-3.3-0.5-14.1-0.7-17.7c0.1-4,0.2,1.7,0.5-0.5l-0.4-5.4
		c0.5-0.5,0.8-10.6,1-1.2l0-8.5c0-0.4,0-0.8,0.1-1.3c0-0.7,0-1.4,0.1-2.1c0-1.6,0.1-3.2,0.1-4.9c-2.9,0-5.8,0-8.6-0.1
		c-1.8,0-3.6,0-5,0.1c-4-0.1-10.1,0.5-6.6,0.1L505.4,1l-0.1-0.1c-13.2-0.1-27.1,0.7-42.1-0.1c-4.4,0.1-9,0.3-16.4,0.1l-1.4-0.4
		c-5.7,0.1-17.1-0.4-19.5,0c-6.1-1-27.6-0.2-37.6-0.4l-0.4,0.5c-6.9,0-13.5,0.1-22,0.3l0.5,0.4c-7.4,0.4-18.9-0.3-30.6-0.3
		c0.8-0.2,3.7-0.1,5.8,0c-13.9-1-29.4,0.7-42,0c-3.1,0.2-5.4,0.1-7.6,0c0.3,0,0.6,0,0.8,0c-0.3,0-0.8,0-1.3,0
		c-1.4-0.1-2.8-0.2-4.4-0.2c1.3,0.1,2.6,0.2,3.7,0.2c-2.4,0-6.1,0.1-9.7,0.2l-1.5-0.5c-0.3,0-0.5,0-0.8,0c-3.5-0.2-2.8,0.2-1,0.6
		c-1.8,0.1-3.5,0.2-4.8,0.3c-2.9-0.8-9.5,0.3-13.4-0.6c-2.3,0.4-15.9,0.3-19.4,1c-4-0.1-8-0.2-11.5,0l-1.7-0.6l-8.8,0.8
		c-5.3-0.4-7.5-0.6-2.2-1.1c-12.8,0.7-10.4,0.3-21.3,1l0.5-0.4c-3.9,0-10.1,0.5-12.4,0.2c-8.7-0.8-43-0.1-65.4-0.8
		c4.3,1.2-10.4-0.5-11.3,0.4c-1.3-0.3-4.4-0.4-0.8-0.7C94,1.3,88.2,0.6,80.4,1.3c-1.3-0.3,2.4-0.4,1.3-0.6C80.7,0.8,78,1,76.8,0.8
		c-1.2-0.2,1.7-0.2,3.5-0.4c-11.6,0-12.8,0.9-13.7,1.7c-5.9-0.4-8.8-0.3-13.1,0.2c-2.1-0.3-5.5-0.5,1.8-0.6C51.2,1.7,30.5,1.4,30,2
		c-1.3-0.2-5.7,0-6.8,0c-4.6,0-7,0-9.5-0.1C11.1,2,8.4,2,3.6,2l3.3,0.1C5.3,2.4,3.8,2.5,2,2.5c0,0.8,0,1.7,0,2.6
		c0,0.9,0,1.8-0.1,2.8c0,1.7-0.1,3.7-0.1,6l-0.1-0.2C1.2,30.2,2,20.8,1.4,37.1l0.5-0.9c1,1.5-0.6,14.4-0.2,23.9l0.3-3.4
		c0.4,5.2-1.4,14.4-1.5,19.6c-0.1,1.1-0.1-1.8-0.2-3.4C-0.4,86.6,0.8,74.7,1,84.9c-0.3,1.9-0.9-2.4-0.9,4.4
		c-0.3,3.4,1.1,19.8,0.5,29c0.3-2,0.5-4.1,0.7,0.6c0.1,7.2-1,19.5-0.2,26c-0.1,0.9-0.1,1.3-0.2,1.3c0.2,5.5,0.4,17.9,0.8,21.2
		c-1.7,5.1,0.8,34.2-0.7,34.1L1,218.5L0.8,218c-0.1,10.8,0.3,14.7,0.6,18.5c-0.1,2.5-0.2,0.7-0.3,0.5c-0.3,15.8-0.2,17.4,0.5,30.7
		L1.2,269c0.3,3.6-0.8,22.9-0.2,38.4c-0.1-0.2-0.2-0.5-0.2-1.7c0.2,6.8,0.1,14.7-0.1,22.1c-0.1,3.7-0.2,7.3-0.2,10.6
		c0,1.7,0,3.2,0,4.7c0,1.1,0,2.3,0,3.3c0,1.1,0,2.2,0.1,3.2c2.4-0.1,4.5-0.1,6.2-0.2c1.2-0.1,2-0.3,2.7-0.5l11.6-0.4
		c-15-0.1,2.2-0.8-3.9-1.1c5.9-0.1,15.2,0.5,8,0.6l-1.1-0.1c-2.7,0.9,18.6,0.3,18.2,1c29.4,0,58.1,0.5,85.7,0.5l-3.2-0.7l9.6,0
		c2.5,0.2,3.4,0.6-3.5,0.5c3.6,0.4,11.5-0.3,11.7-0.5c13.4,0.3-5.2,0.9-1.1,0.9l5.6-0.1l-1.3-0.1c4.5-0.3,4.9-0.6,13.2-0.6
		c5.2,0.1,2.7,0.5,4.7,0.5c0,0,0.2,0,0.6,0.1c0.5,0,1.3,0,2.5,0l12.1,0.1l-4.8-0.6c5.4-0.3,11.4,0,5.8-0.6c8.2,1,45.2,0.4,50.2,0.7
		c7.5-0.4,14.9-0.4,24.1-0.4c-2.3-0.1-3.7-0.8,4.3-0.7c-2.8,1.3,13.7,0.6,20.4,1.5c-3.2-0.5,22.7-0.1,14-1c6.6,0.1,0.4,0.5,5.4,0.8
		c15.7-0.5,34.7,0.3,54.2,0.2c0.3-0.2-3-0.4,1.2-0.7l10.3,0.9c3.8-0.1,3.5-1,10.6-0.4c-1-0.1-2.5-0.4,0.1-0.4
		c38.1,0.9,77.9-0.7,116.7,0.9c-5.2-0.3-1.7-0.4,2.3-0.4c-2.6-0.1,0.1-0.4-0.5-0.7l16.2,0.7c3-0.7,17.4,0,19.1-0.7l-5.1,0.1
		C530,347.9,513.6,347,514.6,346.1z M5,97.1c0.1,2.1,0.4,6.3,0.1,7.8C4.6,102.5,4.9,100.6,5,97.1z M531.9,0.9c0.4,0,2.3,0,4.8,0.1
		c-0.1,0-0.3,0-0.4,0c-1.9,0-3.1-0.1-3.8-0.1C532.2,0.9,532,0.9,531.9,0.9C531.8,0.9,531.8,0.9,531.9,0.9z M240.2,2.1
		c-0.3,0.1-0.5,0.1-0.6,0.2C239.4,2.2,238.4,2.1,240.2,2.1z M74.2,4.4c-1.6,0.2-4,0.1-6.7-0.1C69.5,4.2,71.7,4.2,74.2,4.4z
		 M164.5,349.3l-1.9-0.1C166.9,349,165.7,349.1,164.5,349.3z"/>
	<path fill="#1C7E97" d="M350.8,344.9l-0.6,0C350.4,344.9,350.6,344.9,350.8,344.9z"/>
	<path fill="#1C7E97" d="M278.8,349.4c0.1,0,0.3,0,0.5,0.1C279.1,349.5,278.9,349.5,278.8,349.4z"/>
	<path fill="#1C7E97" d="M67.3,344.5c0.3,0,0.6,0,1,0C67.9,344.5,67.6,344.5,67.3,344.5z"/>
	<path fill="#1C7E97" d="M54.5,4.8c-0.8,0.1-0.8,0.2,0.9,0.3C54.9,4.9,54.7,4.9,54.5,4.8z"/>
	<path fill="#1C7E97" d="M5.6,273.3c0,0.2,0.1,0.3,0.1,0.3l-0.1-0.7L5.6,273.3z"/>
	<path fill="#1C7E97" d="M393.5,5.3c-2-0.1-3.1-0.2-3.9-0.2C389.5,5.2,390.4,5.3,393.5,5.3z"/>
	<path fill="#1C7E97" d="M539.1,62.9l-0.1-5.6c0,3-0.1,4.1-0.2,5.6C538.9,62.8,539,61.9,539.1,62.9z"/>
	<path fill="#1C7E97" d="M539.1,62.9l0,0.7C539.1,63.2,539.1,63,539.1,62.9z"/>
	<path fill="#1C7E97" d="M536.1,117.6c0.1,0.9,0,1.9,0.1,2.8l0.2-0.2C536.4,116.3,536.2,113.6,536.1,117.6z"/>
	<path fill="#1C7E97" d="M537.5,69.3c-0.4,0.5-0.3,4.4-0.2,8.8v-0.8C537.8,78.6,537.7,73.9,537.5,69.3z"/>
	<path fill="#1C7E97" d="M537.3,79.1c0,1.3,0,2.7,0,4C537.5,83.6,537.3,81.5,537.3,79.1z"/>
	<path fill="#1C7E97" d="M538.5,24.3c-0.1,2.1,0.5,1.3,0.4,2.5C539.4,29.1,538.3,12.9,538.5,24.3z"/>
	<polygon fill="#1C7E97" points="536.1,72.8 536.6,71.3 536.2,68.8 	"/>
	<path fill="#1C7E97" d="M536.5,38.3l-0.1,7c0.1-0.1,0.1,0.8,0.2,1.9C536.5,42.9,536.6,38.2,536.5,38.3z"/>
	<path fill="#1C7E97" d="M536.6,52.8c0-1.2,0-3.8-0.1-5.6C536.5,49.4,536.5,51.6,536.6,52.8z"/>
	<polygon fill="#1C7E97" points="536.1,56.3 536,63.3 536.1,61.2 	"/>
	<path fill="#1C7E97" d="M496,2.9L488.3,3c-0.8,0.2,1.3,0.3,4.1,0.2C494.3,3.1,497.1,3,496,2.9z"/>
	<path fill="#1C7E97" d="M519.1,4.2c-2.1-0.1-2.2-0.2-3.4-0.4l-0.2,0.6L519.1,4.2z"/>
	<path fill="#1C7E97" d="M495.4,4.8c0.8-0.2,8.4-0.3,1.4-0.5C496,4.6,485.7,4.9,495.4,4.8z"/>
	<polygon fill="#1C7E97" points="383.6,3.6 383.3,2.6 381.6,3.6 	"/>
	<path fill="#1C7E97" d="M280.2,6c9.1,0.2,2.2-0.6,10.3-0.3c2.1-0.2-6.7-0.2-4.5-0.5C280.5,5.5,277.7,5.4,280.2,6z"/>
	<path fill="#1C7E97" d="M286,5.3c0.9,0,1.8-0.1,2.8-0.2C287.2,5.2,286.4,5.2,286,5.3z"/>
	<polygon fill="#1C7E97" points="520.1,349.8 525.9,350 522.1,349.7 	"/>
	<path fill="#1C7E97" d="M531.2,349l1.4,0.7l3.5-0.6C534.8,349.1,532.2,349.2,531.2,349z"/>
	<path fill="#1C7E97" d="M6.3,80.9l-0.2-0.4C6,81.4,6,82.7,6,85.5L6.3,80.9z"/>
	<polygon fill="#1C7E97" points="5.9,158.3 5.3,160.8 5.8,159.6 	"/>
	<path fill="#1C7E97" d="M6.5,217.1c0,0.6,0,1.3,0,1.9C6.5,218.4,6.5,217.8,6.5,217.1z"/>
	<path fill="#1C7E97" d="M6.6,225.7c0-2.1-0.1-4.5-0.1-6.7C6.5,223.7,5.9,226.4,6.6,225.7z"/>
</g>
</svg>
