<?xml version="1.0" encoding="utf-8"?>
<!-- Generator: Adobe Illustrator 18.1.1, SVG Export Plug-In . SVG Version: 6.00 Build 0)  -->
<svg version="1.1" id="Camada_1" xmlns="http://www.w3.org/2000/svg" xmlns:xlink="http://www.w3.org/1999/xlink" x="0px" y="0px"
	 viewBox="0 0 25 25" enable-background="new 0 0 25 25" xml:space="preserve">
<g id="XMLID_905_">
	<g id="XMLID_907_">
		<path fill="#F3F3F3" d="M12.5,0c-3,0-5.8,1.1-7.9,2.8l0,0L4.3,3C3.2,4,2.3,5.2,1.5,6.5c0,0,0,0,0,0.1C1.3,6.9,1.2,7.2,1.1,7.5
			C1,7.6,1,7.6,1,7.7C0.8,8,0.7,8.3,0.6,8.6c0,0.1-0.1,0.2-0.1,0.3C0.4,9.2,0.4,9.5,0.3,9.8c0,0.1,0,0.2-0.1,0.3
			c-0.1,0.3-0.1,0.7-0.2,1c0,0.1,0,0.2,0,0.2c0,0.3,0,0.6-0.1,0.8v0.2c0,0,0,0.1,0,0.1c0,0,0,0.1,0,0.1v0.2c0,0.2,0,0.3,0,0.4
			c0,0.2,0,0.4,0,0.6c0,0.2,0.1,0.4,0.1,0.6c0,0.2,0.1,0.4,0.1,0.6c0,0.2,0.1,0.3,0.1,0.5c0.1,0.2,0.1,0.4,0.2,0.7
			c0,0.2,0.1,0.3,0.2,0.4c0.1,0.2,0.2,0.5,0.3,0.7c0.1,0.1,0.1,0.3,0.2,0.4c0.1,0.2,0.2,0.4,0.3,0.7c0.1,0.1,0.2,0.3,0.3,0.4
			c0.1,0.2,0.2,0.4,0.4,0.6c0.1,0.2,0.3,0.4,0.4,0.5c0.1,0.1,0.2,0.3,0.3,0.4c0.3,0.3,0.5,0.6,0.8,0.9c0.3,0.3,0.6,0.6,0.9,0.8
			c0.2,0.1,0.3,0.2,0.5,0.4c0.2,0.1,0.3,0.2,0.5,0.4C5.7,23,6,23.1,6.2,23.3c0.1,0.1,0.3,0.2,0.4,0.2c0.2,0.1,0.5,0.2,0.7,0.3
			C7.4,23.9,7.5,24,7.6,24c0.2,0.1,0.5,0.2,0.7,0.3c0.1,0,0.3,0.1,0.4,0.1c0.2,0.1,0.5,0.1,0.7,0.2c0.2,0,0.3,0.1,0.5,0.1
			c0.2,0,0.4,0.1,0.7,0.1c0.2,0,0.4,0.1,0.5,0.1c0.2,0,0.4,0,0.6,0c0.2,0,0.3,0,0.5,0h0.2c0,0,0,0,0,0c0,0,0,0,0,0h0.2h0
			c0.3,0,0.6,0,0.9-0.1c0.1,0,0.1,0,0.2,0c0.4,0,0.7-0.1,1.1-0.2c0.1,0,0.1,0,0.2,0c0.3-0.1,0.7-0.2,1-0.2c0,0,0.1,0,0.1,0
			c0.3-0.1,0.6-0.2,0.9-0.3c0.1,0,0.2-0.1,0.3-0.1c0.2-0.1,0.5-0.2,0.7-0.3l0.5-0.3l0,0c1-0.6,1.9-1.2,2.7-2.1
			c2.4-2.4,3.7-5.5,3.7-8.8C25,5.6,19.4,0,12.5,0z M17.1,23.2c-0.2,0.1-0.5,0.2-0.7,0.3c-0.1,0-0.3,0.1-0.4,0.1
			c-0.2,0.1-0.4,0.1-0.6,0.2c-0.2,0-0.3,0.1-0.5,0.1c-0.2,0-0.4,0.1-0.6,0.1c-0.2,0-0.4,0.1-0.5,0.1c-0.2,0-0.4,0-0.6,0
			c-0.2,0-0.4,0-0.6,0h-0.1c-0.2,0-0.4,0-0.6,0c-0.2,0-0.4,0-0.6,0c-0.2,0-0.4-0.1-0.5-0.1c-0.2,0-0.4-0.1-0.6-0.1
			c-0.2,0-0.3-0.1-0.5-0.1c-0.2-0.1-0.4-0.1-0.6-0.2c-0.1,0-0.3-0.1-0.4-0.2c-0.2-0.1-0.4-0.1-0.6-0.2c-0.1-0.1-0.3-0.1-0.4-0.2
			C7.4,23,7.2,22.9,7,22.8c-0.1-0.1-0.3-0.2-0.4-0.2c-0.2-0.1-0.4-0.2-0.6-0.3c-0.2-0.1-0.3-0.2-0.5-0.4c-0.1-0.1-0.3-0.2-0.4-0.3
			c-0.3-0.2-0.6-0.5-0.8-0.8c-0.3-0.3-0.5-0.6-0.8-0.8c-0.1-0.1-0.2-0.3-0.3-0.4c0-0.1-0.1-0.1-0.1-0.2l1.3-0.1l-0.1,1.3l1.1-0.8
			L6,21l0.6-1.2l1.1,0.8l-0.1-1.3l1.3,0.1l-0.8-1.1l1.2-0.6l-1.2-0.6L8.9,16l-1.3,0.1l0.1-1.3l-1.1,0.8L6,14.3l-0.6,1.2l-1.1-0.8
			l0.1,1.3L3.1,16l0.8,1.1l-1.2,0.6l1.2,0.6l-0.8,1.1C3,19.2,2.9,19.1,2.8,19c-0.1-0.2-0.2-0.3-0.3-0.5c-0.1-0.1-0.2-0.3-0.3-0.4
			c-0.1-0.2-0.2-0.4-0.3-0.6c-0.1-0.1-0.1-0.3-0.2-0.4c-0.1-0.2-0.1-0.4-0.2-0.6c-0.1-0.2-0.1-0.3-0.2-0.5c-0.1-0.2-0.1-0.4-0.1-0.5
			c0-0.2-0.1-0.4-0.1-0.5c0-0.2-0.1-0.3-0.1-0.5c0-0.2-0.1-0.4-0.1-0.6c0-0.2,0-0.3,0-0.5c0-0.2,0-0.5,0-0.7l0-0.2
			c0-0.2,0-0.4,0-0.7c0-0.2,0-0.4,0-0.6C0.9,11,1,10.8,1,10.6c0-0.2,0.1-0.4,0.1-0.6c0-0.2,0.1-0.3,0.1-0.5c0.1-0.2,0.1-0.4,0.2-0.7
			c0-0.1,0.1-0.3,0.2-0.4C1.7,8.2,1.7,8,1.8,7.8C1.9,7.6,2,7.5,2.1,7.3C2.1,7.1,2.2,7,2.3,6.8c0.1-0.2,0.2-0.3,0.3-0.5
			C2.7,6.1,2.8,6,2.9,5.8c0.1-0.2,0.3-0.4,0.4-0.5C3.4,5.2,3.5,5.1,3.6,5c0.2-0.2,0.3-0.4,0.5-0.5c0.1-0.1,0.2-0.2,0.3-0.3
			C4.5,4,4.6,4,4.7,3.9l13.8,8.6H6.2L17.1,23.2C17.2,23.2,17.1,23.2,17.1,23.2z M4.8,17l0.6,0l0-0.6l0.5,0.3L6,16.3l0.2,0.5l0.5-0.3
			l0,0.6l0.6,0l-0.3,0.5l0.5,0.2l-0.5,0.2l0.3,0.5l-0.6,0l0,0.6l-0.5-0.3L6,19.1l-0.2-0.5l-0.5,0.3l0-0.6l-0.6,0l0.3-0.5l-0.5-0.2
			l0.5-0.2L4.8,17z M20.8,20.8c-0.8,0.8-1.8,1.5-2.8,2.1l-9.7-9.5h13.1l-16-10c2-1.6,4.5-2.5,7.2-2.5c6.4,0,11.7,5.2,11.7,11.7
			C24.2,15.6,23,18.5,20.8,20.8z"/>
	</g>
	<g id="XMLID_906_">
		<path fill="#F3F3F3" d="M8.5,8.4c0-0.1,0-0.3,0-0.4C8.4,8.8,8,9.5,7.4,10L6.9,9.9l0.6-0.6L6.6,9.4L7,8.5L6.2,9l0-0.9L5.6,8.7
			L5.3,7.9L5,8.7L4.4,8.1l0,0.9L3.7,8.5L4,9.4L3.1,9.3l0.6,0.6L3.3,10c-0.6-0.5-1-1.2-1.2-2c0,0.1,0,0.3,0,0.4
			c0,1.8,1.4,3.2,3.2,3.2S8.5,10.2,8.5,8.4z"/>
	</g>
</g>
</svg>
