<?xml version="1.0" encoding="utf-8"?>
<!-- Generator: Adobe Illustrator 18.1.1, SVG Export Plug-In . SVG Version: 6.00 Build 0)  -->
<svg version="1.1" id="Camada_1" xmlns="http://www.w3.org/2000/svg" xmlns:xlink="http://www.w3.org/1999/xlink" x="0px" y="0px"
	 viewBox="0 0 25 25" enable-background="new 0 0 25 25" xml:space="preserve">
<g id="XMLID_727_">
	<g id="XMLID_876_">
		<path fill="#F3F3F3" d="M24,17.4c0.5-1.1,0.8-2.4,0.9-3.6c0-0.4,0.1-0.8,0.1-1.2c0-0.4,0-0.8-0.1-1.3c0-0.1,0-0.2,0-0.3
			c0-0.3-0.1-0.6-0.1-0.9c0-0.1-0.1-0.2-0.1-0.3c-0.1-0.3-0.1-0.6-0.2-0.9c0-0.1-0.1-0.2-0.1-0.3c-0.1-0.3-0.2-0.5-0.3-0.8l0-0.1
			l0,0C22.1,3.1,17.7,0,12.5,0C7.4,0,2.9,3.1,1,7.6l0,0l0,0.1C0.8,8,0.8,8.2,0.7,8.5c0,0.1-0.1,0.2-0.1,0.3C0.5,9.1,0.4,9.4,0.3,9.7
			c0,0.1-0.1,0.2-0.1,0.3c-0.1,0.3-0.1,0.6-0.1,1c0,0.1,0,0.2,0,0.3C0,11.7,0,12.1,0,12.5c0,1.7,0.3,3.3,1,4.9l0,0.1l0,0
			c0.6,1.4,1.5,2.8,2.6,3.9C6,23.7,9.2,25,12.5,25s6.5-1.3,8.8-3.7C22.5,20.2,23.4,18.9,24,17.4L24,17.4L24,17.4z M24,14.1
			c0,0.2-0.1,0.4-0.1,0.7c0,0.2-0.1,0.5-0.2,0.7c0,0.1-0.1,0.3-0.1,0.4c-0.1,0.3-0.2,0.5-0.3,0.8c0,0.1,0,0.1-0.1,0.2l-10.9,7
			l-10.8-7c0,0,0-0.1,0-0.1c-0.1-0.3-0.2-0.6-0.3-0.9c0-0.1-0.1-0.2-0.1-0.3c-0.1-0.2-0.1-0.5-0.2-0.7C1,14.5,1,14.3,1,14.1
			c0-0.2-0.1-0.3-0.1-0.5c0-0.4-0.1-0.8-0.1-1.1c0-0.4,0-0.8,0.1-1.2c0-0.1,0-0.2,0-0.3c0-0.3,0.1-0.6,0.1-0.8
			c0-0.1,0.1-0.2,0.1-0.3c0.1-0.3,0.1-0.5,0.2-0.8c0-0.1,0.1-0.2,0.1-0.4c0.1-0.2,0.1-0.4,0.2-0.6l10.8-7l10.9,7
			c0.1,0.2,0.1,0.4,0.2,0.6c0,0.1,0.1,0.2,0.1,0.4c0.1,0.2,0.1,0.5,0.2,0.8c0,0.1,0.1,0.2,0.1,0.3c0.1,0.3,0.1,0.5,0.1,0.8
			c0,0.1,0,0.2,0,0.3c0,0.4,0.1,0.8,0.1,1.2c0,0.4,0,0.8-0.1,1.1C24.1,13.8,24.1,13.9,24,14.1z M22.6,6.7l-9-5.8
			C17.5,1.2,20.8,3.5,22.6,6.7z M11.3,0.9L2.4,6.7C4.2,3.5,7.5,1.3,11.3,0.9z M2.4,18.3l8.9,5.8c-2.7-0.3-5.1-1.4-7.1-3.4
			C3.5,20,2.9,19.2,2.4,18.3z M20.8,20.7c-1.9,1.9-4.4,3.1-7.1,3.4l9-5.8C22.1,19.2,21.5,20,20.8,20.7z"/>
	</g>
	<g id="XMLID_871_">
		<path fill="#F3F3F3" d="M12.5,4.5c-4.4,0-8.1,3.6-8.1,8.1c0,4.4,3.6,8.1,8.1,8.1s8.1-3.6,8.1-8.1C20.6,8.1,16.9,4.5,12.5,4.5z
			 M12.5,5.3c4,0,7.2,3.2,7.2,7.2C17.1,10,13,8.5,8.5,8.5c-0.7,0-1.4,0-2.1,0.1C7.7,6.6,9.9,5.3,12.5,5.3z M12.5,19.7
			c-4,0-7.2-3.2-7.2-7.2c0-0.7,0.1-1.3,0.3-1.9c0.8-0.1,1.7-0.2,2.5-0.2c4.7,0,8.9,1.7,11.3,4.4C18.3,17.7,15.7,19.7,12.5,19.7z
			 M19.5,13.8C17,11.2,12.7,9.6,8,9.6c-0.7,0-1.5,0-2.2,0.1c0-0.1,0-0.1,0.1-0.2c0.9-0.1,1.7-0.2,2.6-0.2c4.6,0,8.7,1.5,11.1,4.1
			C19.6,13.6,19.6,13.7,19.5,13.8z"/>
	</g>
	<g id="XMLID_868_">
		<path fill="#F3F3F3" d="M7.2,12.2c0-0.3-0.3-0.6-0.6-0.6S6,11.9,6,12.2c0,0.3,0.3,0.6,0.6,0.6S7.2,12.5,7.2,12.2z M6.6,12.4
			c-0.1,0-0.3-0.1-0.3-0.2c0-0.1,0.1-0.2,0.3-0.2c0.1,0,0.3,0.1,0.3,0.2C6.9,12.3,6.8,12.4,6.6,12.4z"/>
	</g>
	<g id="XMLID_860_">
		<path fill="#F3F3F3" d="M8.7,11.3c-0.3,0-0.6,0.2-0.6,0.6c0,0.3,0.3,0.6,0.6,0.6c0.3,0,0.6-0.2,0.6-0.6C9.3,11.6,9,11.3,8.7,11.3z
			 M8.7,12.1c-0.1,0-0.3-0.1-0.3-0.2c0-0.1,0.1-0.2,0.3-0.2S9,11.8,9,11.9C9,12,8.9,12.1,8.7,12.1z"/>
	</g>
	<g id="XMLID_857_">
		<path fill="#F3F3F3" d="M8.4,16c-0.3,0-0.6,0.2-0.6,0.6s0.3,0.6,0.6,0.6c0.3,0,0.6-0.2,0.6-0.6S8.8,16,8.4,16z M8.4,16.8
			c-0.1,0-0.3-0.1-0.3-0.2s0.1-0.2,0.3-0.2c0.1,0,0.3,0.1,0.3,0.2S8.6,16.8,8.4,16.8z"/>
	</g>
	<g id="XMLID_854_">
		<path fill="#F3F3F3" d="M12.2,15c-0.3,0-0.6,0.2-0.6,0.6c0,0.3,0.3,0.6,0.6,0.6c0.3,0,0.6-0.2,0.6-0.6C12.8,15.2,12.5,15,12.2,15z
			 M12.2,15.7c-0.1,0-0.3-0.1-0.3-0.2c0-0.1,0.1-0.2,0.3-0.2c0.1,0,0.3,0.1,0.3,0.2C12.5,15.6,12.4,15.7,12.2,15.7z"/>
	</g>
	<g id="XMLID_851_">
		<path fill="#F3F3F3" d="M13.6,13.9c0-0.2-0.2-0.4-0.4-0.4c-0.2,0-0.4,0.2-0.4,0.4s0.2,0.4,0.4,0.4C13.4,14.3,13.6,14.1,13.6,13.9z
			 M13,13.9c0,0,0.1-0.1,0.1-0.1c0.1,0,0.1,0,0.1,0.1C13.3,14,13,14,13,13.9z"/>
	</g>
	<g id="XMLID_848_">
		<path fill="#F3F3F3" d="M15.1,8.7c0.2,0,0.4-0.2,0.4-0.4c0-0.2-0.2-0.4-0.4-0.4c-0.2,0-0.4,0.2-0.4,0.4
			C14.7,8.5,14.9,8.7,15.1,8.7z M15.1,8.2c0.1,0,0.1,0,0.1,0.1c0,0.1-0.2,0.1-0.2,0C15,8.2,15,8.2,15.1,8.2z"/>
	</g>
	<g id="XMLID_845_">
		<path fill="#F3F3F3" d="M7.1,14.1c-0.2,0-0.4,0.2-0.4,0.4S6.9,15,7.1,15c0.2,0,0.4-0.2,0.4-0.4S7.4,14.1,7.1,14.1z M7,14.5
			c0,0,0.1-0.1,0.1-0.1c0.1,0,0.1,0,0.1,0.1C7.3,14.6,7,14.6,7,14.5z"/>
	</g>
	<g id="XMLID_842_">
		<path fill="#F3F3F3" d="M17.7,14.8c0.3,0,0.5-0.2,0.5-0.5c0-0.2-0.2-0.5-0.5-0.5c-0.3,0-0.5,0.2-0.5,0.5
			C17.2,14.6,17.5,14.8,17.7,14.8z M17.7,14.2c0.1,0,0.1,0.1,0.1,0.1c0,0.1-0.1,0.1-0.1,0.1c-0.1,0-0.1-0.1-0.1-0.1
			C17.6,14.2,17.6,14.2,17.7,14.2z"/>
	</g>
	<g id="XMLID_829_">
		<path fill="#F3F3F3" d="M13.7,17.5c-0.3,0-0.5,0.2-0.5,0.5c0,0.2,0.2,0.5,0.5,0.5c0.3,0,0.5-0.2,0.5-0.5
			C14.2,17.7,14,17.5,13.7,17.5z M13.7,18c-0.1,0-0.1-0.1-0.1-0.1s0.1-0.1,0.1-0.1c0.1,0,0.1,0.1,0.1,0.1C13.8,18,13.8,18,13.7,18z"
			/>
	</g>
	<g id="XMLID_739_">
		<path fill="#F3F3F3" d="M17.8,15.8c-0.3,0-0.5,0.2-0.5,0.5c0,0.2,0.2,0.5,0.5,0.5c0.3,0,0.5-0.2,0.5-0.5
			C18.3,16,18.1,15.8,17.8,15.8z M17.8,16.4c-0.1,0-0.1-0.1-0.1-0.1c0-0.1,0.1-0.1,0.1-0.1c0.1,0,0.1,0.1,0.1,0.1
			C18,16.3,17.9,16.4,17.8,16.4z"/>
	</g>
	<g id="XMLID_730_">
		<path fill="#F3F3F3" d="M12.2,18.4c-0.2,0-0.4,0.2-0.4,0.4s0.2,0.4,0.4,0.4c0.2,0,0.4-0.2,0.4-0.4S12.5,18.4,12.2,18.4z
			 M12.1,18.8c0,0,0.1-0.1,0.1-0.1c0.1,0,0.1,0,0.1,0.1C12.3,18.9,12.1,18.9,12.1,18.8z"/>
	</g>
</g>
</svg>
