<?xml version="1.0" encoding="utf-8"?>
<!-- Generator: Adobe Illustrator 18.1.1, SVG Export Plug-In . SVG Version: 6.00 Build 0)  -->
<svg version="1.1" id="Camada_1" xmlns="http://www.w3.org/2000/svg" xmlns:xlink="http://www.w3.org/1999/xlink" x="0px" y="0px"
	 viewBox="0 0 25 25" enable-background="new 0 0 25 25" xml:space="preserve">
<g>
	<path fill="#F3F3F3" d="M11.9,6.1c0.1,0,0.2,0,0.4,0C12.1,6.2,12,6.2,11.9,6.1z"/>
	<path fill="#F3F3F3" d="M12.2,6.2c0.2,0,0.3,0,0.4,0C12.5,6.2,12.4,6.2,12.2,6.2z"/>
	<path fill="#F3F3F3" d="M15.3,11.1c0,1.2-0.6,2.3-1.4,3.1l1.1,0.8c0.1-0.1,0.3-0.3,0.4-0.5l-0.3-0.3c0.2-0.3,0.4-0.5,0.5-0.8
		l0.4,0.2c0.2-0.3,0.3-0.6,0.4-1L16,12.5c0.1-0.3,0.2-0.6,0.2-1l0.4,0c0-0.4,0-0.7,0-1.1l-0.4,0c0-0.3-0.1-0.6-0.2-1l0.4-0.1
		c-0.1-0.3-0.2-0.7-0.4-1l-0.4,0.2c-0.2-0.3-0.3-0.6-0.5-0.8l0.3-0.3c-0.2-0.3-0.5-0.5-0.7-0.7l-0.3,0.3c-0.3-0.2-0.5-0.4-0.8-0.5
		l0.2-0.4c-0.3-0.2-0.6-0.3-1-0.4l-0.1,0.3l0,0.1c-0.3-0.1-0.6-0.2-0.9-0.2l-0.1,0.9C13.7,7.3,15.3,9,15.3,11.1z"/>
	<path fill="#F3F3F3" d="M12.5,0C5.7,0,0.2,5.4,0,12.1h0v0.8h0C0.2,19.6,5.7,25,12.5,25C19.4,25,25,19.4,25,12.5S19.4,0,12.5,0z
		 M12.5,24.2c-6.3,0-11.4-5-11.7-11.3h7.4v-0.8H0.8C1.1,5.8,6.2,0.8,12.5,0.8s11.4,5,11.7,11.3h-6.8v0.8h6.8
		C23.9,19.2,18.8,24.2,12.5,24.2z"/>
	<path fill="#F3F3F3" d="M16.5,16.4c-0.3-0.2-0.6-0.5-0.9-0.7l-0.5,0.6c0,0,0,0.1,0,0.1c0.6,0.1,0.7,0.3,1,0.5
		c0.3,0.3,0.4,0.7,0.6,0.8c0.4,0.3,0.6-0.2,0.4-0.6C16.9,16.8,16.7,16.6,16.5,16.4z"/>
	<path fill="#F3F3F3" d="M12.6,14.9c-0.4,0.1-0.9,0.2-1.3,0.2c-1,0-1.9-0.4-2.6-0.9l-0.6,0.7c0.2,0.2,0.5,0.4,0.8,0.5l-0.2,0.4
		c0.3,0.2,0.6,0.3,1,0.4l0.1-0.4c0.3,0.1,0.6,0.2,1,0.2l0,0.4c0.4,0,0.7,0,1.1,0l0-0.4c0.3,0,0.7-0.1,1-0.2l0.1,0.4
		c0.2-0.1,0.3-0.1,0.5-0.2l-0.2-0.8L12.6,14.9z"/>
	<path fill="#F3F3F3" d="M11.8,13.3c-0.4-0.3-1.2-1-1.2-1l0-0.1C10.7,12.3,11.5,13,11.8,13.3c1.1,0.7,3.2,2.2,3.5,2.4l0.1-0.2
		c-1.8-1.3-6-4.2-6-5.3c-0.8,1.6,0.2,2.6,0.9,3c1.7,1,2.9,1.6,4.7,2.8l0.3-0.3C15,15.6,12.9,14.1,11.8,13.3z"/>
	<polygon fill="#F3F3F3" points="10.1,10.7 11.2,9.9 12.3,10.7 11.9,9.4 13,8.6 11.7,8.6 11.2,7.3 10.8,8.6 9.5,8.6 10.6,9.4 	"/>
</g>
</svg>
