<?xml version="1.0" encoding="utf-8"?>
<!-- Generator: Adobe Illustrator 18.1.1, SVG Export Plug-In . SVG Version: 6.00 Build 0)  -->
<svg version="1.1" id="Camada_1" xmlns="http://www.w3.org/2000/svg" xmlns:xlink="http://www.w3.org/1999/xlink" x="0px" y="0px"
	 viewBox="0 0 25 25" enable-background="new 0 0 25 25" xml:space="preserve">
<g id="XMLID_889_">
	<path fill="#231F20" d="M24.9,11.3c0-0.1,0-0.2,0-0.3c0-0.2,0-0.4-0.1-0.5l0-0.3h0c0,0,0-0.1,0-0.1c0-0.1-0.1-0.2-0.1-0.4
		c0-0.2-0.1-0.4-0.1-0.6l0,0l-0.1-0.3v0l-0.1-0.2h0c-0.1-0.3-0.2-0.5-0.3-0.8l0,0l-0.1-0.3c-0.1-0.2-0.2-0.3-0.2-0.5l0,0
		c0-0.1-0.1-0.2-0.1-0.3l0,0l-0.2-0.3c0,0,0,0,0-0.1l0,0l0,0C23.3,6.1,23.1,6,23,5.8c-0.1-0.1-0.2-0.3-0.3-0.4
		c0-0.1-0.1-0.1-0.1-0.2l-0.2-0.3l0,0c-1.5-2-3.6-3.5-6-4.3v0l-0.3-0.1c-0.3-0.1-0.7-0.2-1-0.3c0,0-0.1,0-0.1,0c0,0-0.1,0-0.1,0
		l-0.3,0c-0.2,0-0.4,0-0.5-0.1c-0.1,0-0.2,0-0.3,0C13.3,0,12.9,0,12.5,0h0c0,0,0,0,0,0h0c0,0,0,0,0,0h0c0,0,0,0,0,0h0c0,0,0,0,0,0h0
		h0l0,0l0,0v0h0c-0.4,0-0.8,0-1.2,0.1c-0.1,0-0.2,0-0.4,0c-0.2,0-0.4,0-0.5,0.1l-0.3,0v0c0,0-0.1,0-0.1,0c0,0-0.1,0-0.1,0
		c-0.3,0.1-0.7,0.2-1,0.3L8.6,0.6v0C6.2,1.4,4.1,3,2.6,4.9l0,0L2.3,5.2C2.3,5.3,2.2,5.4,2.2,5.4c0,0.1-0.1,0.1-0.1,0.2
		C2,5.8,1.9,5.9,1.8,6.1l0,0L1.6,6.3c0,0.1-0.1,0.1-0.1,0.2c0,0,0,0,0,0C1.3,6.9,1.1,7.3,1,7.7L0.9,7.9l0,0C0.8,8.1,0.7,8.4,0.6,8.6
		L0.6,8.7c0,0,0,0,0,0L0.5,9.1l0,0C0.4,9.3,0.4,9.5,0.3,9.7c0,0.1-0.1,0.2-0.1,0.4c0,0,0,0.1,0,0.1l-0.1,0.3c0,0.2,0,0.3-0.1,0.5
		c0,0.1,0,0.2,0,0.3C0,11.7,0,12.1,0,12.5l0,0v0v0v0v0v0v0v0v0v0c0,0,0,0,0,0c0,0,0,0,0,0v0v0h0l0,0v0h0l0,0v0l0,0h0l0,0
		c0,0,0,0,0,0h0l0,0c0,0,0,0,0,0l0,0h0v0h0l0,0c0,0,0,0,0,0l0,0l0,0c0,0,0,0,0,0l0,0h0c0,0,0,0,0,0h0l0,0c0,0,0,0,0,0l0,0l0,0h0v0h0
		l0,0c0,0,0,0,0,0l0,0l0,0v0h0l0,0v0h0l0,0v0h0l0,0v0h0l0,0v0h0l0,0v0v0v0v0c0,0,0,0,0,0v0v0v0h0v0h0l0,0v0h0l0,0v0h0l0,0v0l0,0v0
		l0,0l0,0l0,0l0,0l0,0v0v0v0c0,0,0,0,0,0v0l0,0c0,0.3,0,0.6,0.1,0.9c0,0,0,0.1,0,0.1c0,0.2,0.1,0.4,0.1,0.7l0,0.3h0c0,0,0,0,0,0
		c0,0.1,0.1,0.3,0.1,0.4c0,0.2,0.1,0.3,0.1,0.5l0,0l0.1,0.3c0,0,0,0.1,0,0.1l0.1,0.2h0c0.1,0.2,0.2,0.5,0.3,0.7c0,0,0,0,0,0.1l0,0
		l0.1,0.3c0.1,0.1,0.1,0.2,0.2,0.3c0,0,0,0,0,0c0.1,0.1,0.1,0.3,0.2,0.4c0,0,0,0,0,0l0,0l0.2,0.3c0,0,0,0,0,0.1c0,0,0,0,0,0l0,0l0,0
		l0,0c0.1,0.1,0.1,0.2,0.2,0.3c0.1,0.2,0.3,0.4,0.4,0.6c0,0,0.1,0.1,0.1,0.1L2.5,20l0,0c0.3,0.5,0.7,0.9,1.1,1.3
		c1.4,1.4,3.1,2.4,4.9,3v0l0.2,0.1c0.1,0,0.1,0,0.2,0c0.3,0.1,0.6,0.2,0.9,0.2c0.1,0,0.1,0,0.2,0c0,0,0,0,0.1,0l0.3,0.1
		c0.2,0,0.3,0,0.5,0.1c0.1,0,0.2,0,0.3,0c0.4,0,0.7,0.1,1.1,0.1h0c0,0,0,0,0,0c0,0,0,0,0,0v0l0,0v0l0,0c0,0,0,0,0,0v0v0c0,0,0,0,0,0
		v0v0c0,0,0,0,0,0v0l0,0c0,0,0,0,0,0v0l0,0c0,0,0,0,0,0v0v0h0v0v0c0,0,0,0,0,0v0v0h0v0v0l0,0l0,0l0,0v0c0,0,0,0,0,0l0,0v0
		c0,0,0,0,0,0v0v0c0,0,0,0,0,0v0v0h0v0v0v0c0,0,0,0,0,0h0c0,0,0,0,0,0h0h0h0c0,0,0,0,0,0h0c0,0,0,0,0,0h0c0,0,0,0,0,0h0c0,0,0,0,0,0
		s0,0,0,0h0h0c0,0,0,0,0,0h0h0l0,0h0h0c0,0,0,0,0,0h0l0,0c0,0,0,0,0,0h0l0,0c0,0,0,0,0,0h0c0,0,0,0,0,0s0,0,0,0h0h0h0h0c0,0,0,0,0,0
		c0,0,0,0,0,0c0,0,0,0,0,0l0,0l0,0c0.2,0,0.3,0,0.5,0c0.2,0,0.5,0,0.7,0c0,0,0.1,0,0.1,0v0l0.5-0.1c0.1,0,0.2,0,0.3-0.1
		c0.1,0,0.2,0,0.4-0.1c0.3-0.1,0.6-0.1,0.9-0.2c0.1,0,0.1,0,0.2-0.1l0.2-0.1v0c1.8-0.6,3.5-1.6,4.9-3c0.4-0.4,0.8-0.9,1.1-1.3l0,0
		l0.2-0.3c0-0.1,0.1-0.1,0.1-0.2c0.1-0.1,0.1-0.2,0.2-0.2c0.2-0.2,0.3-0.5,0.5-0.7l0,0c0,0,0,0,0,0l0.1-0.1c0,0,0,0,0-0.1l0.1-0.2
		l0,0c0-0.1,0.1-0.2,0.1-0.3c0,0,0,0,0,0c0.1-0.2,0.2-0.3,0.2-0.5l0,0c0,0,0-0.1,0-0.1l0.1-0.2l0,0c0.1-0.2,0.2-0.4,0.2-0.6l0.1-0.2
		c0-0.1,0-0.1,0.1-0.2l0.1-0.2l0,0c0-0.2,0.1-0.4,0.1-0.5c0-0.1,0.1-0.3,0.1-0.4c0,0,0,0,0-0.1l0.1-0.3c0-0.2,0-0.3,0.1-0.5
		c0-0.1,0-0.2,0-0.3c0-0.4,0.1-0.7,0.1-1.1v0l0,0c0,0,0,0,0,0c0,0,0,0,0,0c0,0,0,0,0,0c0,0,0,0,0,0c0,0,0,0,0,0c0,0,0,0,0,0
		c0,0,0,0,0,0c0,0,0,0,0,0c0,0,0,0,0,0l0,0l0,0c0,0,0,0,0,0v0l0,0c0,0,0,0,0,0c0,0,0,0,0,0v0c0,0,0,0,0,0c0,0,0,0,0,0v0c0,0,0,0,0,0
		c0,0,0,0,0,0v0v0l0,0C25,12.1,25,11.7,24.9,11.3z M24.1,13.8c0,0.1,0,0.1,0,0.2H16l7.1,3.5c-0.1,0.1-0.1,0.2-0.2,0.3L15.1,14H14
		v10.1c-0.1,0-0.2,0-0.2,0c-0.1,0-0.1,0-0.2,0c-0.4,0-0.7,0.1-1.1,0.1c-0.3,0-0.7,0-1-0.1c-0.1,0-0.2,0-0.2,0c-0.1,0-0.1,0-0.2,0V14
		h-1l-7.8,4c0,0,0,0,0,0c-0.1-0.1-0.1-0.2-0.1-0.3L9.1,14H0.9c0-0.1,0-0.1,0-0.2c0-0.2,0-0.4,0-0.6c0-0.2,0-0.5,0-0.7
		c0-0.4,0-0.7,0.1-1.1c0-0.1,0-0.2,0-0.2c0-0.1,0-0.1,0-0.2H9L2,7.5C2,7.4,2.1,7.3,2.1,7.2L9.9,11H11V0.9c0.1,0,0.1,0,0.2,0
		c0.1,0,0.2,0,0.2,0c0.3,0,0.7-0.1,1.1-0.1s0.7,0,1.1,0.1c0.1,0,0.2,0,0.2,0c0.1,0,0.1,0,0.2,0V11h1l7.8-3.9
		c0.1,0.1,0.1,0.2,0.2,0.3L15.9,11h8.2c0,0.1,0,0.1,0,0.2c0,0.1,0,0.2,0,0.2c0,0.4,0.1,0.7,0.1,1.1c0,0.3,0,0.7-0.1,1
		C24.1,13.6,24.1,13.7,24.1,13.8z M23.7,15.6h-1.5l1.3,0.7c0,0.1-0.1,0.3-0.2,0.4l-3.8-1.9h4.3C23.9,15.1,23.8,15.3,23.7,15.6z
		 M22.2,18.9C22.2,18.9,22.2,18.9,22.2,18.9l-6.7-3.2v8.1c-0.3,0.1-0.5,0.1-0.8,0.2v-9.1h0.1l7.5,3.7C22.4,18.6,22.3,18.8,22.2,18.9
		z M9.4,23.7v-8.1L2.8,19c0,0,0,0,0-0.1c-0.1-0.1-0.1-0.2-0.1-0.2l7.6-3.8v9.1C9.9,23.9,9.7,23.8,9.4,23.7z M1.5,16.3l1.3-0.7H1.3
		c-0.1-0.3-0.1-0.5-0.2-0.8h4.6l-4,2C1.6,16.6,1.5,16.5,1.5,16.3z M1.1,10.2C1.1,10.1,1.1,10.1,1.1,10.2c0.1-0.3,0.1-0.5,0.2-0.8
		h1.7L1.5,8.7c0-0.1,0.1-0.2,0.1-0.4l3.8,1.9L1.1,10.2C1.1,10.2,1.1,10.2,1.1,10.2z M2.8,6l6.6,3.3v-8c0.2-0.1,0.5-0.1,0.7-0.2
		c0,0,0,0,0,0c0,0,0,0,0,0v9.1h-0.1L2.5,6.5C2.6,6.3,2.7,6.1,2.8,6z M14.8,1.1C14.8,1.1,14.9,1.1,14.8,1.1c0.3,0.1,0.5,0.1,0.8,0.2
		v8L22.2,6c0.1,0.1,0.1,0.2,0.2,0.3l-7.6,3.8L14.8,1.1C14.8,1.1,14.8,1.1,14.8,1.1z M23.5,8.7L22,9.4h1.7c0.1,0.3,0.1,0.5,0.2,0.8
		h-4.6l4-2C23.4,8.3,23.4,8.5,23.5,8.7z M21.7,5.3l-5.2,2.6V1.5C18.5,2.3,20.3,3.6,21.7,5.3z M8.6,1.5v6.4L3.3,5.3
		C4.7,3.6,6.5,2.3,8.6,1.5z M4.3,20.7c-0.4-0.4-0.7-0.7-1-1.1L8.6,17v6.5C7,22.9,5.5,22,4.3,20.7z M20.7,20.7
		c-1.2,1.2-2.7,2.2-4.3,2.7V17l5.3,2.6C21.4,20,21.1,20.4,20.7,20.7z"/>
</g>
</svg>
