<?xml version="1.0" encoding="utf-8"?>
<!-- Generator: Adobe Illustrator 18.1.1, SVG Export Plug-In . SVG Version: 6.00 Build 0)  -->
<svg version="1.1" id="Camada_1" xmlns="http://www.w3.org/2000/svg" xmlns:xlink="http://www.w3.org/1999/xlink" x="0px" y="0px"
	 viewBox="0 0 25 25" enable-background="new 0 0 25 25" xml:space="preserve">
<g id="XMLID_913_">
	<g id="XMLID_924_">
		<path fill="#231F20" d="M12.5,0C5.6,0,0,5.6,0,12.5c0,3.3,1.3,6.5,3.7,8.8C6,23.7,9.2,25,12.5,25c3.3,0,6.5-1.3,8.8-3.7
			c2.4-2.4,3.7-5.5,3.7-8.8C25,5.6,19.4,0,12.5,0z M20.8,20.7c-2.2,2.2-5.1,3.4-8.2,3.4c-3.1,0-6-1.2-8.3-3.4
			c-2.2-2.2-3.4-5.1-3.4-8.3c0-6.4,5.2-11.7,11.7-11.7c6.4,0,11.7,5.2,11.7,11.7C24.2,15.6,23,18.5,20.8,20.7z"/>
	</g>
	<g id="XMLID_921_">
		<path fill="#231F20" d="M8.2,5L6.8,9.6L2,9.5l3.8,2.8l-1.5,4.5L8.2,14l3.8,2.8l-1.5-4.5l3.8-2.8l-4.7,0L8.2,5z M9.6,12l0.9,2.6
			L8.2,13L6,14.6L6.9,12l-2.2-1.6l2.8,0l0.9-2.6l0.9,2.6l2.8,0L9.6,12z"/>
	</g>
	<g id="XMLID_920_">
		<polygon fill="#231F20" points="16.7,6.4 17.1,7.4 17.4,6.3 18.4,6.2 17.5,5.7 17.7,4.6 16.9,5.4 16,4.8 16.4,5.8 15.6,6.5 		"/>
	</g>
	<g id="XMLID_919_">
		<polygon fill="#231F20" points="20.2,11.2 20.9,10.3 21.9,10.7 21.3,9.8 22,9 20.9,9.2 20.3,8.3 20.3,9.4 19.2,9.7 20.2,10.1 		
			"/>
	</g>
	<g id="XMLID_915_">
		<polygon fill="#231F20" points="22.2,14.7 21.1,14.8 20.7,13.7 20.4,14.8 19.3,14.9 20.2,15.5 19.9,16.5 20.8,15.8 21.7,16.4 
			21.3,15.4 		"/>
	</g>
	<g id="XMLID_914_">
		<polygon fill="#231F20" points="17.5,17.5 16.8,18.4 15.8,18 16.4,18.9 15.8,19.8 16.8,19.5 17.4,20.4 17.5,19.3 18.5,19 
			17.5,18.6 		"/>
	</g>
</g>
</svg>
