<?xml version="1.0" encoding="utf-8"?>
<!-- Generator: Adobe Illustrator 19.1.0, SVG Export Plug-In . SVG Version: 6.00 Build 0)  -->
<svg version="1.1" id="Layer_1" xmlns="http://www.w3.org/2000/svg" xmlns:xlink="http://www.w3.org/1999/xlink" x="0px" y="0px"
	 viewBox="0 0 35 43.8" style="enable-background:new 0 0 35 43.8;" xml:space="preserve">
<style type="text/css">
	.st0{fill:none;}
	.st1{fill:#0698D0;}
</style>
<rect id="XMLID_1150_" x="-272.3" y="-145.7" class="st0" width="740" height="450"/>
<path id="XMLID_940_" class="st1" d="M17.5,0C7.8,0,0,7.8,0,17.5c0,4.8,2.1,9,5.1,12.4l12.4,13.9l12.4-13.9c3-3.3,5.1-7.5,5.1-12.4
	C35,7.8,27.2,0,17.5,0z M25.9,25.9c-2.2,2.2-5.2,3.5-8.4,3.5c-3.2,0-6.1-1.2-8.4-3.5c-2.2-2.2-3.5-5.2-3.5-8.4
	C5.7,11,11,5.7,17.5,5.7c6.5,0,11.8,5.3,11.8,11.8C29.3,20.7,28.1,23.6,25.9,25.9z"/>
</svg>
