<?xml version="1.0" encoding="utf-8"?>
<!-- Generator: Adobe Illustrator 18.1.1, SVG Export Plug-In . SVG Version: 6.00 Build 0)  -->
<svg version="1.1" id="Camada_1" xmlns="http://www.w3.org/2000/svg" xmlns:xlink="http://www.w3.org/1999/xlink" x="0px" y="0px"
	 viewBox="0 0 22.5 22.5" enable-background="new 0 0 22.5 22.5" xml:space="preserve">
<g id="XMLID_18087_">
	<path id="XMLID_18089_" fill="#F2F2F2" d="M22,21.6H1V12h1c0.3,0,0.5-0.2,0.5-0.5c0-0.3-0.2-0.5-0.5-0.5H1V9.1h1
		c0.3,0,0.5-0.2,0.5-0.5c0-0.3-0.2-0.5-0.5-0.5H1V6.2h1c0.3,0,0.5-0.2,0.5-0.5c0-0.3-0.2-0.5-0.5-0.5H1V3.4h1c0.3,0,0.5-0.2,0.5-0.5
		S2.2,2.4,1.9,2.4H1V0.5C1,0.2,0.7,0,0.5,0S0,0.2,0,0.5V22c0,0.3,0.2,0.5,0.5,0.5H22c0.3,0,0.5-0.2,0.5-0.5
		C22.5,21.8,22.3,21.6,22,21.6z"/>
	<path id="XMLID_18088_" fill="#F2F2F2" d="M1.9,20.3c-0.1,0.2-0.1,0.4,0.1,0.6C2.1,21,2.2,21,2.3,21c0.1,0,0.3-0.1,0.3-0.2l1.7-2.2
		c0.2,0.1,0.5,0.2,0.8,0.2c1.2,0,2.1-0.9,2.1-2.1c0,0,0-0.1,0-0.1l4.5-1.4c0.4,0.6,1,1.1,1.8,1.1c1.2,0,2.1-0.9,2.1-2.1
		c0-0.6-0.3-1.2-0.7-1.6L17.8,7C18,7,18.2,7.1,18.4,7.1c1.2,0,2.1-0.9,2.1-2.1s-0.9-2.1-2.1-2.1S16.3,3.8,16.3,5
		c0,0.6,0.3,1.2,0.7,1.6L14,12.2c-0.2-0.1-0.4-0.1-0.6-0.1c-1.2,0-2.1,0.9-2.1,2.1c0,0.1,0,0.1,0,0.2l-4.4,1.4
		c-0.3-0.7-1-1.2-1.9-1.2c-1.2,0-2.1,0.9-2.1,2.1c0,0.6,0.2,1.1,0.6,1.5L1.9,20.3z"/>
</g>
</svg>
