<?xml version="1.0" encoding="utf-8"?>
<!-- Generator: Adobe Illustrator 18.1.1, SVG Export Plug-In . SVG Version: 6.00 Build 0)  -->
<svg version="1.1" id="Camada_1" xmlns="http://www.w3.org/2000/svg" xmlns:xlink="http://www.w3.org/1999/xlink" x="0px" y="0px"
	 viewBox="0 0 427.5 299.5" enable-background="new 0 0 427.5 299.5" xml:space="preserve">
<g>
	
		<line id="XMLID_543_" fill="#231F20" stroke="#231F20" stroke-width="2.1561" stroke-linecap="round" stroke-miterlimit="10" x1="1.1" y1="1.1" x2="11.1" y2="1.1"/>
	
		<line id="XMLID_542_" fill="#231F20" stroke="#231F20" stroke-width="2.1561" stroke-linecap="round" stroke-miterlimit="10" x1="1.1" y1="21.8" x2="11.1" y2="21.8"/>
	
		<line id="XMLID_541_" fill="#231F20" stroke="#231F20" stroke-width="2.1561" stroke-linecap="round" stroke-miterlimit="10" x1="1.1" y1="42.4" x2="11.1" y2="42.4"/>
	
		<line id="XMLID_534_" fill="#231F20" stroke="#231F20" stroke-width="2.1561" stroke-linecap="round" stroke-miterlimit="10" x1="1.1" y1="63.1" x2="11.1" y2="63.1"/>
	
		<line id="XMLID_533_" fill="#231F20" stroke="#231F20" stroke-width="2.1561" stroke-linecap="round" stroke-miterlimit="10" x1="1.1" y1="83.8" x2="11.1" y2="83.8"/>
	
		<line id="XMLID_525_" fill="#231F20" stroke="#231F20" stroke-width="2.1561" stroke-linecap="round" stroke-miterlimit="10" x1="1.1" y1="104.5" x2="11.1" y2="104.5"/>
	
		<line id="XMLID_524_" fill="#231F20" stroke="#231F20" stroke-width="2.1561" stroke-linecap="round" stroke-miterlimit="10" x1="1.1" y1="125.2" x2="11.1" y2="125.2"/>
	
		<line id="XMLID_520_" fill="#231F20" stroke="#231F20" stroke-width="2.1561" stroke-linecap="round" stroke-miterlimit="10" x1="1.1" y1="145.8" x2="11.1" y2="145.8"/>
	
		<line id="XMLID_519_" fill="#231F20" stroke="#231F20" stroke-width="2.1561" stroke-linecap="round" stroke-miterlimit="10" x1="1.1" y1="166.5" x2="11.1" y2="166.5"/>
	
		<line id="XMLID_511_" fill="#231F20" stroke="#231F20" stroke-width="2.1561" stroke-linecap="round" stroke-miterlimit="10" x1="1.1" y1="187.2" x2="11.1" y2="187.2"/>
	
		<line id="XMLID_510_" fill="#231F20" stroke="#231F20" stroke-width="2.1561" stroke-linecap="round" stroke-miterlimit="10" x1="1.1" y1="207.9" x2="11.1" y2="207.9"/>
	
		<line id="XMLID_506_" fill="#231F20" stroke="#231F20" stroke-width="2.1561" stroke-linecap="round" stroke-miterlimit="10" x1="1.1" y1="228.6" x2="11.1" y2="228.6"/>
	
		<line id="XMLID_505_" fill="#231F20" stroke="#231F20" stroke-width="2.1561" stroke-linecap="round" stroke-miterlimit="10" x1="1.1" y1="249.3" x2="11.1" y2="249.3"/>
	
		<line id="XMLID_497_" fill="#231F20" stroke="#231F20" stroke-width="2.1561" stroke-linecap="round" stroke-miterlimit="10" x1="1.1" y1="269.9" x2="11.1" y2="269.9"/>
	
		<line id="XMLID_496_" fill="#231F20" stroke="#231F20" stroke-width="2.1561" stroke-linecap="round" stroke-miterlimit="10" x1="1.1" y1="290.6" x2="11.1" y2="290.6"/>
	<circle id="XMLID_450_" fill="#231F20" cx="31.9" cy="296.8" r="2.7"/>
	<circle id="XMLID_449_" fill="#231F20" cx="97.8" cy="296.8" r="2.7"/>
	<circle id="XMLID_448_" fill="#231F20" cx="162.8" cy="296.8" r="2.7"/>
	<circle id="XMLID_447_" fill="#231F20" cx="228.7" cy="296.8" r="2.7"/>
	<circle id="XMLID_446_" fill="#231F20" cx="294" cy="296.8" r="2.7"/>
	<circle id="XMLID_445_" fill="#231F20" cx="359.5" cy="296.8" r="2.7"/>
	<circle id="XMLID_438_" fill="#231F20" cx="424.8" cy="296.8" r="2.7"/>
	<circle id="XMLID_424_" fill="#787878" cx="31.9" cy="236.2" r="2.7"/>
	<circle id="XMLID_423_" fill="#787878" cx="97.8" cy="232.9" r="2.7"/>
	<circle id="XMLID_415_" fill="#787878" cx="162.8" cy="226.9" r="2.7"/>
	<circle id="XMLID_414_" fill="#787878" cx="228.7" cy="218.6" r="2.7"/>
	<circle id="XMLID_380_" fill="#787878" cx="294" cy="212.6" r="2.7"/>
	<circle id="XMLID_364_" fill="#787878" cx="359.5" cy="201.3" r="2.7"/>
	<circle id="XMLID_324_" fill="#787878" cx="424.8" cy="168.3" r="2.7"/>
	<polyline id="XMLID_323_" fill="none" stroke="#787878" stroke-width="2" stroke-miterlimit="10" points="31.9,236.2 97.8,232.9 
		162.8,226.9 228.7,218.6 294,212.6 359.5,201.3 424.8,168.3 	"/>
	<circle id="XMLID_322_" fill="#787878" cx="31.9" cy="240.3" r="2.7"/>
	<circle id="XMLID_305_" fill="#787878" cx="97.8" cy="243" r="2.7"/>
	<circle id="XMLID_289_" fill="#787878" cx="162.8" cy="247.8" r="2.7"/>
	<circle id="XMLID_258_" fill="#787878" cx="228.7" cy="248.4" r="2.7"/>
	<circle id="XMLID_257_" fill="#787878" cx="294" cy="246.9" r="2.7"/>
	<circle id="XMLID_255_" fill="#787878" cx="359.5" cy="244.7" r="2.7"/>
	<circle id="XMLID_254_" fill="#787878" cx="31.9" cy="282.9" r="2.7"/>
	<circle id="XMLID_253_" fill="#787878" cx="97.8" cy="282.9" r="2.7"/>
	<circle id="XMLID_213_" fill="#787878" cx="162.8" cy="279.1" r="2.7"/>
	<circle id="XMLID_209_" fill="#787878" cx="228.7" cy="272.5" r="2.7"/>
	<circle id="XMLID_195_" fill="#787878" cx="294" cy="264.7" r="2.7"/>
	<circle id="XMLID_194_" fill="#787878" cx="359.5" cy="252.1" r="2.7"/>
	<circle id="XMLID_186_" fill="#787878" cx="424.8" cy="237.1" r="2.7"/>
	<polyline id="XMLID_185_" fill="none" stroke="#787878" stroke-width="2" stroke-miterlimit="10" points="31.9,282.9 97.8,282.9 
		162.8,279.1 228.7,272.5 294,264.7 359.5,252.1 424.8,237.1 	"/>
	<circle id="XMLID_181_" fill="#787878" cx="31.9" cy="286.8" r="2.7"/>
	<circle id="XMLID_180_" fill="#787878" cx="97.8" cy="286.5" r="2.7"/>
	<circle id="XMLID_179_" fill="#787878" cx="162.8" cy="286.3" r="2.7"/>
	<circle id="XMLID_178_" fill="#787878" cx="228.7" cy="286.3" r="2.7"/>
	<circle id="XMLID_174_" fill="#787878" cx="294" cy="285.9" r="2.7"/>
	<circle id="XMLID_173_" fill="#787878" cx="359.5" cy="285.6" r="2.7"/>
	<circle id="XMLID_159_" fill="#787878" cx="424.8" cy="283.8" r="2.7"/>
	<polyline id="XMLID_155_" fill="none" stroke="#787878" stroke-width="2" stroke-miterlimit="10" points="31.9,286.8 97.8,286.5 
		162.8,286.3 228.7,286.3 294,285.9 359.5,285.6 424.8,283.8 	"/>
	<circle id="XMLID_142_" fill="#787878" cx="31.9" cy="280.3" r="2.7"/>
	<circle id="XMLID_90_" fill="#787878" cx="97.8" cy="279.7" r="2.7"/>
	<circle id="XMLID_82_" fill="#787878" cx="162.8" cy="279.1" r="2.7"/>
	<circle id="XMLID_64_" fill="#787878" cx="228.7" cy="278.9" r="2.7"/>
	<circle id="XMLID_63_" fill="#787878" cx="294" cy="279.3" r="2.7"/>
	<circle id="XMLID_52_" fill="#787878" cx="359.5" cy="278.4" r="2.7"/>
	<circle id="XMLID_50_" fill="#787878" cx="424.8" cy="277.1" r="2.7"/>
	<polyline id="XMLID_43_" fill="none" stroke="#787878" stroke-width="2" stroke-miterlimit="10" points="31.9,280.3 97.8,279.7 
		163,279.1 228.7,278.9 293.8,279.3 359.5,278.4 424.8,277.1 	"/>
	<circle id="XMLID_42_" fill="#787878" cx="31.9" cy="41.8" r="2.7"/>
	<circle id="XMLID_41_" fill="#787878" cx="97.8" cy="15.1" r="2.7"/>
	<circle id="XMLID_34_" fill="#787878" cx="162.8" cy="12.3" r="2.7"/>
	<circle id="XMLID_33_" fill="#787878" cx="228.7" cy="20.6" r="2.7"/>
	<circle id="XMLID_32_" fill="#787878" cx="294" cy="31.7" r="2.7"/>
	<circle id="XMLID_31_" fill="#787878" cx="359.5" cy="69.6" r="2.7"/>
	<circle id="XMLID_28_" fill="#787878" cx="424.8" cy="78.3" r="2.7"/>
	<polyline id="XMLID_25_" fill="none" stroke="#787878" stroke-width="2" stroke-miterlimit="10" points="31.9,41.8 97.8,15.1 
		162.8,12.3 228.7,20.6 294,31.7 359.5,69.6 424.8,78.3 	"/>
	<polyline id="XMLID_13_" fill="none" stroke="#787878" stroke-width="2" stroke-miterlimit="10" points="31.9,240.3 97.8,243 
		162.8,247.8 228.7,248.4 294,246.9 359.5,244.7 424.8,242 	"/>
	<circle id="XMLID_12_" fill="#787878" cx="424.8" cy="242" r="2.7"/>
</g>
</svg>
