<?xml version="1.0" encoding="utf-8"?>
<!-- Generator: Adobe Illustrator 19.1.0, SVG Export Plug-In . SVG Version: 6.00 Build 0)  -->
<svg version="1.1" id="Layer_1" xmlns="http://www.w3.org/2000/svg" xmlns:xlink="http://www.w3.org/1999/xlink" x="0px" y="0px"
	 viewBox="0 0 40 40" style="enable-background:new 0 0 40 40;" xml:space="preserve">
<style type="text/css">
	.st0{fill:none;}
</style>
<rect id="XMLID_1150_" x="-344.9" y="-161.1" class="st0" width="740" height="450"/>
<g id="XMLID_1053_">
	<polygon id="XMLID_1072_" points="25.9,11.4 23.9,11.4 14.1,28.6 16.1,28.6 	"/>
	<path id="XMLID_1061_" d="M19,16.5c0-2.8-1.7-4.6-4-4.6c-2.2,0-4.1,2-4.1,4.8c0,3.2,2.2,4.7,4,4.7C16.8,21.4,19,19.9,19,16.5z
		 M15,19.3c-0.9,0-1.6-1.2-1.6-2.6S14.1,14,15,14c0.9,0,1.6,1.2,1.6,2.6S15.9,19.3,15,19.3z"/>
	<path id="XMLID_1058_" d="M25,28c1.9,0,4.1-1.5,4.1-4.9c0-2.8-1.7-4.6-4-4.6c-1.9,0-4.1,1.5-4.1,4.8C21,26.6,23.2,28,25,28z
		 M25,20.6c0.9,0,1.6,1.2,1.6,2.6c0,1.5-0.7,2.6-1.6,2.6c-0.9,0-1.6-1.2-1.6-2.6C23.4,21.8,24.1,20.6,25,20.6z"/>
	<path id="XMLID_1057_" d="M7.6,27.1C6.4,25,5.7,22.5,5.7,20s0.7-5,1.9-7.1L2.7,10C0.9,13,0,16.5,0,20s0.9,7,2.7,10
		c1.8,3,4.3,5.6,7.3,7.3c2.7,1.6,5.8,2.5,8.9,2.6v-5.7c-2.1-0.2-4.2-0.8-6-1.9C10.7,31.1,8.9,29.3,7.6,27.1z"/>
	<path id="XMLID_1056_" d="M12.9,7.6C15,6.4,17.5,5.7,20,5.7V0c-3.5,0-7,0.9-10,2.7C7.3,4.2,5,6.4,3.3,9.1l5,2.9
		C9.4,10.2,11,8.7,12.9,7.6z"/>
	<path id="XMLID_1055_" d="M32.4,12.9l4.9-2.9C35.6,7,33,4.4,30,2.7c-2.7-1.6-5.8-2.5-8.9-2.6v5.7c2.1,0.2,4.2,0.8,6,1.9
		C29.3,8.9,31.1,10.7,32.4,12.9z"/>
	<path id="XMLID_1054_" d="M32.9,13.8c0.9,1.9,1.4,4,1.4,6.2c0,2.5-0.7,5-1.9,7.1c-1.3,2.2-3.1,4-5.2,5.2c-2.2,1.3-4.6,1.9-7.1,1.9
		V40c3.5,0,7-0.9,10-2.7c3-1.8,5.6-4.3,7.3-7.3c1.8-3,2.7-6.5,2.7-10c0-3.1-0.8-6.2-2.2-9L32.9,13.8z"/>
</g>
</svg>
