<?xml version="1.0" encoding="utf-8"?>
<!-- Generator: Adobe Illustrator 18.1.1, SVG Export Plug-In . SVG Version: 6.00 Build 0)  -->
<svg version="1.1" id="Camada_1" xmlns="http://www.w3.org/2000/svg" xmlns:xlink="http://www.w3.org/1999/xlink" x="0px" y="0px"
	 viewBox="0 0 30 30" enable-background="new 0 0 30 30" xml:space="preserve">
<g>
	<path fill="#DFDFDF" d="M15,0C6.7,0,0,6.7,0,15c0,8.3,6.7,15,15,15c8.3,0,15-6.7,15-15C30,6.7,23.3,0,15,0z M15,27
		C8.4,27,3,21.6,3,15C3,8.4,8.4,3,15,3c6.6,0,12,5.4,12,12C27,21.6,21.6,27,15,27z"/>
	<circle fill="#DFDFDF" cx="15.5" cy="9.7" r="1.7"/>
	<path fill="#DFDFDF" d="M14.9,19.6c0,0,2.5-5.5,1.9-6.3c0,0-0.9-2.6-4.1,0.4c0,0,3.7-1.1,0.8,3.6c0,0-2.8,4,0.7,4.6
		c0,0,1.7,0.5,2.8-1.2C16.9,20.7,14.3,20.9,14.9,19.6z"/>
</g>
</svg>
