<?xml version="1.0" encoding="utf-8"?>
<!-- Generator: Adobe Illustrator 18.1.1, SVG Export Plug-In . SVG Version: 6.00 Build 0)  -->
<svg version="1.1" id="Camada_1" xmlns="http://www.w3.org/2000/svg" xmlns:xlink="http://www.w3.org/1999/xlink" x="0px" y="0px"
	 viewBox="0 0 39.7 23.4" enable-background="new 0 0 39.7 23.4" xml:space="preserve">
<g>
	<path fill="#FFFFFF" d="M26.8,15.5h-1.4c-1.7,0-3.1-1.4-3.1-3.1v-1l0.1-0.1c0.6-0.7,1-1.5,1.3-2.5c0-0.2,0.2-0.3,0.3-0.4
		c0,0,0.1,0,0.1-0.1c0.5-0.5,0.6-1.2,0.2-1.8c0,0,0-0.1,0-0.1c-0.1-0.1-0.1-0.2-0.1-0.4l0-0.8c0-0.6,0-1.1,0-1.7
		c0-1.1-0.4-2-0.9-2.6c-0.6-0.7-1.4-0.9-2-1c-1-0.2-2-0.2-3,0.1c-0.9,0.2-1.6,0.7-2,1.4c-0.4,0.6-0.6,1.3-0.6,2.1c0,0.5,0,1.1,0,1.6
		v0.9c0,0.2-0.1,0.3-0.2,0.4c0,0,0,0.1-0.1,0.1c-0.3,0.6-0.2,1.4,0.3,1.8C15.9,8.7,15.9,8.9,16,9l0,0.1c0.3,0.8,0.7,1.5,1.2,2.2
		l0.1,0.1v1c0,1.7-1.4,3.1-3.1,3.1h-1.4c-0.3,0.1-2.5,0.9-4,4v2.8c0,0.6,0.5,1.2,1.2,1.2h19.7c0.6,0,1.2-0.5,1.2-1.2v-2.8
		C29.3,16.4,27.1,15.6,26.8,15.5z"/>
	<path fill="#FFFFFF" d="M8.3,19.4c1.2-2.6,2.9-3.7,3.8-4.1c-0.2-0.4-0.3-0.8-0.3-1.2v-0.8c0.5-0.6,0.9-1.4,1.1-2.1
		c0-0.1,0.1-0.2,0.2-0.3c0.5-0.5,0.5-1.2,0.2-1.8c0-0.1-0.1-0.2-0.1-0.3c0-0.7,0-1.4,0-2.1c0-0.8-0.3-1.7-0.8-2.3
		c-0.5-0.5-1.1-0.8-1.8-0.9C9.7,3.4,8.9,3.4,8,3.6C7.3,3.8,6.6,4.2,6.2,4.8C5.8,5.4,5.7,6.1,5.6,6.7c0,0.7,0,1.4,0,2.1
		c0,0.1-0.1,0.2-0.2,0.4C5.1,9.8,5.3,10.5,5.8,11C5.9,11,6,11.2,6,11.4c0.2,0.7,0.6,1.3,1.1,1.9V14c0,1.3-1.1,2.4-2.4,2.4H3.5
		c0,0-2.1,0.6-3.5,3.5v1.2c0,0.7,0.5,1.2,1.2,1.2h7.2c0,0,0-0.8,0-1.4L8.3,19.4z"/>
	<path fill="#FFFFFF" d="M36.1,16.4H35c-1.3,0-2.4-1.1-2.4-2.4v-0.8c0.5-0.6,0.9-1.4,1.1-2.1c0-0.1,0.1-0.2,0.2-0.3
		c0.5-0.5,0.5-1.2,0.2-1.8C34.1,9,34,9,34,8.9c0-0.7,0-1.4,0-2.1c0-0.8-0.3-1.7-0.8-2.3c-0.5-0.5-1.1-0.8-1.8-0.9
		c-0.8-0.2-1.7-0.2-2.6,0.1c-0.7,0.2-1.4,0.6-1.8,1.2c-0.4,0.5-0.5,1.2-0.6,1.9c0,0.7,0,1.4,0,2.1c0,0.1-0.1,0.2-0.2,0.4
		c-0.3,0.6-0.2,1.4,0.3,1.8c0.1,0.1,0.2,0.3,0.2,0.4c0.2,0.7,0.6,1.3,1.1,1.9V14c0,0.4-0.1,0.9-0.3,1.2c0.9,0.4,2.5,1.5,3.8,4.1
		l0,0.1v1.4c0,0.6,0,1.4,0,1.4h7.2c0.7,0,1.2-0.5,1.2-1.2v-1.2C38.3,17,36.1,16.4,36.1,16.4z"/>
</g>
</svg>
