<?xml version="1.0" encoding="utf-8"?>
<!-- Generator: Adobe Illustrator 18.1.1, SVG Export Plug-In . SVG Version: 6.00 Build 0)  -->
<svg version="1.1" id="Camada_1" xmlns="http://www.w3.org/2000/svg" xmlns:xlink="http://www.w3.org/1999/xlink" x="0px" y="0px"
	 viewBox="0 0 22.5 23.7" enable-background="new 0 0 22.5 23.7" xml:space="preserve">
<path id="XMLID_1527_" fill="#FFFFFF" d="M18.3,15.5h-1.4c-1.6,0-2.8-1.3-2.8-2.8v-0.9c0.6-0.7,1.1-1.6,1.3-2.5
	c0-0.2,0.2-0.2,0.3-0.3c0.5-0.5,0.6-1.4,0.2-2.1c-0.1-0.1-0.2-0.2-0.1-0.3c0-0.8,0-1.7,0-2.5c0-1-0.3-2-1-2.8
	c-0.6-0.6-1.3-1-2.1-1.1c-1-0.2-2.1-0.2-3.1,0.1C8.7,0.4,7.9,0.9,7.4,1.7C7,2.3,6.8,3.1,6.7,3.9c0,0.8,0,1.7,0,2.5
	c0,0.2-0.1,0.3-0.2,0.4C6.2,7.5,6.3,8.5,6.9,9c0.2,0.1,0.2,0.3,0.2,0.5c0.3,0.8,0.7,1.6,1.3,2.3v0.9c0,1.6-1.3,2.8-2.8,2.8H4.2
	c0,0-2.6,0.7-4.2,4.2v2.6c0,0.8,0.6,1.4,1.4,1.4h19.7c0.8,0,1.4-0.6,1.4-1.4v-2.6C20.9,16.2,18.3,15.5,18.3,15.5z"/>
</svg>
