<?xml version="1.0" encoding="utf-8"?>
<!-- Generator: Adobe Illustrator 18.1.1, SVG Export Plug-In . SVG Version: 6.00 Build 0)  -->
<svg version="1.1" id="Camada_1" xmlns="http://www.w3.org/2000/svg" xmlns:xlink="http://www.w3.org/1999/xlink" x="0px" y="0px"
	 viewBox="0 0 161.3 87.9" enable-background="new 0 0 161.3 87.9" xml:space="preserve">
<g id="XMLID_9068_">
	<g id="XMLID_9119_">
		<path id="XMLID_2278_" fill="#231F20" d="M13.8,55.9H3.1c-0.2,0-1.5-0.1-1.5-1.3c0-0.6,0.4-0.9,0.9-1.1c1.4-0.4,1.4-0.7,1.4-2.2
			V30.2c0-1.5,0-1.7-1.4-2.2C2,27.9,1.6,27.5,1.6,27c0-1.2,1.3-1.3,1.5-1.3h11.4c0.2,0,1.5,0.1,1.5,1.3c0,0.6-0.4,0.9-0.9,1.1
			c-1.4,0.4-1.4,0.7-1.4,2.2V55.9z M15.6,53.6c3.3-0.4,5.1-3.3,6-7c0.2-0.9,0.7-1.1,1.5-1.1c0.9,0,1,0.8,1,1.5v9h-8.5V53.6z"/>
		<path id="XMLID_2283_" fill="#231F20" d="M38.1,51.4c0,1.5,0,1.7,1.4,2.2c0.5,0.2,0.9,0.5,0.9,1.1c0,1.2-1.3,1.3-1.5,1.3H27.4
			c-0.2,0-1.5-0.1-1.5-1.3c0-0.6,0.4-0.9,0.9-1.1c1.4-0.4,1.4-0.7,1.4-2.2V30.2c0-1.5,0-1.7-1.4-2.2c-0.5-0.2-0.9-0.5-0.9-1.1
			c0-1.2,1.3-1.3,1.5-1.3h11.4c0.2,0,1.5,0.1,1.5,1.3c0,0.6-0.4,0.9-0.9,1.1c-1.4,0.4-1.4,0.7-1.4,2.2V51.4z"/>
		<path id="XMLID_2287_" fill="#231F20" d="M54.2,27.5c-1.5,0.5-2.9,1.7-2.9,3.3c0,2,1.1,3.2,5.9,5c7.1,2.7,8.8,6.5,8.8,10.3
			c0,6.3-5.2,10.3-11.2,10.5v-2.3c1.9-0.6,3.6-1.5,3.7-3.7c0.1-2.5-2.9-3.6-4.8-4.4c-5.1-2.1-9.8-4.4-9.8-10.8
			c0-6.1,4.4-9.9,10.4-10.1V27.5z M43.8,46.9c0-0.8,0.2-2,1.3-2c0.8,0,1.4,0.6,1.5,1.3c0.6,3.2,2.8,7.2,6.4,8v2.3
			c-3.5-0.1-4.3-1.5-5.7-1.5c-1.3,0-1.2,1.3-2.2,1.3c-1.3,0-1.3-1.5-1.3-1.7V46.9z M64.8,33.8c0,0.9-0.2,1.9-1.3,1.9
			c-1,0-1.3-0.8-1.5-1.6c-0.4-3-2.9-6.1-6.1-6.7v-2.3c2.5,0,5.2,1.6,5.7,1.6c1,0,1-1.5,2-1.5c1.3,0,1.2,1.4,1.2,1.7V33.8z"/>
		<path id="XMLID_2291_" fill="#231F20" d="M81.1,55.9H70.2c-0.3,0-1.3-0.1-1.3-1.3c0-0.6,0.4-0.9,0.9-1.1c1.4-0.4,1.4-0.7,1.4-2.2
			V30.2c0-1.5,0-1.7-1.4-2.2c-0.5-0.2-0.9-0.5-0.9-1.1c0-1.2,1-1.3,1.3-1.3h10.9V55.9z M82.9,25.7h1.3c2.5,0,5.1,0,7.5,1.2
			c2.5,1.3,4,3.3,4,6.2c0,4.4-3.7,6.5-7.6,7.1v0.1c4.5,0.7,8,2.7,8,7.7c0,2.9-1.3,5.1-3.8,6.5c-2.6,1.5-5.1,1.3-8,1.3h-1.3v-2.3
			c2.7-0.1,3-1.7,3-3.1v-5.2c0-1.9-0.4-3.6-3-3.8v-2.3c2.9-0.2,3-2,3-3.5v-4c0-1.7-0.6-3.3-3-3.6V25.7z"/>
		<path id="XMLID_9120_" fill="#231F20" d="M111.3,27.5c-1.9,0.7-2.1,1.9-2.1,2.9v20.9c0,1,0.2,2.2,2.1,2.9v2.3
			c-8.6-0.8-12.6-7.7-12.6-15.7s4-14.9,12.6-15.7V27.5z M113.1,54.2c1.9-0.7,2.1-1.9,2.1-2.9V30.4c0-1-0.2-2.2-2.1-2.9v-2.3
			c8.6,0.8,12.6,7.7,12.6,15.7s-4,14.9-12.6,15.7V54.2z"/>
		<path id="XMLID_9123_" fill="#231F20" d="M136.6,35.9l-3.8,13.8c-0.6,2.5-0.1,3.1,1.3,3.8c0.6,0.3,1.2,0.5,1.2,1.3
			c0,1.1-1.3,1.1-2.1,1.1h-4.6c-0.8,0-2.3,0-2.3-1.2c0-1,0.7-0.9,1.6-1.4c0.8-0.4,1.9-1.4,2.7-4.2l4.8-17.7h0.1L136.6,35.9z
			 M140.9,48.1H135l0.6-2.3h4.9l-4.1-17.8l0.5-2.2h8.9l6.1,25.5c0.2,1.1,0.3,1.9,1.4,2.4c0.6,0.2,1,0.5,1,1.3c0,1.1-1.5,1-2.2,1h-10
			c-0.8,0-2-0.1-2-1.1c0-0.6,0.2-0.8,0.8-1.1c1-0.6,1.2-0.9,0.8-2.5L140.9,48.1z"/>
	</g>
	<g id="XMLID_9071_">
		<path id="XMLID_9130_" fill="#231F20" d="M0,62.9v25h155v-25H0z M65.5,68.8c0.6,0,1.9,0.7,2.4,0.7c0.3,0,0.4-0.1,0.5-0.3
			c0.1-0.2,0.2-0.4,0.5-0.4c0.5,0,0.5,0.5,0.5,0.6v3.9c0,0.1,0,0.6-0.5,0.6c-0.4,0-0.6-0.3-0.6-0.6c-0.3-1.4-1.1-3.1-2.7-3.6V68.8z
			 M41.1,69.1h3.8v3.4c0,0.1,0,0.4-0.5,0.4c-0.3,0-0.4-0.2-0.5-0.4c-0.4-1.4-1.3-2.2-2.8-2.4V69.1z M41.1,74.7
			c0.7-0.2,1-0.8,1.2-1.5c0.1-0.3,0.2-0.6,0.5-0.6c0.5,0,0.4,0.6,0.4,0.7v3.7c0,0.1,0.1,0.7-0.4,0.7c-0.4,0-0.5-0.3-0.5-0.6
			c-0.2-0.6-0.5-1.3-1.2-1.5V74.7z M9.8,80.8c0.2,0.1,0.4,0.2,0.4,0.5c0,0.5-0.6,0.5-0.6,0.5H4.7c-0.1,0-0.6,0-0.6-0.5
			c0-0.2,0.2-0.4,0.4-0.5C5.1,80.6,5,80.5,5,79.9V71c0-0.6,0-0.7-0.6-0.9c-0.2-0.1-0.4-0.2-0.4-0.5c0-0.5,0.6-0.5,0.6-0.5h4.8
			c0.1,0,0.6,0,0.6,0.5c0,0.2-0.2,0.4-0.4,0.5c-0.6,0.2-0.6,0.3-0.6,0.9v8.9C9.2,80.5,9.2,80.6,9.8,80.8z M14.3,81.8h-1.9
			c-0.2,0-0.9,0-0.9-0.5c0-0.7,1.1-0.1,1.4-2.2v-6.8h0l0.9,1.7v5.1c0.3,2.1,1.4,1.5,1.4,2.2C15.2,81.8,14.5,81.8,14.3,81.8z
			 M21.7,81.8h-2.5L13,71.1c-0.3-0.5-0.4-0.7-0.9-0.9c-0.3-0.1-0.5-0.2-0.5-0.5c0-0.5,0.5-0.5,0.9-0.5h4.4l4.9,8.6V81.8z M21.7,72.1
			v4.1h0l-0.9-1.7v-2.4c0-2.4-1.4-1.8-1.4-2.6c0-0.5,0.6-0.5,0.7-0.5h2.3c0.2,0,0.7,0,0.7,0.5C23.1,70.4,21.7,69.7,21.7,72.1z
			 M25.2,72.7c-0.1,0.4-0.1,0.8-0.6,0.8c-0.5,0-0.6-0.4-0.6-0.5v-3.9h2.4v1C25.6,70.7,25.4,71.8,25.2,72.7z M31.7,81.8h-4.8
			c-0.1,0-0.6,0-0.6-0.5c0-0.2,0.2-0.4,0.4-0.5c0.6-0.2,0.6-0.3,0.6-0.9V69.1h4.2v10.8c0,0.6,0,0.7,0.6,0.9c0.2,0.1,0.4,0.2,0.4,0.5
			C32.3,81.7,31.8,81.8,31.7,81.8z M34.6,73c0,0.1-0.1,0.5-0.6,0.5c-0.5,0-0.6-0.4-0.6-0.8c-0.2-0.9-0.4-2-1.3-2.6v-1h2.4V73z
			 M40.4,81.8h-4.5c-0.1,0-0.6,0-0.6-0.5c0-0.2,0.2-0.4,0.4-0.5c0.6-0.2,0.6-0.3,0.6-0.9V71c0-0.6,0-0.7-0.6-0.9
			c-0.2-0.1-0.4-0.2-0.4-0.5c0-0.5,0.6-0.5,0.6-0.5h4.5V81.8z M45,78.4v3.4h-3.9v-1c1.4-0.2,2.4-1.1,2.9-2.5
			c0.1-0.3,0.2-0.5,0.5-0.5C45.1,77.8,45,78.3,45,78.4z M52.1,81.8h-4.8c-0.1,0-0.6,0-0.6-0.5c0-0.2,0.2-0.4,0.4-0.5
			c0.6-0.2,0.6-0.3,0.6-0.9V71c0-0.6,0-0.7-0.6-0.9c-0.2-0.1-0.4-0.2-0.4-0.5c0-0.5,0.6-0.5,0.6-0.5h4.5v10.8c0,0.6,0,0.7,0.6,0.9
			c0.2,0.1,0.4,0.2,0.4,0.5C52.7,81.7,52.1,81.8,52.1,81.8z M58,81.4c-0.6,0.5-1.2,0.6-1.9,0.6c-0.7,0-1.4-0.2-1.9-0.7
			c-0.6-0.6-0.7-1.4-0.7-2.2V78c0-0.8,0-1.7-1-1.8v-1c0.9-0.1,1-0.6,1-1.5v-2c0-0.8-0.2-1.3-1-1.6v-1h0.1c1.1,0,2.3,0,3.3,0.5
			c1.1,0.6,1.7,1.5,1.7,2.8c0,1.9-1.3,2.8-3,3.2v0c1.5,0.2,2.9,0.7,3,2.5v1.5c0,0.2-0.1,0.5,0.2,0.5c0.3,0,0.3-0.5,0.7-0.5
			c0.2,0,0.5,0.3,0.5,0.5C59,80.5,58.4,81.1,58,81.4z M64.7,69.8c-0.8,0.2-1.1,0.9-1.1,1.6v8c0,0.7,0.3,1.4,1.1,1.6v1
			c-3.7-0.1-5.5-2.9-5.5-6.4c0-3.9,2.2-6.7,5.5-6.8V69.8z M65.5,82v-1c1.3-0.3,2.4-1.2,2.8-2.4c0.1-0.3,0.2-0.5,0.6-0.5
			c0.3,0,0.5,0.3,0.5,0.6C69.3,80,67.2,82.1,65.5,82z M76.9,82c-1.3,0-2.4,0-3.5-0.7c-1.5-0.8-1.7-1.5-1.7-2.3v-8
			c0-0.6,0-0.7-0.6-0.9c-0.2-0.1-0.4-0.2-0.4-0.5c0-0.5,0.6-0.5,0.6-0.5h4.8c0.1,0,0.6,0,0.6,0.5c0,0.2-0.2,0.4-0.4,0.5
			c-0.6,0.2-0.6,0.3-0.6,0.9v8.1c0,0.2-0.2,1.5,1.1,1.9V82z M80.9,71.8v6.4c-0.1,2.8-2.2,3.8-3.3,3.8v-1c1.6-0.5,2.2-1.4,2.3-2.9
			v-6.4c-0.3-2.1-1.4-1.5-1.4-2.2c0-0.5,0.7-0.5,0.9-0.5h1.9c0.2,0,0.9,0,0.9,0.5C82.3,70.3,81.2,69.6,80.9,71.8z M88.6,71v10.8
			h-4.5c-0.1,0-0.6,0-0.6-0.5c0-0.2,0.2-0.4,0.4-0.5c0.6-0.2,0.6-0.3,0.6-0.9V71c0-0.6,0-0.7-0.6-0.9c-0.2-0.1-0.4-0.2-0.4-0.5
			c0-0.5,0.6-0.5,0.6-0.5h4.8c0.1,0,0.6,0,0.6,0.5c0,0.2-0.2,0.4-0.4,0.5C88.6,70.3,88.6,70.4,88.6,71z M93,81.8h-3.6v-1
			c1.4-0.2,2.2-1.4,2.5-2.9c0.1-0.4,0.3-0.5,0.6-0.5c0.4,0,0.4,0.3,0.4,0.6V81.8z M94.2,72.7c-0.1,0.4-0.1,0.8-0.6,0.8
			c-0.5,0-0.6-0.4-0.6-0.5v-3.9h2.4v1C94.6,70.7,94.3,71.8,94.2,72.7z M100.7,81.8h-4.8c-0.1,0-0.6,0-0.6-0.5c0-0.2,0.2-0.4,0.4-0.5
			c0.6-0.2,0.6-0.3,0.6-0.9V69.1h4.2v10.8c0,0.6,0,0.7,0.6,0.9c0.2,0.1,0.4,0.2,0.4,0.5C101.3,81.7,100.8,81.8,100.7,81.8z
			 M103.6,73c0,0.1-0.1,0.5-0.6,0.5c-0.5,0-0.6-0.4-0.6-0.8c-0.2-0.9-0.4-2-1.3-2.6v-1h2.4V73z M110.6,82c-1.3,0-2.4,0-3.5-0.7
			c-1.5-0.8-1.7-1.5-1.7-2.3v-8c0-0.6,0-0.7-0.6-0.9c-0.2-0.1-0.4-0.2-0.4-0.5c0-0.5,0.6-0.5,0.6-0.5h4.8c0.1,0,0.6,0,0.6,0.5
			c0,0.2-0.2,0.4-0.4,0.5c-0.6,0.2-0.6,0.3-0.6,0.9v8.1c0,0.2-0.2,1.5,1.1,1.9V82z M114.6,71.8v6.4c-0.1,2.8-2.2,3.8-3.3,3.8v-1
			c1.6-0.5,2.2-1.4,2.3-2.9v-6.4c-0.3-2.1-1.4-1.5-1.4-2.2c0-0.5,0.7-0.5,0.9-0.5h1.9c0.2,0,0.9,0,0.9,0.5
			C116,70.3,114.9,69.6,114.6,71.8z M122.8,81.8H118c-0.1,0-0.6,0-0.6-0.5c0-0.2,0.2-0.4,0.4-0.5c0.6-0.2,0.6-0.3,0.6-0.9V71
			c0-0.6,0-0.7-0.6-0.9c-0.2-0.1-0.4-0.2-0.4-0.5c0-0.5,0.6-0.5,0.6-0.5h4.5v10.8c0,0.6,0,0.7,0.6,0.9c0.2,0.1,0.4,0.2,0.4,0.5
			C123.4,81.7,122.8,81.8,122.8,81.8z M128.7,81.4c-0.6,0.5-1.2,0.6-1.9,0.6s-1.4-0.2-1.9-0.7c-0.6-0.6-0.7-1.4-0.7-2.2V78
			c0-0.8,0-1.7-1-1.8v-1c0.9-0.1,1-0.6,1-1.5v-2c0-0.8-0.2-1.3-1-1.6v-1h0.1c1.1,0,2.3,0,3.3,0.5c1.1,0.6,1.7,1.5,1.7,2.8
			c0,1.9-1.3,2.8-3,3.2v0c1.5,0.2,2.9,0.7,3,2.5v1.5c0,0.2-0.1,0.5,0.2,0.5c0.3,0,0.3-0.5,0.7-0.5c0.2,0,0.5,0.3,0.5,0.5
			C129.7,80.5,129.1,81.1,128.7,81.4z M132.5,81.8h-1.9c-0.3,0-0.9,0-0.9-0.5c0-0.4,0.3-0.4,0.7-0.6c0.4-0.2,0.8-0.6,1.1-1.8l2-7.4
			h0.1l0.4,1.9l-1.6,5.8c-0.3,1,0,1.3,0.5,1.6c0.3,0.1,0.5,0.2,0.5,0.6C133.4,81.8,132.9,81.8,132.5,81.8z M140.5,81.8h-4.2
			c-0.3,0-0.8,0-0.8-0.5c0-0.3,0.1-0.4,0.3-0.5c0.4-0.3,0.5-0.4,0.4-1l-0.3-1.3h-2.5l0.2-1h2.1l-1.7-7.5l0.2-0.9h3.7l2.5,10.7
			c0.1,0.5,0.1,0.8,0.6,1c0.2,0.1,0.4,0.2,0.4,0.5C141.4,81.8,140.8,81.8,140.5,81.8z M147.3,71v10.8h-4.5c-0.1,0-0.6,0-0.6-0.5
			c0-0.2,0.2-0.4,0.4-0.5c0.6-0.2,0.6-0.3,0.6-0.9V71c0-0.6,0-0.7-0.6-0.9c-0.2-0.1-0.4-0.2-0.4-0.5c0-0.5,0.6-0.5,0.6-0.5h4.8
			c0.1,0,0.6,0,0.6,0.5c0,0.2-0.2,0.4-0.4,0.5C147.3,70.3,147.3,70.4,147.3,71z M151.7,81.8h-3.6v-1c1.4-0.2,2.2-1.4,2.5-2.9
			c0.1-0.4,0.3-0.5,0.6-0.5c0.4,0,0.4,0.3,0.4,0.6V81.8z"/>
	</g>
	<g id="XMLID_9069_">
		<path id="XMLID_9128_" fill="#221F1F" d="M120.6,9h9.2l-0.8,5.6c0,0-1.1,4.9,6.6,6.9c0,0,7.8,1.9,13.3,1.9l3.8,8.3
			c0,0,0.5,2,2.2,0l5.5-3.9c0,0,2-0.6,0-2.3S134.7,1.9,134.7,1.9s-4.9-4.4-9.2,0C121.1,6.3,118.5,9,120.6,9z"/>
	</g>
</g>
</svg>
