<?xml version="1.0" encoding="utf-8"?>
<!-- Generator: Adobe Illustrator 18.1.1, SVG Export Plug-In . SVG Version: 6.00 Build 0)  -->
<svg version="1.1" id="Camada_1" xmlns="http://www.w3.org/2000/svg" xmlns:xlink="http://www.w3.org/1999/xlink" x="0px" y="0px"
	 viewBox="0 0 740 450" enable-background="new 0 0 740 450" xml:space="preserve">
<g>
	<g>
		<defs>
			<rect id="SVGID_1_" width="740" height="450"/>
		</defs>
		<clipPath id="SVGID_2_">
			<use xlink:href="#SVGID_1_"  overflow="visible"/>
		</clipPath>
		<g clip-path="url(#SVGID_2_)">
			<rect id="XMLID_5334_" x="-90.8" y="-67.6" fill="#72C9F4" width="852.1" height="518.2"/>
			<g id="XMLID_5333_">
				<path fill="#F2F2F2" d="M887.9,211.6c-1.4-1.1-139.6-109-155.5-116c-0.9-0.4-1.9-0.8-2.9-1.3c-6.8-3.2-16.2-7.6-38.7-7.6
					L629,91.5l-0.4-5l61.8-4.8c0.1,0,0.1,0,0.2,0c23.6,0,33.6,4.7,40.9,8.1c1,0.4,1.9,0.9,2.8,1.3c16.5,7.2,150.8,112.2,156.6,116.6
					L887.9,211.6z"/>
			</g>
			<g id="XMLID_5332_">
				
					<rect x="355.5" y="477" transform="matrix(-0.1208 -0.9927 0.9927 -0.1208 2.3651 961.1661)" fill="#F2F2F2" width="142.7" height="5"/>
			</g>
			<path id="XMLID_1_" fill="#F3F3F3" d="M673.8,49.5l0.5-39.4c0-2.4-0.2-4.8-0.8-7.2l-6.9-28.5c-1.1-4.7-1-9.7,0.3-14.4l7.8-27.4
				h-811.6v221.5v129.6v166.9l224.1,0.1c11.2-0.9,18.5-1.7,26.7-2.5c4.3-0.5,8.4-1.4,12.5-2.8l42.3-14.3c10.7-3.6,22.1-5.2,33.4-4.5
				l49.7,2.8c24.4-0.4,39.7-0.7,40.4-0.6l332-187.9L673.8,49.5z"/>
			<path id="XMLID_5330_" fill="#DFDFDF" d="M666.8,49.4l-1.9,0.1l-0.4-0.1v-0.2c0-0.1-0.1-0.2-0.2-0.2c-0.1,0-0.2,0-0.2,0l-0.3,0.1
				l-0.1-0.1h-0.1h-0.1c-0.1-0.1-0.1-0.1-0.2-0.1l0,0c-0.1-0.1-0.1-0.1-0.2-0.1l0,0c-0.1,0-0.1-0.1-0.2-0.1h-0.2
				c-0.1,0-0.1,0-0.2,0.1l-0.5-0.1l-0.5-0.2l-0.4-0.1l-0.1-0.1h-0.1l0,0c-0.1-0.1-0.1-0.1-0.2-0.1h-0.1c-0.1-0.1-0.1-0.1-0.2-0.1
				H660c-0.1-0.1-0.1-0.1-0.2-0.1l-0.2-0.1h-0.1h-0.1l-0.3-0.1H659h-0.2l-0.1-0.1h-0.1c-0.1-0.1-0.1-0.1-0.2-0.1h-0.2l-0.2-0.1h-0.1
				h-0.1c-0.1,0-0.1-0.1-0.2-0.1h-0.1c-0.1,0-0.1-0.1-0.2-0.1l0,0c-0.1,0-0.1-0.1-0.2-0.1l0,0c-0.1,0-0.1-0.1-0.2-0.1h-0.2
				c-0.1,0-0.1-0.1-0.2-0.1h-0.2c-0.1,0-0.1-0.1-0.2-0.1h-0.3c-0.1,0-0.1-0.1-0.2-0.1H655h-1.3c-0.1,0-0.1,0-0.2,0.1h-0.3h-0.1
				l-0.3,0.1l-1,0.2h-0.1c-0.1,0-0.1,0-0.2,0.1h-0.1l-0.2,0.1c0,0-0.1,0-0.1,0.1l0,0c-0.1,0-0.1,0-0.2,0.1l0,0c-0.1,0-0.1,0-0.2,0.1
				l0,0c-0.1,0-0.1,0-0.2,0.1l0,0c-0.1,0-0.1,0-0.2,0.1c-0.1,0-0.2,0.1-0.2,0.1l0,0c-0.1,0-0.1,0-0.2,0.1l0,0h-0.1l-0.2,0.1
				c0,0-0.1,0-0.1,0.1l-0.2,0.2c-0.1,0-0.1,0-0.2,0.1c-0.1,0-0.1,0-0.2,0.1c-0.1,0-0.1,0-0.2,0.1l0,0c-0.1,0-0.1,0-0.2,0.1
				c-0.1,0-0.1,0-0.2,0.1l0,0c-0.1,0-0.1,0-0.2,0.1l0,0c-0.1,0-0.1,0-0.2,0.1l0,0c-0.1,0-0.1,0-0.2,0.1l-0.4,0.1h-1.4l-0.1-0.1
				l-0.1-0.1l-2.2-0.8c-0.1,0-0.2,0-0.2,0c-0.1,0-0.1,0.1-0.1,0.2l-0.9,4l-2.1,8.2l-1.2,5.4l-0.6,4.6l-0.2,1.8l-0.2,2.7l0.1,4.3
				l0.1,1.9l2.9,28.2l0.3,2.5l0.6,6.8l0.8,6.4l0.2,2.1l0.1,1l-0.6,0.1h-3.9l-2.2,0.2l-10,0.7h-0.6l0,0c0,0,0,0-0.1,0l-0.2,0.1
				l-3.1,0.2l-0.3-0.1h-0.3l-0.4-0.2l-0.9-0.9l-1.6-1.3l-2-2l-0.8-0.9l-0.4-0.4l-2.8-2.3l-1.6-1.2L611,120l-0.3-0.6l-0.2-0.3
				l-0.6-1.4l-0.2-0.4l-1-1.9l-0.1-0.2l0,0c0-0.1,0-0.1-0.1-0.2l-0.6-0.7c0,0,0,0-0.1,0l-0.2-0.1l-0.9-0.8l-0.8-0.8l-1.1-0.9l-1-0.6
				l-0.4-0.3l-0.4-0.3l-0.5-0.4l-0.2-0.3l-0.1-0.1l-1.4-0.7c0-0.1-0.1-0.1-0.1-0.1l-1.4-0.7l-0.6-0.3h-0.1l-1.1-0.1l-0.3-0.1
				l-0.3-0.1l-3.2-1.4h-0.1l-0.4-0.1h-0.1H593l-2.5-1.2l-2.6-0.9l-1.2-0.5l-3.6-1.3l-0.8-0.8l-1.2-1.1l-0.2-0.2
				c-0.1-0.1-0.1-0.1-0.2-0.1c-0.1,0-0.1,0-0.2,0.1l-0.1,0.1l-0.6-0.5c0,0-0.1-0.1-0.2-0.1h-0.5l-0.9,0.1h-1.1l-0.2-0.4l-0.6-1.1
				l-0.3-0.8l-0.2-0.2c-0.1-0.1-0.2-0.2-0.3-0.1l-1.1,0.5l-1.6,0.6h-0.2h-0.1l-0.2,0.1c0,0-0.1,0-0.1,0.1l0,0l0,0l-2.3,0.7l-0.9,0.1
				h-0.4L568,99l-2.9-0.6l-0.4-0.2l-0.5-0.4l-0.8-0.4l-2.7-1.1l-2.7-1.2l-1.5-0.5l-0.5-0.1l-1.5-0.2h-0.6h-0.1l-0.3,0.1l-4.7-1.4
				h-0.1l-6.9-2.1c-0.1,0-0.1,0-0.2,0l-0.4,0.1l-1-0.3c0,0,0,0-0.1,0l0,0h-0.2l-1.2-0.2l-0.2-0.1h-0.1h-0.2l-1.2-0.3l-0.2-0.1
				l-0.5-0.1l-0.8-0.4l-0.4-0.2l-1-0.5l-1.4-1.1l-0.4-0.4l-0.1-0.1l-0.3-0.1l-0.9-0.5l-0.5-0.4h-0.1l-0.2-0.1l-0.9-0.5l-2.7-1.2
				h-0.1l-0.1-0.1l-0.3-0.1l-1.3-0.6l-0.6-0.2l-0.4-0.2l-1-0.4h-0.1h-0.3l-0.6-0.2l-0.6-0.3h-0.1H521l-0.4-0.2h-0.1L520,82l-0.4-0.3
				l-1.2-1.5l-0.1-0.1l0.1-0.1c0.1-0.1,0.1-0.3,0-0.4l-1.4-1.8l-0.2-0.2l-0.2-0.3l-0.1-0.1l-0.1-0.1l-0.2-0.2l0,0
				c0-0.1-0.1-0.1-0.2-0.1l-0.1-0.1h-0.1h-0.9L514,77c-0.1,0-0.1,0.1-0.2,0.1l-2.4,0.4l-2.3,0.5l-0.4,0.1h-0.4l-0.2-0.3l-0.3-0.8
				l-0.6-2.1l-0.5-3.3l-0.1-0.9l-0.6-3.5l-0.1-1.1l-0.1-0.4v-0.2l0.8,0.1h0.1l0.2-0.1h0.2c0.1,0,0.1,0,0.2-0.1l0.2-0.2
				c0.1-0.1,0.1-0.1,0.1-0.2v-0.7v-0.1l-0.1-0.3v-0.2c0-0.1,0-0.1-0.1-0.2l0,0c0-0.1,0-0.1-0.1-0.2v-1.5l-0.1-0.3v-0.3l-0.1-0.3V61
				c0-0.1,0-0.1-0.1-0.2v-0.2v-0.1l-0.2-0.8v-0.2v-0.1l-0.2-0.7l-0.3-1.2c0-0.1,0-0.1-0.1-0.1l-0.1-0.3c0,0,0,0,0-0.1l-0.1-0.1l0,0
				v-0.1l-0.1-0.4l0,0c0-0.1,0-0.1-0.1-0.2l0,0l0,0l-0.1-0.3l-0.1-0.2c-0.1-0.1-0.2-0.2-0.4-0.1l0,0l-0.9-0.5l-2.1-1h-0.1l-1.4-0.6
				l-0.3-0.3c0,0,0,0-0.1-0.1l-0.2-0.1H500h-0.1l-0.4-0.1h-0.1h-0.1l-0.4,0.2l0,0l-0.4-0.1l-0.4-0.1l-0.6-0.5l-1.5-0.9l-0.3-0.3
				l-0.6-1.5c0,0,0-0.1-0.1-0.1l0,0c0,0,0-0.1-0.1-0.1l-0.3-0.4l-0.1-0.1c0-0.1-0.1-0.1-0.1-0.2c-0.1-0.1-0.2-0.1-0.3,0l-0.6,0.1
				H493h-0.1l-0.5,0.2l-1.9,0.2h-0.1l-0.1,0.1l-0.5,0.1h-0.2c-0.1,0-0.1,0-0.2,0.1l-0.1,0.1c-0.1,0.1-0.1,0.1-0.1,0.2V50l-0.1,1.1
				l-0.6,0.4l-0.1,0.1l-0.3,0.2l-0.4,0.3l-0.2,0.1c0,0-0.1,0-0.1,0.1l-0.6,0.4l-0.2,0.2c-0.1,0.1-0.1,0.1-0.1,0.2l-0.1,0.1v0.1v0.2
				l-0.1,0.5v0.1l-0.1,0.1v0.1l-0.1,0.1h-0.2c0,0,0,0-0.1,0l-0.4,0.2l-0.1-0.3c0,0,0-0.1-0.1-0.1l-0.1-0.1C485,54,485,54,484.9,54
				h-1.5l-0.7,0.1l-0.1-0.2l0,0c0-0.1-0.1-0.2-0.2-0.2l-0.1-0.1l0,0c-0.1-0.1-0.1-0.1-0.2-0.1h-0.2h-0.1l-0.1,0.1h-0.3l-0.8,0.1
				h-0.2c-0.1,0-0.1,0-0.2,0.1c-0.1,0-0.1,0-0.2,0.1l-0.6,0.5l-0.2,0.2l0,0l0,0l-0.2,0.2l-0.1,0.1l-0.4,0.8l-0.2,0.2
				c0,0,0,0.1,0,0.2v0.2l-0.1,0.1v0.1l-0.1,0.2l0,0l-0.3,0.2h-1.1l-0.2,0.1l-0.4-0.3c0,0,0,0-0.1,0l-0.2-0.1l-0.7-0.4l-0.4-0.2h-0.1
				h-0.2c-0.1,0-0.1,0-0.2,0.1l-0.2,0.2c0,0,0,0-0.1,0.1l0,0c-0.1,0-0.1,0.1-0.1,0.1l-0.5,0.7l-0.4,0.8l-0.9,1.1l-0.1,0.1l-0.4,0.4
				l-0.6,0.1H470h-0.1l-0.2,0.1c0,0-0.1,0-0.1,0.1l-0.2,0.2c0,0-0.1,0.1-0.1,0.2l0,0l-0.1,0.1l-0.2,1.1l-0.1,0.5l0,0l0,0h-0.1h-0.1
				l-0.2,0.1h-0.1c-0.1,0-0.2,0.1-0.2,0.2v0.1h-0.1c-0.1,0-0.2,0.1-0.2,0.2v0.3c0,0.1,0,0.1,0,0.2l0,0l-0.4,0.3l-0.3,0.2l0,0
				c-0.1,0-0.1,0-0.2,0.1l-0.2,0.2h-0.1l-0.7,0.4c0,0,0,0-0.1,0l-0.2,0.2c-0.1,0-0.2,0.1-0.2,0.3l-0.5,1.6l-0.4,0.9l-0.3,0.9h-0.1
				h-0.1l-0.6,0.2c0,0,0,0-0.1,0l-0.4,0.2c0,0-0.1,0-0.1,0.1l-0.9,0.9l-0.5,0.5l-0.2,0.2h-0.2c-0.1,0-0.2,0.1-0.3,0.2l-0.1,0.4v0.2
				l-0.1,1.1l-1.5,1.8l-0.3,0.3l-0.7,0.9l-0.2,0.2h-0.3l-0.8,0.1h-0.1l-0.1,0.1l-0.3,0.1h-0.2c-0.1,0-0.1,0-0.2,0.1l-1.8,1.8
				c-0.1,0-0.1,0-0.2,0.1l-0.1,0.1h-0.1h-0.1h-0.1l-0.4-0.1l-0.2-0.1h-0.1h-0.4c-0.1,0-0.1,0-0.2,0.1l-0.5,0.4l-0.2,0.2
				c0,0-0.1,0.1-0.1,0.2l-0.2,0.2c-0.1,0.1-0.1,0.1-0.1,0.2v0.5v0.1l0.1,0.1v0.2v0.1l0.1,0.3v0.1l-0.2,0.2l-0.6,0.6l-0.3,0.2
				l-0.6,0.6l-1.7,1.4c0,0,0,0-0.1,0.1l-0.1,0.1h-0.1H447c-0.1,0-0.1,0-0.2,0.1l-0.2,0.2c-0.1,0.1-0.1,0.1-0.1,0.2v0l-0.1,0.2v0.1
				l-0.1,0.6V85v0l-0.5,0.3l0,0v-0.1l-0.2-0.3l-0.1-0.2c0-0.1-0.1-0.1-0.1-0.1l-0.2-0.1h-0.1h-0.2h-0.1l-0.3,0.1h-0.2h-0.1l-0.2,0.1
				h-0.5l-0.2-0.1l-0.4-0.1l-0.4-0.1h-0.1h-0.1l-0.2-0.1c0,0-0.1,0-0.2,0h-0.4c-0.1,0-0.1,0-0.2,0.1l-0.1,0.1c0,0,0,0-0.1,0.1
				l-0.1,0.2l-0.2,0.7v0.1l-3.5,0.3H437c-0.1,0-0.1,0-0.2,0.1l-0.5,0.6h-0.4c-0.1,0-0.2,0-0.2,0.1l-0.4,0.5l-0.2,0.2l0,0l0,0
				l-0.2,0.1l0,0c-0.1,0-0.1,0-0.2,0.1l-0.7,0.8c0,0,0,0.1-0.1,0.1l-0.1,0.1c-0.1,0.1-0.1,0.2-0.1,0.3l0.2,0.6v0.2v0.1l0,0l-0.1,0.2
				v0.1V90l-0.2,0.5l-0.1,0.3l-0.4,0.9l-0.2,0.6l-0.3,0.5l-0.2,0.8l-0.3,0.8h-0.3l-0.4,0.1l-0.7,0.3l-0.5,0.3c0,0-0.1,0-0.1,0.1
				l-0.3,0.4l0,0l-0.1,0.1l-0.3,0.7l-0.1,0.4V97l-0.2,0.5l-2.8,0.5h-0.1l-0.7,0.5c0,0,0,0-0.1,0.1l-0.6,1l-0.2,0.3l-0.3,0.3
				l-0.3,0.3l-0.2,0.1c0,0-0.1,0-0.1,0.1l-0.1,0.1l-0.1,0.1v-0.1c0-0.1-0.1-0.1-0.1-0.2c-0.1,0-0.2,0-0.2,0l-0.3,0.1l-0.6,0.1
				c-0.1,0-0.1,0-0.2,0.1c0,0.1-0.1,0.1-0.1,0.2l0.1,0.5v0.9l0.1,1.1h-0.1H422l-0.4,0.2c-0.1,0-0.1,0.1-0.1,0.2l-0.5,2l-0.1,0.1
				l-3.3,1.2l-0.2-0.1l0,0l0,0l-0.6-0.2l-0.7-0.3c-0.1,0-0.1,0-0.2,0l-0.6,0.2c-0.1,0-0.1,0-0.1,0.1l-0.4,0.5l-0.3,0.3l-0.4,0.5
				l-0.1,0.1l-0.3,0.3l-1.3-0.4l-0.9-0.2h-0.1l-0.6-0.3l0,0c0,0,0,0-0.1-0.1l-0.5-0.2h-0.1h-0.2l-0.7-0.1h-0.1l-0.8,0.3
				c0,0,0,0-0.1,0l-0.3,0.2l-1.1,0.5l-0.5,0.3l-0.2-0.1H406l-0.7,0.1c-0.1,0-0.1,0-0.2,0.1l-0.1,0.1c0,0,0,0.1-0.1,0.1l-0.5,1.1l0,0
				c0,0,0,0-0.1,0.1v0.1l-2,0.8l0.7-0.1l-0.7,0.2h-0.1c0,0,0,0-0.1,0l-0.8,0.2H401l-0.6,0.1h-0.2l-0.4,0.1h-0.2
				c-0.1,0-0.1,0-0.2,0.1l-0.3,0.2l-0.6,0.7l-0.5,0.1l-0.9,0.2l-0.8,0.2H396h-0.1l-0.1,0.1l-0.4,0.1h-0.2c-0.1,0-0.2,0.1-0.3,0.2
				l-0.1,0.3l-0.2,0.3l-0.5,1.1l-0.7,1l-0.5,0.5l-0.2,0.2l-0.1,0.1l-0.2,0.1l-2.9,3.1c0,0,0,0.1-0.1,0.1l-0.1,0.2l-0.8,0.6L387,122
				c-0.1,0-0.1,0.1-0.1,0.2l-0.1,0.8v0.2l-0.3,0.2l-0.3-0.1h-0.1l-1.6,0.4l-0.5,0.2l-1.8,0.2h-0.1l-0.6,0.4l-0.1,0.1
				c0,0-0.1,0.1-0.1,0.2l-0.1,0.1c0,0,0,0-0.1,0.1l-0.3,0.6l-0.6,0.9l-0.6,1.7l-0.1,0.4h-0.3l-0.6,0.2l-1.2,0.2h-0.2h-0.1l-0.2,0.1
				c-0.1,0-0.1,0.1-0.2,0.2l-0.3,0.5l-0.2,0.2c0,0,0,0-0.1,0.1l-0.3,0.5l-0.1,0.6l-0.2,0.4l-0.1,0.5l-0.2,0.3l-0.2,0.5h-0.3
				c-0.1,0-0.1,0-0.2,0.1l0,0c-0.1,0-0.1,0-0.1,0.1l-0.4,0.4l-0.2,0.1c0,0,0,0-0.1,0l-0.5,0.4l-0.2,0.2c-0.1,0.1-0.1,0.1-0.1,0.2
				v0.1v0.1l-0.4,0.2l-0.4,0.3l-1.1,0.6c0,0-0.1,0-0.1,0.1l-0.1,0.1l-3.1,2.1h-0.1l-0.8-0.8c0-0.1-0.1-0.2-0.3-0.2h-1l-0.5,0.1h-0.2
				c-0.1,0-0.1,0-0.2,0.1l-0.1,0.1c-0.1,0.1-0.1,0.1-0.1,0.2v0.1v0.1l0.6,1.6v0.1l-0.4,0.2l-1.1,0.9l-0.2,0.1l-0.3,0.3l-0.5,0.5
				l-0.1,0.1c0,0-0.1,0-0.1,0.1l-0.7,0.5L361,142c0,0,0,0-0.1,0.1l-1.8,2.8l-0.4,0.4l-0.2,0.2l-0.1,0.1l-0.3,0.2l-0.4,0.4l-0.2,0.1
				c0,0-0.1,0-0.1,0.1h-0.1h-0.1l-0.4,0.2h-0.1l-0.2,0.1c0,0-0.1,0-0.1,0.1l-0.4,0.4c-0.1,0.1-0.1,0.1-0.1,0.2v0.1v0.1l0.1,0.4v0.3
				l-0.1,0.2l-0.5,0.6l-0.3,0.3l-0.2,0.3l-0.3,0.4l-0.9,0.9l-0.4,0.5l-0.2,0.2c0,0,0,0-0.1,0.1l-0.3,0.6v0.1v0.2v0.1l0.1,0.1l0,0
				v0.1l0.3,0.6l-0.1,0.2l-0.2,0.2l-1.2,1.9l-0.9,1.6l-0.7,1.1c0,0,0,0,0,0.1l-0.1,0.4l-0.2,0.5l-1,1.5l-0.1,0.2
				c-0.1,0-0.2,0.1-0.2,0.3l0,0c-0.1,0.1-0.1,0.2-0.1,0.3l0.1,0.3v0.1v0.1l0.2,0.6l0.9,1.8l0.1,0.2l0.6,1.2l0.2,0.4l0.1,0.1l0,0
				c0,0.1,0,0.1,0.1,0.2l0.2,0.2l0.6,0.5l0.1,0.1l0,0l-0.1,0.2l-0.3,0.9l-0.1,0.6l-0.2,0.7l0,0v0.3c0,0-0.1,0-0.1,0.1l0,0h-0.1
				l-0.1,0.1h-0.3l-0.5-0.1l-0.4-0.1h-0.1h-0.9l-0.4,0.1h-0.1L347,171l-2.2,1.3h-0.1h-0.1l-1.5,0.5c0,0-0.1,0-0.1,0.1l0,0
				c-0.1,0-0.2,0.1-0.2,0.2l-0.8,2.2v0.1v0.1l-0.1,0.2c0,0.1,0,0.3,0.1,0.3l0.3,0.2l1.4,0.7l2,1.1c0.1,0,0.1,0,0.2,0l1.5-0.3
				l0.1,0.1l0.1,0.1c0,0,0,0,0,0.1l1.4,1.4l0.3,0.3v0.2v0.1l0.1,0.1v0.9v0.1l0.1,0.2c0.1,0.1,0.2,0.2,0.3,0.2l0.6-0.1l-0.1,0.3
				l-0.3,2.8l-0.3,2.1l0,0l-0.4,0.2h-0.2H349l-0.2,0.1L348,187h-0.3l-0.3,0.1h-0.2h-0.1l-0.2,0.1l-1.1,0.1l-0.7,0.2h-0.3
				c-0.1,0-0.1,0-0.2,0.1h-0.1h-0.1l-0.1,0.1l0,0c-0.1,0-0.1,0-0.2,0.1l-0.3,0.4l-0.1,0.1h-0.1L342,189l-0.8,0.4l-4.1,1.8l-0.3,0.1
				l-0.6,0.1h-0.1c-0.1,0-0.1,0-0.2,0.1h-0.1h-0.1l-0.2,0.1c0,0-0.1,0-0.1,0.1l-3,2.4l-0.2,0.2h-0.3l-0.7-0.1l-0.9-0.2h-0.4
				l-0.4-0.1h-0.3l-0.4-0.1l-0.9-0.1l-1.4-0.2h-0.8c-0.1,0-0.1,0-0.2,0.1l-0.2,0.1c0,0-0.1,0-0.1,0.1L325,194c0,0,0,0,0,0.1
				l-0.5,1.3l0,0c0,0,0,0-0.1,0.1l0,0c0,0,0,0-0.1,0l-0.3,0.2l-0.4,0.1c0,0-0.1,0-0.1,0.1l0,0c-0.1,0-0.1,0-0.2,0.1h-0.2l-0.1-0.1
				l-0.2-0.1l0,0c-0.1-0.1-0.1-0.1-0.2-0.1l-0.2-0.1c-0.1,0-0.1,0-0.2,0l-0.6,0.2l-1,0.5l0,0c-0.1,0-0.1,0-0.2,0.1l-0.1,0.1
				l-0.1,0.1l-0.1,0.1l-0.1,0.2l-0.1,0.1c0,0-0.1,0.1-0.1,0.2l0,0c-0.1,0.1-0.1,0.1-0.1,0.2v0.5v0.1l0.1,0.1l0.1,0.4c0,0,0,0,0,0.1
				l0.1,0.3l0.1,0.2v0.2c0,0.1,0,0.1,0.1,0.2l0,0c0,0-0.1,0.1-0.1,0.2l-0.1,0.1l-0.1,0.1l-2.8,1.9c-0.1,0-0.2,0.1-0.3,0.2l0,0
				c0,0,0,0-0.1,0.1l-0.1,0.2c-0.1,0.1,0,0.2,0.1,0.3l0.7,1.7l0.2,0.3v0.2l-0.4,0.3l-0.1,0.1l-0.2,0.3v0.1v0.1v0.1l0.6,1.5l0.2,0.5
				c0,0,0,0.1,0.1,0.1v0.2l-3.6,6.4L314,215l-0.4,0.7l-0.2,0.4l-0.3,0.4v0.1H313c0,0-0.1,0-0.1,0.1l-0.1,0.1c0,0,0,0.1-0.1,0.1
				l-0.5,0.3l-1.6,1.1l-0.5,0.2l-0.4,0.2c-0.1,0-0.1,0.1-0.1,0.2c0,0.1,0,0.2,0.1,0.2l0.2,0.3c0,0,0,0.1,0.1,0.1l0.8,1.3l0.1,0.2
				c0,0,0,0.1,0.1,0.1l0.1,0.1l0.7,1.2l0,0c0,0.1,0,0.1,0,0.1l1.2,2l1.3,2.1l0.6,1.1l0.5,0.9l1,1.7l4,7l0,0c0,0.1,0,0.1,0.1,0.2
				l0.1,0.1l0.6,1.2l0.3,0.5l0,0c0,0.1,0,0.1,0.1,0.2l0.2,0.3l0.8,1.6l1.7,2.8l1.2,2.1l0.5,0.7l0.3,0.7c0,0,0,0.1,0.1,0.1l0,0v0.7
				l0.1,0.6l0.1,1.4l0.2,2.8v0.6l0.2,2.4l0.3,5.2l0.4,4.7v1.3l-0.2,0.3v0.1l-2.1,4.2l-0.6,1l-0.1,0.4l-1.8,3.4l-0.5,0.9l-0.4,0.7
				l-0.2,0.5l-1.7,3.3l-0.3,0.6l-0.8,1.7l-0.7,1.1l-0.3,0.7l0,0c0,0,0,0.1-0.1,0.1l-0.1,0.4l-1.5,2.9l-0.5,1.2l-0.8,1.4l-1.4,2.9
				l-0.1,0.4l-0.2,0.3c-0.1,0.1-0.1,0.2,0,0.2l0.6,2.7l0.5,1.7l0.6,2.5l0.1,0.5l1,3.7l0.6,2.5l1,4.2l0.2,0.8l0.3,1.3l0.2,1.3
				l0.4,1.3l-0.4,0.7l-0.1,0.3l-0.8,0.5l-0.5,0.4l-1.2,0.9l-2.9,2.2l-0.2,0.1l-1.1,0.8l0,0c-0.1,0-0.1,0-0.2,0.1l-2.4,1.9l-0.5,0.3
				l-0.4,0.2l-1.2,0.6l-0.3,0.1l-2,1l0,0h-0.1l-0.9,0.4l-0.4,0.2l-0.8,0.3l-1.3,0.7l-0.6,0.2l-1,0.5l-0.5,0.4l-1.1,0.6l-0.8,0.6
				l-1.5,1l-5,3.7l-1.8,1.3l-1,0.7l-0.2,0.2l-1.1,0.8c0,0,0,0-0.1,0.1l-1.4,2.1l-1.6,2.5l-0.1,0.1c0,0,0,0-0.1,0.1l-0.2,0.4v0.1l0,0
				l0,0l-0.2,0.2c0,0-0.1,0.1-0.1,0.2l-0.1,0.1l0,0l-0.1,0.1l-0.1,0.3l-1.3,2.1l-0.5,0.7l-0.9,1.4l-1.1,1.6l-0.3,0.5l-0.2,0.4
				l-0.7,0.8l-1.4,2.2l-0.2,0.2c0,0,0,0-0.1,0.1l-0.5,0.9l-0.4,1.2v0.1v0.1l-0.1,0.1c0,0,0,0,0,0.1l-0.2,1.3v0.2l-0.1,0.1v0.1
				l-0.1,0.6l-0.3,1.3c0,0,0,0,0,0.1v0.2c0,0-0.1,0.1-0.1,0.2l-0.1,0.6l-0.4,1.8l-0.2,1l-0.2,0.8l-0.3,1.3l-0.2,0.5v0.1v0.3l0,0
				l-0.2,0.7l-0.1,0.7v0.8l0.4,3.5v0.4l0.1,0.3v0.2l0.2,0.5v0.3v0.1l0.4,1l0.2,0.3c0,0,0,0.1,0.1,0.1l0,0l0.1,0.4c0,0,0,0,0,0.1
				l0.1,0.2c0,0,0,0.1,0.1,0.1l0,0v0.1l0.1,0.2v0.1c0,0.1,0,0.1,0.1,0.2v0.1l0.2,0.4l0.1,0.1l0.1,0.4c0,0.1,0,0.1,0.1,0.1l0.2,0.5
				c0,0,0,0.1,0.1,0.1l0,0c0,0,0,0,0,0.1l0.6,1.5l0,0c0,0.1,0,0.1,0.1,0.2l0,0l0.1,0.2v0.6l0,0l-0.1,0.2l0,0c0,0,0,0-0.1,0.1
				l-0.1,0.3l-0.2,0.3l-0.1,0.1l-0.7,0.5l-0.8,0.4l-0.5,0.4l-0.9,0.5l-0.3,0.2l-0.7,0.4l-0.1,0.1H271c-0.1,0-0.1,0-0.2,0.1l-0.2,0.1
				l-1.5,1.2H269l-0.4,0.3l-1.6,1.3l-0.4,0.4l-0.4,0.3l-1.1,0.9l-0.1,0.1l-0.5,0.6c0,0-0.1,0.1-0.1,0.2l-0.2,0.4l-0.1,0.1
				c-0.1,0.1-0.1,0.1-0.1,0.2l0,0l-0.1,0.6l-0.1,0.2v0.1v0.3l-0.2,1.4l-0.2,1.1l-0.2,1.3l-0.8,4.8l-0.1,1l-0.1,0.3l-0.1,1.2
				l-0.1,0.2v0.1v0.3l-0.7,4.6l-0.1,0.6l-0.2,0.8l-0.2,0.4l-0.3,0.4l-0.2,0.1c0,0-0.1,0-0.1,0.1l-0.3,0.4l-0.2,0.4v0.1v0.5l0.1,0.3
				c0,0.1,0.1,0.2,0.2,0.2l0.1,0.2c0,0,0,0.1,0.1,0.1l0.1,0.1c0,0.1,0,0.1,0.1,0.2l0.2,0.1l-0.2,0.8c0,0.1,0,0.2,0.1,0.3l0.4,0.3
				l0.4,0.2l1.4,0.9l-0.5,0.6l-0.1,0.2H262c-0.1,0-0.1,0.1-0.2,0.2l-0.4,0.5l-0.4,0.4l-0.4,0.6l-0.2-0.1l-0.2-0.2c0,0,0,0-0.1-0.1
				l-0.6-0.3l-0.1-0.1c0,0-0.1,0-0.1-0.1l-1.2-0.6l-0.8-0.3l-0.9-0.4c-0.1-0.1-0.3,0-0.4,0.1l-2.2,4.7l-1.4,3
				c-0.1,0.1,0,0.3,0.1,0.3l0.5,0.4l-1.1,1.4l-0.2,0.4c19.9,6.2,31.2,7.3,32,7.3c2.1,0.2,42.5-8.5,43.5-8.5c3,0.1,5.8,0.7,8.4,2.5
				c1.2,0.9,2.6,0.7,3-1.3c0.3-1.5,1.3-2.2,2.7-2.2c1.3,0,2.6-0.1,3.8,0.2c0.7,0.1,1.6,0.8,1.7,1.4c0.3,1.4,1.2,1.9,2.5,1.9
				c3.4-0.2,6.9-0.3,10.3-0.8c3-0.4,3.6-1.2,3.9-4.2c0.3-2.4,1.5-4.1,3.8-5.1c1.9-0.8,2.7-0.4,3.7,1.4c0.4,0.7,1.3,1.6,2,1.7
				c2.6,0.1,5.3-0.1,8.5-0.3c2-0.7,1.5-0.6,3.9-1.4c3.3-1.1,6.9-1.3,10.3-2c5.2-1,10.3-2.1,15.5-3c4-0.7,8-1.2,12-1.8
				c0.9-0.1,1.8-0.5,2.9-0.7h0.3c1,0,1.8,0.1,2.6,0c2.2-0.3,2.6-0.9,1.6-2.9c-0.6-1.1-0.3-1.9,0.7-2.3c1.3-0.5,2.7-1,4-1.2
				c0.6-0.1,1.7,0.6,2,1.2c1.4,2.6,2.8,3.3,5.6,2.5c2.9-0.9,5.8-1.8,8.6-2.6c0.2-0.1,0.4,0,0.6-0.1c1.6-0.1,3.4,0.1,4.8-0.5
				c7.5-2.9,15.3-4.8,23.3-5.7c2.5-0.3,5-1.1,7.4-1.8c0.4-0.1,0.8-0.6,1.1-1c-0.3-0.3-0.6-0.9-0.9-0.9c-2.4-0.1-4.4-0.2-6.9,0.7
				l-2.2,0.2c-1.9,0-3.8,0.4-5.6,0.9l-4.6,0.6c-3.5,0.6-6.9,1.3-10.4,1.7c-2.2,0.3-4.5,0.4-6.7,0.3c-0.7,0-1.4-0.9-2.2-1.4
				c0.7-0.6,1.2-1.5,2-1.7c6.3-1.2,12.6-2.3,18.9-3.2c1.5-0.2,6.1-1,8.5-0.9c5.8,0.3,11.4-1.3,16.9-2.6c1.2-0.3,3.8-0.4,7.5-3.5
				c2.5-2.2,5.2-2.3,8.1-1.5c5,1.4,10.1,2.6,15.4,2.2c0.9-0.1,2.3-0.7,2.6-1.1c0.6-0.8,1.2-0.9,1.6-1.1c1.8-0.4,1.9-0.5,3.4-1.4
				l0.6-0.2c0.5,0.2,0.6-0.1,1-0.2c1.4-0.3,2.8-0.9,4.2-1.2c2.1-0.5,6.2-1.2,6.2-1.2l1.4-0.3l5-1c0,0,0.1-0.1,0.8,0.1
				c4.8-0.6,11-6.9,11-6.9s0.7-0.3,1.4,0.2c2-0.2,4.2-0.1,6.3-0.6c2.4-0.5,4.3-4,3.4-6.3c2.6-1.5,7.6-4.5,7.6-4.5s2.4-0.9,2.8-1.2
				c3.4-2.6,6.7-5.2,10-7.9c4.3-3.5,9.6-13.1,9.6-13.1l1.1-0.3c0,0,5.7-6.5,8-9.7c2.5-3.5,4.7-7.3,7-10.9l0,0
				c6.8-10.8,13.5-21.6,20.5-32.7c1.7-3.2,1.4-1.4,1.9-5c0.2-1.8,0-4.1,0.9-5.3c1.6-1.9,2.4-3.7,2.7-6.2c0.5-3.8,1.7-7.5,2.8-11.1
				c0.5-1.6,1-3.5,2.2-4.3c1.9-1.3,3.1-2.9,3.9-4.9c1.4-3.4,2.7-6.8,4.2-10.1c0.3-0.6,0.5-1.2,0.8-1.9l1.3-4.5l0.8-2.1
				c1.3-5.4,1.8-11,2-16.6c0.3-10.3-0.1-20.6-0.6-30.9c-0.6-15.4,1-30.5,3.7-45.5c0.6-3.4,0.9-6.8,1.3-10.3c-0.2-1.2,0.3-4.8,0-7.5
				c-0.2-1.9,2.7-9.2,3.1-12.4c1.6-16.7,1.7-38.1,0.8-61.7h-1.9L666.8,49.4z"/>
			<path id="XMLID_5325_" opacity="0.3" fill="#016938" enable-background="new    " d="M320.8,298.1l1-1l3-0.6l0.4,0.8v1.5l3.4,1.9
				l1.8-0.9l2.4,0.4l1.4-5.8l-1.3-0.7l-0.5-1.5l-0.5-0.9l-2.7-1.5l1.4-2.3l2.4,1.1l6.8-13.6l-0.9-2.6l0.9-0.4v-1.7l-3.1,0.3v0.7
				l-3.1,0.7l-1.5-3.8l-2.8-1.4l3.7-7.6l2.5-1l2-1.1h1.4l0.4-1.8l0.9-0.9l-0.5-1.7l2.1-1h3.2l1-3l1.3-3.1l1.8-0.6l1.6-1.8l2.4-2.1
				l6.8-1.3l5.6-0.7l9.7-0.9l7.1-0.8l7.3-0.5l6.4,1.5l5.4,1.8l5.4,2.7l-2.2,2.1l-2,1.3l4.1,7.4l2.7-0.7l-0.9-2.3l3.1-2.2l2.2,1.9
				v1.7l3.9-1.4l12.9,9.8l2.5,5.2l1.9,2.9l0.7,4.7l3.2,4v2l-1.3,1.8l-0.8-0.3l-1.3,1.4l-1.8,0.8l-0.7-0.9l-3.2,1.5h-1.1l-2.7,1.6
				l2.4,3.3l-3,3.2l2.8,5l-0.3,1.7l-2.5,1.9l2.3,0.5h2.5l0.1,1.1h2.3l-0.5,1.1l-2,0.9l-0.6,2.2l1,2.7l-1,3.5l-2.3,3.5l-5.2,1.9
				l1.1,1.2l-0.5,2.5l-1.8,4.5l-1.7,4.6l1.6,3.1l0.8,1.7v3.3l-1.1,2.7l0.4,3.5v2.5l-1.9,4.5l-1.9,7.5v5.4l-0.7,7.9l-0.2,8.1l3.5,2.2
				l3.1,1.9l0.3,2.6h1.4l2.1,1.3v1.3l-1.6,1l-1.4-0.9l-3.3-0.4c0,0-3-1.1-3.2-1c-0.3,0.1-4.2-0.2-4.2-0.2l0.8,1.8l-5.6,1.8h-7.3
				l-6.9,0.8l-5.6-5.8l-5.4-0.7l0.3,4.7l-2.8,0.3l-0.5-5.1l-1.8-0.2l-1.6-2.1l0.6-1.2l-2.6-1.7l-1.6-3l1.5-0.7l1.4-1.5l-1.4-3.2
				l-3.3-3.3l-3.4-8.5l0.5-10.2h-2.4l0.1,3.7l-7.4,2.3l-0.1,2.1l-4.5-0.3l0.4-3.2l-2.6-0.1l0.2,3.4l-3,1l3.1,7.1l3.8,1.8l2.9-0.4
				l1.4,7.2l2.6,0.6l-1.1,2.9l-1.7,0.1v-1.4l-2.6,0.1l0.5-2.8l-1.3-0.4l0.2-2.8l-13-6.5l-2.2,1.5l-2.4,0.2l-2.4-2l-1.8-3.1l-4.2-3.3
				l-4.7-2.2l-2,3.6l-2.4,2.5l-2.8-1.2l-3.1,1.1c0,0-0.7,2.2-1.3,2c-0.6-0.2-3-1.3-3-1.3l-5.9-0.5l-2.2,2.9l-4.2,4.3l-1.9,8.4
				l-0.7,2.1l-7.2,2l-2.1,1.5l-0.7,5.2l3,0.6l-2.3,11.1l0.8,1.1l-1.5,1.1l-20.7,10.9l-2.8-0.6l-2.7-1.5l2-12.6l1.4-2.4l10.3-7.1
				l0.2-4.3l1.3-4.7c0,0-0.1-7.9-0.1-8.2c0-0.3-0.5-7-0.5-7l1.2-6.5l1.5-3.9l4.4-6.5l4.3-6.5l7.9-4.4l9.9-6.1l6.2-3.6l6.3-5.5
				l3.9-3.2l-0.2-2.9l-2.9-11.7l-1-4.1l2.1-3.5l1.7,3L320.8,298.1z"/>
			<path id="XMLID_5323_" fill="#F2F2F2" d="M514.2,116.8l-4.1,11.1l-3.1-1.8l1.7-12.4l-6.2-3.6c-1.4-0.8-2-1.7-1.8-2.7
				c0.1-0.6,0.4-1,0.8-1.4c0.4-0.3,0.9-0.5,1.5-0.3c0.4,0.1,1,0.3,1.6,0.7l6.2,3.6l10.1-7.7l3.1,1.8l-7.7,9.1l6.4,3.8l5.5-1.3
				l2.3,1.3l-6.5,3.2l0.4,7.3l-2.3-1.3l-1.6-5.5L514.2,116.8z"/>
			<path id="XMLID_5289_" fill="#F2F2F2" d="M554.8,369.5l-1.2-0.9h-13.8l-0.7,0.5c0-0.3-0.2-0.3-0.2-0.3c0-0.1-0.4-0.1-0.4-0.1
				c-0.1-0.1-0.4-0.5-0.4-0.5c-0.1-0.1-0.2-0.1-0.2-0.1l0.1-0.2l0.1-0.1l0,0v-0.1l0,0c0-0.1-0.2,0-0.2,0h-0.1h-0.2h-0.1h-0.1h-0.1
				c-0.1-0.1-0.2-0.1-0.2-0.1c-0.1-0.1-0.3-0.2-0.3-0.2l-0.1-0.1v-0.1v-0.1l0.1-0.1v-0.1l-0.1-0.1l-0.1-0.1h-0.1h-0.1l0,0v0.1v0.1
				l0,0v0.1l0,0v0.1v0.1h-0.1h-0.1l-0.1,0.1c-0.2,0.1-0.3,0.6-0.3,0.6v-3.8l0.6-0.5v-0.4h-0.7v-1h0.1v-0.1H535l0.4-0.2h-1.2v0.1H532
				v0.1h-0.8h0.1l0,0l0,0V362h-0.1c-0.1,0-0.2,0-0.2,0v-0.2h0.1v-0.2H531v-0.2c0.1-0.1-0.1-0.2-0.1-0.2h-0.2v-0.1l0.1-0.1
				c0.1-0.1-0.1-0.4-0.1-0.4v-0.2h0.1v-0.1l-0.1-0.1l0,0c0-0.1-0.2,0-0.2,0c-0.1-0.1-0.2,0-0.2-0.1s-0.2-0.5-0.2-0.5v-0.1v-0.1
				l-0.1-0.1h-0.1h-0.1c-0.1-0.2-0.4-0.2-0.4-0.2c-0.4,0.1-0.2,0.4-0.2,0.4v0.1h-0.1c-0.1,0-0.4,0.1-0.4,0.1c0-0.5-0.1-0.5-0.1-0.5
				c-0.1-0.1-0.3-0.1-0.3-0.1v-0.5c0.1-0.1,0.1-0.2,0.1-0.2l0.3,0.1h0.2h0.1h0.1c0.1,0.1,0.3,0.1,0.3,0.1c0.2,0,0.4-0.1,0.4-0.1
				c0-0.1-0.3-0.1-0.3-0.1c-0.1,0-0.3,0-0.3,0c-0.3,0-0.3-0.1-0.3-0.1c-0.1-0.1-0.5-0.3-0.5-0.3c-0.1,0-0.2-0.3-0.2-0.3
				c-0.1-0.3-0.5-0.4-0.5-0.4c-0.1,0,0-0.1,0-0.1l0.1-0.1h0.1c0.1-0.2,0-0.2,0-0.2c-0.1-0.1-0.2-0.1-0.3-0.1s-0.2,0.1-0.2,0.1
				c-0.2,0.1,0,0.2,0,0.2l0,0l0.1,0.1c0,0.1,0,0.1,0,0.1h-0.1h-0.1h-0.1c-0.2,0-0.4,0.4-0.4,0.4c0,0.1-0.2,0.2-0.2,0.2
				c-0.1,0.1-0.4,0.2-0.4,0.2c-0.1,0.1-0.2,0-0.2,0c-0.1,0-0.2,0-0.2,0c-0.3,0-0.5,0.1-0.5,0.1c-0.2,0.1,0.2,0.2,0.2,0.2
				c0.3,0,0.4-0.1,0.4-0.1h0.1c0.4,0,0.7-0.3,0.7-0.3v0.1v0.1c0,0.1,0.2,0,0.2,0c0.1-0.1,0.1,0,0.1,0v0.5h-0.1h-0.1h-0.1h-0.1v0.1
				v0.1l0,0h-0.1l0,0c-0.1,0.1-0.1,0.2-0.1,0.2l-0.3,0.4v-0.6h0.1l0,0v-0.1v-0.1l0,0l-0.1,0.1v0.1v0.1c-0.1,0.1-0.3,0.5-0.3,0.5l0,0
				l0,0l0,0c0-0.1,0-0.2,0-0.2v-0.1v-0.1V359v0l0,0h-0.1l0,0v-0.1v-0.1v-0.1l-0.1-0.1h-0.1h-0.1h-0.1c0-0.1-0.1-0.2-0.1-0.2
				c-0.1,0-0.1,0-0.1,0v0.1v0.1v0.1v0.1v0.1l0,0v0.1v0.1v0.1v0.1v0.1l0,0v0.1l-0.3-0.5v-0.1l-0.1-0.1h-0.1v0.1l0,0l0.1,0.2
				c-0.1,0.2-0.1,1.1-0.1,1.1l-0.2,0.1c-0.2,0.1-0.4,0.4-0.4,0.4h-0.1h-0.1h-0.1v0.1l0.1,0.1v0.1v0.1v0.1v0.1l0,0v0.1v0.1l0.1,0.1
				h0.1v0.1v0.1l0.1,0.1l0,0H524l-0.1,0.1h-0.1l0,0h-3.1v0.3h-1.4v0.1h0.1v1H519v0.4l0.6,0.5v3.8c0-0.1,0-0.5-0.3-0.6l-0.1-0.1h-0.1
				H519v-0.1v-0.1l0,0v-0.1l0,0V367v-0.1l0,0h-0.1h-0.1l-0.1,0.1l-0.1,0.1v0.1l0.1,0.1v0.1v0.1l-0.1,0.1c0,0-0.3,0-0.3,0.2
				c0,0-0.1,0.1-0.2,0.1H518h-0.1h-0.1h-0.2h-0.1c0,0-0.2-0.1-0.2,0l0,0v0.1l0,0l0.1,0.1l0.1,0.2c0,0-0.1,0-0.2,0.1
				c0,0-0.3,0.4-0.4,0.5c0,0-0.5,0.1-0.4,0.1c0,0-0.2,0-0.2,0.2l-0.6-0.4h-13.8l-1.2,0.9h-0.3v0.2l-0.1,0.1h0.1v12.3h24
				c-0.1-0.3-0.1-0.6-0.1-0.9v-9.1c0-2.3,1.5-4.1,3.5-4.1h0.1c1.9,0.1,3.4,1.9,3.4,4.1v9.1c0,0.3,0,0.6-0.1,0.9h0.4h0.4h7.8
				c0-0.1,0-0.2,0-0.3v-3c0-0.7,0.5-1.2,1.1-1.2s1.1,0.6,1.1,1.2v2.8c0,0.1,0,0.2,0,0.3h13.2v-12.6L554.8,369.5L554.8,369.5z
				 M513.6,372.4h1.6v1.4h-1.6V372.4z M513.6,374.6h1.6v2.2h-1.6V374.6z M509.8,372.4h1.5v1.4h-1.5V372.4z M509.8,374.6h1.5v2.2
				h-1.5V374.6z M505.9,372.4h1.5v1.4h-1.5V372.4z M505.9,374.6h1.5v2.2h-1.5V374.6z M502.1,372.4h1.5v1.4h-1.5V372.4z M502.1,374.6
				h1.5v2.2h-1.5V374.6z M504.2,381.6c0,0.1,0,0.2,0,0.3H502c0-0.1,0-0.2,0-0.3v-2.8c0-0.7,0.5-1.2,1.1-1.2s1.1,0.6,1.1,1.2V381.6z
				 M508.1,381.6c0,0.1,0,0.2,0,0.3h-2.2c0-0.1,0-0.2,0-0.3v-2.8c0-0.7,0.5-1.2,1.1-1.2s1.1,0.6,1.1,1.2V381.6z M511.9,381.6
				c0,0.1,0,0.2,0,0.3h-2.2c0-0.1,0-0.2,0-0.3v-2.8c0-0.7,0.5-1.2,1.1-1.2s1.1,0.6,1.1,1.2V381.6z M515.8,381.7c0,0.1,0,0.2,0,0.3
				h-2.1c0-0.1,0-0.2,0-0.3v-2.8c0-0.7,0.5-1.2,1.1-1.2s1.1,0.6,1.1,1.2L515.8,381.7L515.8,381.7z M517.5,374.6h1.5v2.2h-1.5V374.6z
				 M519.6,381.5c0,0.1,0,0.2,0,0.3h-2.1c0-0.1,0-0.2,0-0.3v-2.8c0-0.7,0.5-1.2,1.1-1.2s1.1,0.6,1.1,1.2L519.6,381.5L519.6,381.5z
				 M536.4,374.7h1.6v2.2h-1.6V374.7z M538,381.6c0,0.1,0,0.2,0,0.3h-2.2c0-0.1,0-0.2,0-0.3v-2.8c0-0.7,0.5-1.2,1.1-1.2
				s1.1,0.6,1.1,1.2L538,381.6L538,381.6z M541.8,376.9h-1.5v-2.2h1.5V376.9z M541.8,373.9h-1.5v-1.4h1.5V373.9z M551.8,372.5h1.5
				v1.4h-1.5V372.5z M551.8,374.7h1.5v2.2h-1.5V374.7z M547.9,372.5h1.5v1.4h-1.5V372.5z M547.9,374.7h1.5v2.2h-1.5V374.7z
				 M544.1,372.5h1.6v1.4h-1.6V372.5z M544.1,374.7h1.6v2.2h-1.6V374.7z M545.7,381.7c0,0.1,0,0.2,0,0.3h-2.2c0-0.1,0-0.2,0-0.3
				v-2.8c0-0.7,0.5-1.2,1.1-1.2s1.1,0.6,1.1,1.2L545.7,381.7L545.7,381.7z M549.5,381.7c0,0.1,0,0.2,0,0.3h-2.1c0-0.1,0-0.2,0-0.3
				v-2.8c0-0.7,0.5-1.2,1.1-1.2s1.1,0.6,1.1,1.2L549.5,381.7L549.5,381.7z M553.4,381.7c0,0.1,0,0.2,0,0.3h-2.1c0-0.1,0-0.2,0-0.3
				v-2.8c0-0.7,0.5-1.2,1.1-1.2s1.1,0.6,1.1,1.2L553.4,381.7L553.4,381.7z"/>
			<path id="XMLID_5281_" fill="#F2F2F2" d="M300.6,437.3v-2.9c0.2-0.1,1.3-0.5,1.3-1.2v-3.6h0.2v-0.4H302c0-0.1,0-0.2,0-0.2
				c0-0.3-0.2-0.6-0.5-0.8c0,0,0,0,0-0.1s-0.1-0.1-0.2-0.2c0,0,0.1-0.1,0.1-0.2s0-0.1-0.1-0.2v-0.4h-0.1v0.4c-0.1,0-0.1,0.1-0.1,0.2
				s0,0.2,0.1,0.2c-0.1,0-0.2,0.1-0.2,0.2c0,0,0,0,0,0.1c-0.2,0.1-0.3,0.2-0.4,0.4v-6.4l0,0l0.9-0.9h0.1v-1.4h-1V419l0.9-1.1v-2l0,0
				v-1.6l0,0l0,0h0.2v-0.4h-0.1c0-0.1,0-0.2,0-0.2c0-0.3-0.2-0.6-0.5-0.8c0,0,0,0,0-0.1s-0.1-0.1-0.2-0.2c0,0,0.1-0.1,0.1-0.2
				s0-0.1-0.1-0.2V412h-0.1v0.4c-0.1,0-0.1,0.1-0.1,0.2s0,0.1,0.1,0.2c-0.1,0-0.2,0.1-0.2,0.2c0,0,0,0,0,0.1
				c-0.3,0.1-0.5,0.5-0.5,0.7c0,0.1,0,0.1,0,0.2H300v0.4h0.2v1.7H300v-0.6l-0.3-0.3h-0.3l-0.3,0.3v0.6h-0.7v-0.6l-0.3-0.3h-0.3
				l-0.3,0.3v0.6h-0.7v-0.6l-0.3-0.3h-0.3l-0.3,0.3v0.6h-0.7v-0.6l-0.3-0.3h-0.3l-0.3,0.3v0.6h-0.7v-0.6l-0.3-0.3H293l-0.3,0.3v0.6
				H292v-0.6l0-0.5h-0.3l-0.3,0.3v0.6h-0.7v-0.6l-0.3-0.3h-0.3l-0.3,0.3v0.6h-0.3v-1.7h0.2v-0.4h-0.1c0-0.1,0-0.2,0-0.2
				c0-0.3-0.2-0.6-0.5-0.8c0,0,0,0,0-0.1s-0.1-0.1-0.2-0.2c0.1,0,0.1-0.1,0.1-0.2s0-0.1-0.1-0.2V412h-0.1v0.4c0,0-0.1,0.1-0.1,0.2
				s0,0.1,0.1,0.2c-0.1,0-0.2,0.1-0.2,0.2c0,0,0,0,0,0.1c-0.3,0.1-0.5,0.5-0.5,0.7c0,0.1,0,0.1,0,0.2H288v0.4h0.2v3.6l0.9,1.2v1.1
				h-1v1.4h0.1l0.9,0.9l0,0v8h-0.9v0.7h-1.4v-0.7h-1.6v0.7h-1.4v-0.7h-1.5v0.7h-1.4v-0.7h-1.5v0.7H278v-0.7h-1.5v0.7h-0.9v-0.5h0.2
				v-0.4h-0.1c0-0.1,0-0.1,0-0.2c0-0.3-0.2-0.6-0.5-0.8c0,0,0,0,0-0.1s-0.1-0.1-0.2-0.2c0.1,0,0.1-0.1,0.1-0.2s0-0.1-0.1-0.2v-0.4
				h-0.1v0.4c-0.1,0-0.1,0.1-0.1,0.2s0,0.1,0.1,0.2c-0.1,0-0.2,0.1-0.2,0.1s0,0,0,0.1c-0.3,0.1-0.5,0.5-0.5,0.8c0,0.1,0,0.1,0,0.2
				H274v0.4h0.2v0.5h-0.5v-0.7H272v0.7h-1.2v-0.7h-1.1v-0.2h-0.1c0-0.1,0-0.2,0-0.2c0-0.3-0.2-0.6-0.5-0.7c0,0,0,0,0-0.1
				s-0.1-0.1-0.2-0.1c0.1,0,0.1-0.1,0.1-0.2s0-0.1-0.1-0.2v-0.4h-0.1v0.4c-0.1,0-0.1,0.1-0.1,0.2s0,0.1,0.1,0.2
				c-0.1,0-0.2,0.1-0.2,0.1s0,0,0,0.1c-0.3,0.1-0.5,0.5-0.5,0.8c0,0.1,0,0.1,0,0.2H268v0.4h0.2v3.6c0,0.5,0.6,0.8,1,1v2.2h-1.5v1
				h34.5v-1L300.6,437.3L300.6,437.3z M269.6,431.1L269.6,431.1l-0.1-0.5h0.1V431.1z M295.1,417.1c0.5,0,0.9,0.4,0.9,0.9l0,0v2h-1.8
				v-2l0,0C294.2,417.5,294.6,417.1,295.1,417.1L295.1,417.1z M292.7,422.9c0-0.5,0.4-0.9,0.9-0.9s0.9,0.4,0.9,0.9l0,0v2h-1.8V422.9
				C292.7,423,292.7,423,292.7,422.9L292.7,422.9z M295.3,436.9h-2.1v-2.3l0,0c0-0.6,0.5-1.1,1-1.1c0.6,0,1,0.5,1.1,1l0,0V436.9z
				 M297.3,425h-1.8v-2l0,0c0-0.5,0.4-0.9,0.9-0.9s0.9,0.4,0.9,0.9l0,0V425z"/>
			<path id="XMLID_5223_" fill="#F2F2F2" d="M670.7,165.5l-2.9-25.2l-13.2,2v23.3h-0.5v-30.2h2.9c0.2,0,0.3-0.2,0.3-0.3v-2.7
				c0-0.2-0.2-0.3-0.3-0.3h-1.7v-2c0-0.2-0.2-0.4-0.4-0.4h-1.2v-5.2v-0.1V118l1.4,0.7c0.1,0.1,0.2,0.2,0.2,0.3v0.1
				c0,0.1,0.1,0.2,0.2,0.3l1.3,0.6v-2.7l-1.3-0.6c-0.1-0.1-0.2-0.2-0.2-0.3c0-0.1-0.1-0.2-0.2-0.3l-1.4-0.7v-0.1h-0.4v8.7h-0.4
				c-0.2,0-0.3,0.1-0.3,0.3v1.7l-0.1,0.1l-2.9,2.9l0,0l0,0l-0.1,0.1l0,0l-4.4,6.7l0,0l-2,5.8l0,0l0,0l-1.2,5.9l0,0l0,0l-0.6,5.8l0,0
				l0.6,6.1l0,0l0,0l1.5,5.9h-2.6v2.1h34v-2.1h-4.1V165.5z M651.7,165l-3.8-2.2l3.8-2.5V165z M651.6,165.3h-7.5l3.5-2.3L651.6,165.3
				z M651.7,141.4h-7.8l4.4-2.8l3.4,2.7L651.7,141.4L651.7,141.4z M651.7,141.9v0.2l-4,2.2l-3.8-2.5h7.8V141.9z M651.7,142.5v4.5
				l-3.7-2.4L651.7,142.5z M651.7,147.4L651.7,147.4h-8.9l4.8-2.7L651.7,147.4z M651.6,147.9l-4.5,2.4l-4.3-2.4H651.6z M651.7,148.2
				v4.7l-4.3-2.4L651.7,148.2z M651.6,153.2h-9.4l4.8-2.6L651.6,153.2z M651.7,153.7v0.2l-4.5,2.6l-5-2.8H651.7z M651.7,154.3v4.7
				l-4.2-2.3L651.7,154.3z M651.7,159.3L651.7,159.3l-8.9,0.1l4.4-2.5L651.7,159.3z M651.7,159.8v0.1l-4.1,2.6l-4.8-2.8L651.7,159.8
				L651.7,159.8z M648.6,138.4l3.1-2v4.4L648.6,138.4z M651.7,136.1l-3.3,2.1l-2.6-2.1H651.7L651.7,136.1z M645.3,136.2l2.8,2.2
				l-4.6,2.9L645.3,136.2z M643.4,141.9l4,2.6l-5.1,2.8L643.4,141.9z M642.2,147.9l4.6,2.6l-5.1,2.7L642.2,147.9z M646.9,156.7
				l-4.7,2.7l-0.5-5.6L646.9,156.7z M647.3,162.8l-3.7,2.4l-1.3-5.3L647.3,162.8z M652.1,134.1v0.5h-0.5v-0.5H652.1z M651.6,134
				v-0.5h0.5v0.5H651.6z M652.6,134.1v0.5h-0.5v-0.5H652.6z M652.2,134v-0.5h0.5v0.5H652.2z M653.2,134.1v0.5h-0.5v-0.5H653.2z
				 M652.7,134v-0.5h0.5v0.5H652.7z M653.7,134.1v0.5h-0.5v-0.5H653.7z M653.2,134v-0.5h0.5v0.5H653.2z M654.2,134.6h-0.5v-0.5h0.5
				V134.6z M654.2,134h-0.5v-0.5h0.5V134z M654.7,134.6h-0.5v-0.5h0.5V134.6z M654.7,134h-0.5v-0.5h0.5V134z M655.2,134.6h-0.5v-0.5
				h0.5V134.6z M655.2,134h-0.5v-0.5h0.5V134z M655.8,134.6h-0.5v-0.5h0.5V134.6z M656.9,133.5h0.5v0.5h-0.5V133.5z M656.9,134.1
				h0.5v0.5h-0.5V134.1z M656.3,133.5h0.5v0.5h-0.5V133.5z M656.3,134.1h0.5v0.5h-0.5V134.1z M655.8,133.5h0.5v0.5h-0.5V133.5z
				 M655.8,134.1h0.5v0.5h-0.5V134.1z M655.8,133.5v0.5h-0.5v-0.5H655.8z M651.1,134v-0.5h0.5v0.5H651.1z M651.6,134.1v0.5h-0.5
				v-0.5H651.6z M650.6,134v-0.5h0.5v0.5H650.6z M651.1,134.1v0.5h-0.5v-0.5H651.1z M650.1,134v-0.5h0.5v0.5H650.1z M650.6,134.1
				v0.5h-0.5v-0.5H650.6z M652.6,126.4v3l0,0V129h-2.5L652.6,126.4z M649.6,129.5h1.3c-0.2,0-0.4,0.2-0.4,0.4v2h-1.7
				c-0.2,0-0.3,0.2-0.3,0.3v2.7c0,0.2,0.2,0.3,0.3,0.3h2.9v0.4h-6.1L649.6,129.5z M649.6,134v-0.5h0.5v0.5H649.6z M650,134.1v0.5
				h-0.5v-0.5H650z M649,134v-0.5h0.5v0.5H649z M649.5,134.1v0.5H649v-0.5H649.5z M648.5,134v-0.5h0.5v0.5H648.5z M649,134.1v0.5
				h-0.5v-0.5H649z"/>
			<g>
				<path fill="#F2F2F2" d="M418.7,199.7l-0.2,2.5l2.4,0.5C420.1,201.5,419.4,200.5,418.7,199.7z"/>
				<path fill="#F2F2F2" d="M425.3,208c0.6,1.1,1.1,2.3,1.6,3.5l1.7-2.9L425.3,208z"/>
				<path fill="#F2F2F2" d="M430.2,213l-2.9-0.5c0.5,1.2,0.9,2.4,1.3,3.7L430.2,213z"/>
				<path fill="#F2F2F2" d="M425.4,217.8c0.4,0.8,0.8,1.5,1.2,2.2l1.3-2.6v-0.1l-3.2-1L425.4,217.8z"/>
				<path fill="#F2F2F2" d="M420.8,206.7l3,0.5c-0.6-1.1-1.2-2.1-1.8-3.1L420.8,206.7z"/>
				<path fill="#F2F2F2" d="M426.1,212.3l-3.5-0.6l1.9,4l1.8-3.1C426.2,212.5,426.2,212.4,426.1,212.3z"/>
				<polygon fill="#F2F2F2" points="422.5,211.5 422.5,211.5 422.5,211.6 				"/>
				<polygon fill="#F2F2F2" points="424.7,216 424.6,216 424.6,216.1 				"/>
				<path fill="#F2F2F2" d="M425,215.9l2.7,0.9c-0.4-1.2-0.8-2.4-1.2-3.5L425,215.9z"/>
				<path fill="#F2F2F2" d="M422.9,211.3l3,0.5c-0.5-1.2-1-2.3-1.6-3.3L422.9,211.3z"/>
				<path fill="#F2F2F2" d="M402.9,209.6l-1.8-1.5c0.2,1.2,0.5,2.4,0.8,3.6L402.9,209.6z"/>
				<path fill="#F2F2F2" d="M405.2,200c0,0-0.1,0-0.1,0.1l-1.3,3.5c1.5,0,3.3-0.3,5.1-1L405.2,200z"/>
				<path fill="#F2F2F2" d="M403.2,208.8c-0.4-1.7,0.4-3.5,2.1-4.3l1.7-0.8c-1.3,0.3-2.5,0.4-3.6,0.4c-1.3,0-2.3-0.1-2.9-0.3
					c0,0,0,0,0,0.1C401.4,205.5,402.3,207.2,403.2,208.8z"/>
				<polygon fill="#F2F2F2" points="420.4,206.9 420.3,206.9 420.4,207 				"/>
				<path fill="#F2F2F2" d="M409.4,198c-1.4,0.5-2.6,1.1-3.7,1.8l3.4,2.4L409.4,198z"/>
				<path fill="#F2F2F2" d="M422.7,203.6c0.6,1,1.3,2.1,1.9,3.2l1.3-2.5L422.7,203.6z"/>
				<path fill="#F2F2F2" d="M400.7,205.3c0-0.1-0.1-0.1-0.1-0.2c0,0.1,0,0.3,0,0.4L400.7,205.3z"/>
				<path fill="#F2F2F2" d="M413.7,199l-3.7-1.3l0,0l-0.4,4.5C411,201.5,412.4,200.5,413.7,199z"/>
				<path fill="#F2F2F2" d="M422.1,202.6l0.8-1.9l-3.2-1.2C420.4,200.3,421.2,201.3,422.1,202.6z"/>
				<path fill="#F2F2F2" d="M417,197.8c-0.3-0.3-0.5-0.5-0.7-0.7c0.1,0.2,0.1,0.4,0.2,0.5L417,197.8z"/>
				<path fill="#F2F2F2" d="M412,201.3l1.3-0.6c1.4-0.7,3.1-0.4,4.2,0.6c-0.6-1.5-1.2-3-1.7-4.5C414.6,198.8,413.4,200.3,412,201.3z
					"/>
				<path fill="#F2F2F2" d="M402.5,217.1c-0.4-1.1-0.8-2.2-1.1-3.3l-1.4,2.8L402.5,217.1z"/>
				<path fill="#F2F2F2" d="M423.7,233.6l0.4-1c-0.4,0.2-0.9,0.5-1.4,0.7L423.7,233.6z"/>
				<path fill="#F2F2F2" d="M400.8,206.7c0,0.2,0.1,0.5,0.1,0.7l1.7,1.4c-0.5-0.9-1-1.9-1.6-2.9L400.8,206.7z"/>
				<path fill="#F2F2F2" d="M413.1,231.7c-0.3-0.9-0.8-2-1.3-3.3v2.5c0.1,0.2,0.3,0.3,0.4,0.5L413.1,231.7z"/>
				<path fill="#F2F2F2" d="M429.1,222.5l-2-1.4c0.7,1.3,1.3,2.4,1.8,3.3l0.4-1C429.3,223.1,429.2,222.8,429.1,222.5z"/>
				<path fill="#F2F2F2" d="M408.5,197.2l-2-0.7l-0.8,2C406.5,198.1,407.4,197.7,408.5,197.2z"/>
				<path fill="#F2F2F2" d="M399.5,204.6c-0.1,0.5-0.2,0.9-0.3,1.4l0.6,0.5C399.7,205.9,399.6,205.2,399.5,204.6z"/>
				<path fill="#F2F2F2" d="M428.9,217.1l2.5,0.8c-0.1-1.5-0.4-3-0.8-4.6l-1.8,3.5C428.8,216.9,428.9,217,428.9,217.1z"/>
				<path fill="#F2F2F2" d="M430.6,225.5c0.2-0.5,0.3-1.1,0.4-1.6l-0.7-0.5C430.4,224.1,430.5,224.8,430.6,225.5z"/>
				<path fill="#F2F2F2" d="M401.3,221.5L401.3,221.5L401.3,221.5v-0.1V221.5z"/>
				<path fill="#F2F2F2" d="M405.1,213.6c-0.6-1.2-1.2-2.4-1.9-3.6l-1.3,2.5c0,0.1,0,0.2,0.1,0.2L405.1,213.6z"/>
				<path fill="#F2F2F2" d="M405.2,214.1l-2.9-0.8c0.4,1.3,0.8,2.5,1.3,3.7L405.2,214.1z"/>
				<path fill="#F2F2F2" d="M409.5,223.2l-3.4-0.6c0.7,1.3,1.5,2.5,2.2,3.6L409.5,223.2z"/>
				<path fill="#F2F2F2" d="M414.6,227.3l10-4.7l0.2-0.1l-9.3-19.8l-2,0.9l0,0l-0.7,0.3l-0.3,0.1l0,0l-0.4,0.2l-6.8,3.2l9.2,19.6
					L414.6,227.3z M419.5,224.5l-1.7,0.8l-0.8-1.7l3.4-1.6l0.8,1.7L419.5,224.5z M421.7,223.5l-1-2.1l-4.3,2l1,2.1l-0.5,0.2
					l-1.6-3.3l5.4-2.5l1.6,3.3L421.7,223.5z M410.7,205.6l1.7-0.8l0.8,1.7l-3.4,1.6l-0.8-1.7L410.7,205.6z M408.5,206.6l1,2.2l4.3-2
					l-1-2.1l0.5-0.2l0,0l1.6,3.3l-5.4,2.5l-1.6-3.3L408.5,206.6z M406,207.8l1.5-0.7l1.8,3.8l6.3-2.9l-1.8-3.8l1.5-0.7l4.3,9.2
					l-2.3,1.1c-0.5-0.8-1.3-1.3-2.2-1.3c-0.4,0-0.8,0.1-1.1,0.2c-0.6,0.3-1.1,0.8-1.3,1.5c-0.2,0.6-0.2,1.2,0,1.8l-2.3,1.1
					L406,207.8z M417.1,214.4c0.3,1-0.1,2.1-1.1,2.6c-0.3,0.1-0.6,0.2-0.9,0.2c-0.7,0-1.4-0.4-1.8-1L417.1,214.4z M413.1,215.7
					c-0.1-0.4-0.2-0.9,0-1.4s0.6-1,1.1-1.2c0.3-0.1,0.6-0.2,0.9-0.2c0.7,0,1.4,0.4,1.8,1L413.1,215.7z M412.9,216.4
					c0.5,0.8,1.3,1.3,2.2,1.3c0.4,0,0.8-0.1,1.1-0.2c1.2-0.6,1.8-2,1.3-3.2l2.3-1.1l4.3,9.2l-1.5,0.7l-1.8-3.8l-6.3,2.9l1.8,3.8
					l-1.5,0.7l-4.3-9.2L412.9,216.4z"/>
				<path fill="#F2F2F2" d="M411.3,230.2v-2.6l-2.4-0.6C409.7,228.3,410.5,229.4,411.3,230.2z"/>
				<path fill="#F2F2F2" d="M424,207.8l-3.6-0.6l1.9,4L424,207.8C424.1,207.9,424,207.8,424,207.8z"/>
				<path fill="#F2F2F2" d="M416.7,198.2c0.4,1.1,0.9,2.2,1.3,3.3l0.2-2.4c-0.2-0.2-0.3-0.3-0.4-0.5L416.7,198.2z"/>
				<path fill="#F2F2F2" d="M407.7,218.9l-1.8,3.1l3.5,0.6C408.9,221.5,408.3,220.3,407.7,218.9z"/>
				<path fill="#F2F2F2" d="M408.7,226.6l2.6,0.6c-0.4-1.1-0.9-2.3-1.5-3.5L408.7,226.6z"/>
				<path fill="#F2F2F2" d="M405.6,214.4l-1.7,3l3.5,0.8C406.8,217,406.2,215.7,405.6,214.4z"/>
				<path fill="#F2F2F2" d="M418.5,202.7c0.4,0.9,0.8,1.8,1.1,2.7l0.6,1.3l1.3-3c-0.1-0.1-0.1-0.2-0.2-0.3L418.5,202.7z"/>
				<path fill="#F2F2F2" d="M407.3,218.7l-3.4-0.7c0.5,1.3,1.1,2.5,1.7,3.7L407.3,218.7z"/>
				<path fill="#F2F2F2" d="M424.6,231l0.1-0.4L421,228l-0.4,4.6l0.6,0.2C422.5,232.3,423.6,231.7,424.6,231z"/>
				<path fill="#F2F2F2" d="M403.7,225.6L403.7,225.6L403.7,225.6C403.6,225.5,403.7,225.6,403.7,225.6z"/>
				<path fill="#F2F2F2" d="M420.5,234.1l-0.1,0.7c1-0.1,2-0.4,3-0.8l-1.4-0.5C421.5,233.7,421.1,233.9,420.5,234.1z"/>
				<path fill="#F2F2F2" d="M407.7,230.2c1.1,1,2.3,1.9,3.5,2.6v-0.9c-0.1-0.1-0.2-0.3-0.3-0.4L407.7,230.2z"/>
				<path fill="#F2F2F2" d="M411.8,233c0.4,0.2,0.8,0.4,1.2,0.6c-0.3-0.3-0.8-0.8-1.2-1.3V233z"/>
				<path fill="#F2F2F2" d="M416,233.7c0.1,0,0.1,0,0.2,0c1.4,0,2.7-0.2,4-0.6v-0.2l-3.8-1.3L416,233.7z"/>
				<path fill="#F2F2F2" d="M400.7,203.4c0.4,0.1,1.1,0.2,1.8,0.2l-1.2-0.7C401.1,203,400.9,203.2,400.7,203.4z"/>
				<path fill="#F2F2F2" d="M400.9,212.4c-0.3-1.2-0.6-2.4-0.8-3.6l-1,3.1L400.9,212.4z"/>
				<path fill="#F2F2F2" d="M404.9,222.4l-3.4-0.6c0.6,1.2,1.3,2.4,2,3.5l1.5-2.6C404.9,222.5,404.9,222.5,404.9,222.4z"/>
				<path fill="#F2F2F2" d="M401.1,212.9l-2.3-0.7c0.1,1.3,0.3,2.7,0.7,4.1l1.6-3.3C401.1,213,401.1,213,401.1,212.9z"/>
				<path fill="#F2F2F2" d="M402.7,217.7l-3-0.6c0.4,1.4,0.9,2.7,1.5,4.1l1.7-3C402.8,218,402.8,217.8,402.7,217.7z"/>
				<path fill="#F2F2F2" d="M407.4,226.8l-3.5-0.8c0.9,1.3,2,2.5,3.1,3.6l0.8-2.1C407.7,227.2,407.6,227,407.4,226.8z"/>
				<path fill="#F2F2F2" d="M404.3,199.4l-1.2-0.8l0.1-0.1c-1,1-1.8,2.1-2.5,3.4l0.1,0.1C401.6,201.3,402.8,200.3,404.3,199.4z"/>
				<path fill="#F2F2F2" d="M420,234.9l0.1-0.7c-1.1,0.3-2.2,0.5-3.3,0.5C417.8,234.9,418.9,235,420,234.9z"/>
				<path fill="#F2F2F2" d="M399.9,207.2l-0.8-0.6c-0.3,1.5-0.4,3.1-0.3,4.7l1.2-3.6C399.9,207.5,399.9,207.4,399.9,207.2z"/>
				<path fill="#F2F2F2" d="M426.3,231.1l0.7,0.5c1-1,1.8-2.1,2.5-3.3l0,0C428.8,229.1,427.7,230.1,426.3,231.1z"/>
				<path fill="#F2F2F2" d="M430.2,222.5c0,0.1,0,0.1,0,0.2l0.9,0.7c0.2-1.4,0.3-2.8,0.3-4.3L430.2,222.5z"/>
				<path fill="#F2F2F2" d="M429.1,217.7c0.3,1.2,0.7,2.5,0.9,3.8l1.1-3.2L429.1,217.7z"/>
				<path fill="#F2F2F2" d="M410,196.7c1.3-0.4,2.7-0.8,4.2-1v-0.1h0.1c-1.4-0.3-2.9-0.4-4.3-0.3h0.1L410,196.7z"/>
				<path fill="#F2F2F2" d="M428.6,227.8l-1.8-1l-1.4,3.7l0,0C426.8,229.5,427.8,228.5,428.6,227.8z"/>
				<path fill="#F2F2F2" d="M429.4,226.8c-0.7-0.1-1.3-0.2-1.9-0.3l1.4,0.8C429.1,227.2,429.3,227,429.4,226.8z"/>
				<path fill="#F2F2F2" d="M424.7,232.1l-0.6,1.6c0.9-0.5,1.8-1.1,2.5-1.7l-0.8-0.6C425.5,231.7,425.1,231.9,424.7,232.1z"/>
				<path fill="#F2F2F2" d="M406.3,196.2L406.3,196.2L406.3,196.2z"/>
				<path fill="#F2F2F2" d="M426,203.8c-0.8-1.1-1.7-2.1-2.6-3l-1,2.2L426,203.8z"/>
				<path fill="#F2F2F2" d="M414.6,196.6l-0.2,1.5c0.3-0.5,0.7-1,1-1.6C415.1,196.6,414.8,196.6,414.6,196.6z"/>
				<path fill="#F2F2F2" d="M430.4,212.5c-0.4-1.2-0.8-2.5-1.4-3.7l-1.8,3.2L430.4,212.5z"/>
				<path fill="#F2F2F2" d="M418.3,197c-0.4-0.2-0.8-0.4-1.2-0.6c0.3,0.3,0.7,0.7,1.2,1.2V197z"/>
				<path fill="#F2F2F2" d="M422.5,199.9c-1.2-1-2.4-1.9-3.6-2.6l-0.1,0.9c0.1,0.1,0.2,0.2,0.3,0.4L422.5,199.9z"/>
				<path fill="#F2F2F2" d="M427,220.4l2,1.4c-0.3-1.3-0.5-2.5-0.9-3.6L427,220.4z"/>
				<path fill="#F2F2F2" d="M425,207.4l3.6,0.6c-0.6-1.3-1.4-2.5-2.1-3.6L425,207.4C424.9,207.4,425,207.4,425,207.4z"/>
				<path fill="#F2F2F2" d="M415.5,233.7l0.3-1.5c-0.4,0.6-0.8,1.1-1,1.5C415,233.7,415.3,233.7,415.5,233.7z"/>
				<path fill="#F2F2F2" d="M429.3,225c0.1,0.2,0.2,0.4,0.3,0.6c0-0.4-0.1-0.7-0.2-1.1L429.3,225z"/>
				<path fill="#F2F2F2" d="M416.6,231.2l3.6,1.2l0.4-4.4C418.9,228.9,417.6,230.1,416.6,231.2z"/>
				<path fill="#F2F2F2" d="M426.3,226.5c-1.9,0-3.6,0.4-5,1.1l3.6,2.5L426.3,226.5z"/>
				<path fill="#F2F2F2" d="M418.8,228.5l-1.9,0.9c-1.7,0.8-3.6,0.2-4.7-1.2c1,2.6,1.7,4.5,2.1,5.3l0,0
					C414.9,232.4,416.4,230.2,418.8,228.5z"/>
				<path fill="#F2F2F2" d="M427.1,222c0.1,1.5-0.8,2.9-2.2,3.6l-1.7,0.8c1.8-0.5,3.9-0.6,6.2-0.1C429,225.5,428.2,224,427.1,222z"
					/>
				<path fill="#F2F2F2" d="M404.4,200.5c-1.1,0.7-2,1.4-2.7,2l1.6,0.9L404.4,200.5z"/>
				<path fill="#F2F2F2" d="M404.6,221.8c-0.5-1-1-2-1.5-3.1l-1.5,2.6L404.6,221.8z"/>
				<path fill="#F2F2F2" d="M413.8,198.6l0.3-1.9c-1.2,0.2-2.3,0.5-3.3,0.8L413.8,198.6z"/>
				<path fill="#F2F2F2" d="M405.3,223.1l-1.3,2.3l3.1,0.7C406.4,225.2,405.8,224.2,405.3,223.1z"/>
				<path fill="#F2F2F2" d="M405,199l1-2.5c-0.9,0.5-1.8,1.1-2.5,1.8l1.3,0.9C404.8,199.1,404.9,199,405,199z"/>
				<path fill="#F2F2F2" d="M413,232.1c0.2,0.2,0.4,0.4,0.5,0.5c0-0.1-0.1-0.3-0.2-0.4L413,232.1z"/>
				<path fill="#F2F2F2" d="M409.5,196.8l0.1-1.6c-1,0.1-2,0.4-3,0.8l2.5,0.9C409.3,196.9,409.4,196.9,409.5,196.8z"/>
				<path fill="#F2F2F2" d="M408.2,227.8l-0.7,1.7l2.8,1C409.6,229.8,408.9,228.9,408.2,227.8z"/>
			</g>
			<g>
				<path fill="#F2F2F2" d="M553.7,230.3c-0.4-0.1-0.5-0.1-0.5,0.3c0,2.3,0,4.6,0,7c0,0.1,0,0.2,0,0.2c0,0.1-0.1,0.1-0.2,0.2
					c-0.1-0.1-0.1-0.1-0.2-0.2c0-0.1,0-0.1,0-0.2c0-1.6,0-3.2,0-4.9c0-0.7,0-1.4,0-2.1c0-0.4,0-0.4-0.4-0.4c-0.2,0-0.3,0-0.5,0
					c-0.3,0-0.4,0.1-0.4,0.4c0,0.8,0,1.5,0,2.3c0,1.6,0,3.2,0,4.8c0,0.1,0,0.1,0,0.2s-0.1,0.1-0.1,0.2c-0.1,0-0.1-0.1-0.2-0.1
					c0-0.1,0-0.2,0-0.2c0-1.7,0-3.3,0-5c0-0.7,0-1.4,0-2.1c0-0.3,0-0.3-0.3-0.3c-0.1,0-0.3,0-0.4,0c-0.4,0-0.4,0-0.4,0.4
					c0,2.2,0,4.5,0,6.7c0,0.2,0,0.3,0,0.5c0,0.1,0,0.2-0.2,0.2s-0.2-0.1-0.2-0.2c0-0.2,0-0.4,0-0.6c0-2.2,0-4.4,0-6.6
					c0-0.4,0-0.4-0.4-0.4c-0.1,0-0.3,0-0.4,0c-0.1,0-0.2,0-0.2-0.2s0.1-0.2,0.2-0.2c0.2,0,0.3,0,0.5,0c0.4,0,0.7,0,0.7-0.5
					c0,0,0,0,0.1,0c0.1,0.4,0.4,0.5,0.8,0.5c0.4,0,0.6-0.1,0.8-0.5c0.1,0.7,0.6,0.5,1,0.5h0.1c0.1-0.1,0.2-0.2,0.3-0.3
					c0.1-0.3,0.1-0.5-0.1-0.8c-0.1-0.1-0.2-0.2-0.2-0.4c-0.5-0.7-1.1-1.3-2-1.4c-0.4-0.1-0.7-0.4-0.6-0.8c0-0.1,0.1-0.2,0.2-0.3
					c0.1-0.1,0.2-0.1,0.3-0.3c0.5-0.7,0.3-1.7-0.6-2c-0.3-0.1-0.4-0.3-0.3-0.6c0-0.1,0.1-0.2,0-0.3c0-0.1-0.1-0.2-0.2-0.2
					c-0.1,0-0.2,0-0.3,0c-0.2,0.1-0.1,0.3,0,0.5s0,0.5-0.2,0.6c-0.1,0-0.1,0.1-0.2,0.1c-0.8,0.3-1,1.1-0.7,1.8
					c0.1,0.2,0.3,0.3,0.4,0.5c0,0.1,0.1,0.1,0.1,0.2c0,0.3-0.1,0.7-0.4,0.8c-0.3,0.2-0.6,0.3-0.9,0.5c-0.1,0.1-0.2,0.2-0.3,0.3
					c0.1,0.1,0.2,0.1,0.3,0.2c0,0,0.1,0,0.2,0.1c0.2,0.1,0.2,0,0.3-0.1c0-0.1,0-0.2,0-0.3c0.1,0,0.1,0.1,0.1,0.2
					c-0.1,0.5,0.2,0.7,0.6,0.9c0,0,0.1,0,0.1,0.1c0,0.2,0,0.4,0.1,0.5c-0.3-0.2-0.6-0.5-1-0.7c-1.3-0.6-2.7-0.9-4-1.2
					c-0.8-0.2-1.6-0.3-2.4-0.4c-0.6-0.1-1.3-0.2-1.9-0.2c-0.5-0.1-1.1-0.1-1.6-0.1c-0.3,0-0.4,0-0.4,0.4c0,1.7,0,3.3,0,5
					c0,1.8,0,3.6,0,5.4c0,0.2-0.1,0.3-0.3,0.3s-0.4,0-0.4-0.3c0-2.1,0-4.2,0-6.4c0-1.2,0-2.4,0-3.5c0-0.2-0.1-0.3-0.3-0.3
					c-0.8,0-1.6,0-2.3,0c-0.1,0-0.2,0-0.2,0l0,0c0.1,0,0.2,0,0.2,0c0.8,0,1.5,0,2.3,0c0.3,0,0.3,0,0.3-0.3c0-0.8,0-1.7,0-2.5
					c0-0.7,0-0.7,0.6-0.4c0.1,0,0.2,0,0.2,0c0.1-0.2,0.3-0.3,0.3-0.5s-0.2-0.3-0.4-0.4c-0.1,0-0.1,0-0.2-0.1
					c-0.6-0.1-1.3-0.2-1.9-0.2c-0.5,0-1.1,0-1.6,0.1s-1,0.1-1.4,0.4c-0.2,0.1-0.3,0.3-0.6,0.3c0,0-0.1,0-0.1,0.1
					c-0.2,0.3-0.4,0.6-0.4,1c0,4.2,0,8.4,0,12.6c0,0.1,0,0.2,0,0.4s-0.1,0.2-0.2,0.2c-0.3,0-0.5,0-0.8,0c-0.2,0-0.2,0-0.2-0.2
					c0-0.4,0-0.9,0-1.3c0-0.1,0-0.3-0.2-0.3c0,0-0.1-0.1-0.1-0.2c0-0.4-0.2-0.7-0.5-0.8c-0.1-0.1-0.2-0.2,0-0.3
					c0.1-0.1,0.2-0.2,0.2-0.2c0-0.1-0.1-0.2-0.1-0.3c0.3-0.2,0.3-0.2,0-0.6c0.1-0.4,0.1-0.4-0.3-0.6v-0.1c0-0.3-0.1-0.4-0.4-0.3
					c-0.1,0-0.1-0.1-0.2-0.1c-0.1-0.3-0.2-0.3-0.5-0.1H528c-0.1-0.1-0.3-0.2-0.4-0.2c-0.1,0-0.2,0.1-0.4,0.2
					c-0.2-0.1-0.3-0.2-0.5,0.1l-0.1,0.1c-0.3-0.1-0.4,0.1-0.4,0.3c-0.4,0-0.5,0.1-0.4,0.5c-0.1,0-0.2,0-0.2,0.1
					c-0.2,0.2,0.2,0.4-0.1,0.7c0,0,0.1,0.1,0.1,0.2l0.1,0.1c-0.1,0.3,0.2,0.3,0.4,0.4c-0.1,0.1-0.1,0.2-0.2,0.2
					c-0.3,0.2-0.5,0.5-0.5,0.8c0,0.1-0.1,0.2-0.1,0.2c-0.2,0-0.2,0.2-0.2,0.3c0,0.4,0,0.8,0,1.3c0,0.3,0,0.3-0.3,0.3s-0.6,0-0.8,0
					c-0.3,0-0.3,0-0.3-0.3c0-4.3,0-8.6,0-13c0-0.1,0-0.2,0-0.2c0-0.2-0.1-0.3-0.3-0.3s-0.4,0-0.6,0c-0.2,0-0.2,0-0.2-0.2
					c0.1-0.3,0-0.5-0.3-0.6s-0.6-0.3-0.9-0.3c-1-0.1-2.1-0.2-3.2-0.1c-0.4,0.1-0.8,0.1-1.1,0.3c-0.3,0.1-0.3,0.3-0.2,0.6
					c0.1,0.1,0.2,0.3,0.3,0.4c0.1,0.1,0.2,0.1,0.3,0s0.2-0.1,0.4-0.2c0,0.2,0,0.3,0,0.3c0,0.9,0,1.7,0,2.6c0,0.3,0,0.3,0.3,0.3
					s0.6,0,0.9,0c0.6,0,1.1,0,1.7,0l0,0c-0.1,0-0.2,0-0.2,0c-0.7,0-1.5,0-2.2,0c-0.3,0-0.4,0.1-0.4,0.3c0,1.6,0,3.2,0,4.7
					c0,1.6,0,3.2,0,4.8c0,0.1,0,0.2,0,0.4c0,0.1-0.1,0.1-0.1,0.1c-0.3,0-0.3-0.1-0.3-0.3c0-3.4,0-6.7,0-10.1c0-0.1,0-0.2,0-0.3
					s-0.1-0.2-0.2-0.2c-0.3,0-0.5,0-0.8,0c-0.7,0.1-1.5,0.1-2.2,0.2c-0.9,0.1-1.8,0.2-2.7,0.3c-1.2,0.2-2.4,0.5-3.6,0.8
					c-0.9,0.2-1.9,0.5-2.6,1.3c0-0.2,0.1-0.4,0.1-0.6c0.5-0.1,0.7-0.5,0.7-1c0.2,0.5,0.2,0.6,0.7,0.3c0.2-0.1,0.2-0.2,0-0.3
					s-0.4-0.3-0.6-0.4c-0.2-0.1-0.5-0.3-0.7-0.4c-0.3-0.2-0.3-0.5-0.2-0.7c0-0.1,0.2-0.2,0.3-0.3l0.1-0.1c0.3-0.4,0.4-1,0.1-1.4
					c-0.2-0.3-0.4-0.5-0.8-0.7c-0.3-0.1-0.4-0.3-0.3-0.7c0-0.1,0.1-0.1,0-0.2c0-0.1-0.1-0.2-0.1-0.3c-0.1,0-0.2,0-0.3,0
					c-0.1,0.1-0.1,0.2-0.1,0.3s0,0.1,0.1,0.2c0.1,0.2,0,0.5-0.2,0.6c-0.1,0.1-0.3,0.1-0.4,0.2c-0.8,0.5-0.7,1.6,0,2.1
					c0.1,0,0.1,0.1,0.1,0.2c0.1,0.5-0.2,0.8-0.7,0.9c-0.2,0-0.5,0.1-0.7,0.2c-0.8,0.4-1.4,1-1.8,1.8c-0.2,0.3-0.1,0.8,0.5,0.8
					c0.1,0,0.3,0,0.4,0c0.2,0,0.4,0,0.5-0.3c0-0.1,0.1-0.1,0.2-0.3c0,0.6,0.4,0.5,0.8,0.5h0.1c0.2,0,0.4,0,0.5-0.3
					c0-0.1,0.1-0.1,0.2-0.2c0,0.1,0,0.1,0.1,0.1c0.1,0.3,0.1,0.4,0.5,0.4c0.2,0,0.5,0,0.7,0c0.1,0,0.2,0,0.2,0.2s-0.1,0.2-0.2,0.2
					c-0.2,0-0.3,0-0.5,0c-0.4,0-0.5,0-0.5,0.4c0,2.3,0,4.6,0,7c0,0.1,0,0.2,0,0.3s-0.1,0.1-0.2,0.1c0,0-0.1-0.1-0.2-0.2
					c0-0.1,0-0.2,0-0.2c0-1.7,0-3.3,0-5c0-0.7,0-1.4,0-2.1c0-0.3,0-0.3-0.3-0.3c-0.2,0-0.4,0-0.5,0c-0.3,0-0.4,0-0.4,0.4
					c0,0.8,0,1.5,0,2.3c0,1.6,0,3.2,0,4.8c0,0.1,0,0.2,0,0.3c0,0-0.1,0.1-0.2,0.1l-0.1-0.1c0-0.1,0-0.2,0-0.2c0-1.1,0-2.2,0-3.3
					c0-1.3,0-2.5,0-3.8c0-0.3,0-0.4-0.4-0.4c-0.2,0-0.4,0-0.6,0c-0.3,0-0.4,0.1-0.4,0.4c0,0.7,0,1.3,0,2c0,1.7,0,3.5,0,5.2
					c0,0.1,0.1,0.2-0.1,0.2s-0.2-0.1-0.2-0.2c0-0.7,0-1.4,0-2.1c0-1.7,0-3.4,0-5.1c0-0.4-0.1-0.4-0.5-0.3c-0.1,0-0.2,0.1-0.3,0.1
					c-0.2,0.1-0.2,0.1-0.1,0.3c0.2,0.3,0.3,0.8,0.2,1.2c-0.1,0.2-0.1,0.5-0.1,0.7c0,0.1,0,0.3,0,0.4c0,0.2,0,0.3,0.2,0.3
					c0,0.2,0,0.4,0,0.6c0,0.1,0,0.2,0,0.3c-0.2,0.2-0.1,0.3-0.1,0.5c0,0.4,0,0.8,0,1.3c0,0.1,0,0.2,0,0.3c0.1-0.1,0.1-0.1,0.1-0.1
					c0.2-0.2,0.3-0.1,0.3,0.1s0,0.3,0,0.5c0,0.1,0,0.2,0,0.3c0,0.2,0.1,0.5,0.1,0.7c0,0.3,0,0.7,0,1c0,0.1,0.1,0.2,0.2,0.2
					c0.3,0.1,0.7,0.1,1,0.1c0.5,0,1.1-0.1,1.6-0.1c0.8,0,1.6,0,2.4,0c0.2,0,0.3-0.1,0.3-0.3c0-0.4,0-0.7,0-1.1c0-0.5,0.1-1,0-1.5
					c0-0.2,0.1-0.4,0.1-0.5h0.1c0,0.2,0,0.4,0,0.6c0,0.8,0,1.6,0,2.4c0,0.4,0,0.4,0.4,0.4c0.3,0,0.6,0,0.9,0s0.3,0,0.4-0.3
					c0-0.3,0-0.6,0-1c0-0.3-0.1-0.7,0-1c0.2-0.4-0.1-0.6-0.1-0.9c0-0.1,0-0.2,0-0.3c0-0.2,0.2-0.3,0.3-0.3c0.2,0,0.4,0,0.5,0.2
					s0.1,0.5,0,0.7s-0.2,0.3,0,0.5c0,0,0,0.2,0,0.3c0,0.6,0,1.1,0,1.7c0,0.3,0,0.4,0.4,0.4c0.8,0,1.7,0,2.5,0c0.3,0,0.3,0,0.3-0.3
					c0-0.6,0-1.3,0-1.9c0-0.1,0-0.2,0-0.3c0.1-0.1,0.1-0.3,0-0.4s-0.1-0.2-0.1-0.3c-0.1-0.3,0-0.6,0.3-0.7c0.3-0.1,0.6-0.1,0.9,0.1
					c0.3,0.2,0.4,0.6,0.1,0.9l-0.1,0.1c0,0.1,0,0.2,0,0.2c0.2,0.1,0.2,0.2,0.2,0.4c0,0.6,0,1.2,0,1.9c0,0.4,0,0.4,0.4,0.4
					c1.2,0,2.5,0,3.7,0c0.1,0,0.2,0,0.3,0c0.2,0,0.4,0.2,0.6,0.2c6.6,0,13.3,0.1,19.9-0.1c1,0,2,0,3,0c0.3,0,0.4,0,0.4-0.4
					c0-0.6,0-1.3,0-1.9c0-0.1,0-0.2,0.1-0.2c0.3-0.1,0.1-0.3,0-0.4c-0.4-0.5-0.2-1,0.5-1.1l0,0c0.5-0.1,0.9,0.4,0.7,0.8
					c-0.2,0.3-0.2,0.6-0.2,1c0,0.6,0,1.3,0,1.9c0,0.1,0,0.3,0.2,0.3c0.9,0,1.8,0,2.7,0c0.2,0,0.3-0.1,0.3-0.3c0-0.6,0-1.1,0-1.7
					c0-0.1,0.1-0.2,0.1-0.3s0-0.2,0-0.4s-0.1-0.4-0.1-0.5c0-0.3,0.2-0.5,0.5-0.5c0.2,0,0.4,0.3,0.4,0.6c0,0.2-0.1,0.4-0.1,0.6
					c0,0.1,0,0.1,0,0.2s0.1,0.3,0.1,0.4c0,0.6,0,1.2,0,1.8c0,0.2,0.1,0.3,0.3,0.3c0.3,0,0.6,0,0.9,0c0.3,0,0.3,0,0.3-0.3
					c0-0.9,0-1.8,0-2.7c0-0.2,0-0.3,0.1-0.5h0.1c0,0.1,0.1,0.1,0.1,0.2c0,0.2,0,0.5,0,0.7c0,0.1,0,0.3,0,0.4s0.1,0.3,0.1,0.4
					c0,0.5,0,1.1,0,1.6c0,0.2,0.1,0.3,0.3,0.2c0.1,0,0.2-0.1,0.4,0c0.5,0,0.9,0.1,1.4,0.1c1,0,1.9,0,2.9,0c0.3,0,0.3-0.1,0.3-0.3
					c0-0.8,0-1.5,0-2.3c0-0.1,0-0.2,0-0.3s0.1-0.1,0.2-0.1c0.1,0,0.2,0.1,0.2,0.1c0,0.2,0,0.4,0,0.6c0,0.1,0,0.2,0,0.3
					c0,0.2,0.1,0.3,0.1,0.5c0,0.4,0,0.8,0,1.3c0,0.1,0,0.2,0.2,0.2s0.2-0.1,0.2-0.2s0-0.1,0-0.2c0-2.5,0-5,0-7.4
					C554.3,230.5,554.3,230.5,553.7,230.3z M550.7,227.4c0.2,0,0.5,0.2,0.5,0.4s-0.2,0.3-0.5,0.3s-0.4-0.1-0.4-0.3
					S550.5,227.4,550.7,227.4z M535.5,225.9c0-0.2,0-0.3,0-0.5s0-0.4,0-0.5s0-0.3,0.1-0.4h0.2c0.1,0.1,0.1,0.2,0.1,0.3
					c0,0.4,0,0.7,0,1.1c0,0.2-0.1,0.3-0.3,0.3C535.5,226.2,535.4,226,535.5,225.9z M534.6,224.3c0.2,0,0.3,0.1,0.3,0.3
					c0,0.4,0,0.9,0,1.3c0,0.1-0.1,0.1-0.2,0.1c-0.1,0-0.3,0.1-0.3-0.2c0-0.1,0-0.2,0-0.4l0,0c0-0.3-0.1-0.6-0.1-0.9
					C534.3,224.5,534.4,224.3,534.6,224.3z M519.3,225.9c0,0.1,0,0.2-0.2,0.2c-0.1,0-0.3,0-0.3-0.2c0-0.1,0-0.2,0-0.3l0,0
					c0-0.3-0.1-0.6-0.1-0.8s0.1-0.4,0.3-0.4s0.3,0.1,0.3,0.4C519.2,225.2,519.3,225.5,519.3,225.9z M520.4,224.7
					c0,0.3-0.1,0.5-0.1,0.8l0,0c0,0.1,0,0.3,0,0.4c0,0.2-0.1,0.3-0.3,0.3s-0.3-0.1-0.3-0.3c0-0.3,0-0.5,0.1-0.8c0-0.1,0-0.1,0-0.2
					c0-0.1,0-0.2,0-0.4s0.2-0.2,0.4-0.2C520.4,224.4,520.5,224.5,520.4,224.7z M503.4,228.1c-0.3,0-0.5-0.1-0.5-0.3s0.3-0.4,0.5-0.4
					s0.5,0.2,0.5,0.4C503.9,228.1,503.7,228.1,503.4,228.1z M500.5,234L500.5,234c0-0.3,0-0.6,0-0.9l0,0
					C500.5,233.5,500.5,233.7,500.5,234z M501.4,231c0-0.1,0-0.1,0.1-0.2c0.1,0,0.2,0,0.3,0c0,0,0.1,0.1,0.1,0.2c0,0.2,0,0.3,0,0.5
					c0,0.1,0.1,0.3-0.2,0.3c-0.2,0-0.2-0.2-0.2-0.3C501.5,231.3,501.4,231.1,501.4,231z M501.5,233.3c0-0.1,0-0.2,0.1-0.2
					s0.2,0,0.3,0c0,0,0.1,0.1,0.1,0.2c0,0.2,0,0.4,0,0.6s0,0.3-0.2,0.3c-0.1,0-0.1-0.1-0.2-0.2c0,0,0,0,0.1,0
					C501.5,233.6,501.5,233.4,501.5,233.3z M501.6,235.6c0.1,0,0.1-0.1,0.2-0.1s0.1,0.1,0.2,0.1c0,0,0,0,0,0.1
					C501.8,235.7,501.7,235.7,501.6,235.6L501.6,235.6z M501.7,236.8v-0.1c0.1,0,0.2-0.1,0.3-0.1c0,0,0,0.1,0.1,0.1
					C501.9,236.8,501.8,236.8,501.7,236.8z M503,231c0-0.1,0.1-0.2,0.1-0.2c0.1,0,0.2,0,0.2,0s0,0.1,0.1,0.2c0,0.1,0,0.3,0,0.4l0,0
					v0.1c-0.1,0.1-0.1,0.2-0.2,0.2c0,0-0.2-0.1-0.2-0.2C503,231.4,503,231.2,503,231z M503.1,233.9
					C503.1,233.8,503.1,233.8,503.1,233.9C503.1,233.8,503.1,233.8,503.1,233.9c0-0.3,0-0.4,0-0.6c0-0.1,0.2-0.2,0.2-0.2
					c0.1,0,0.2,0.1,0.2,0.2c0,0.2,0,0.4,0,0.6s-0.1,0.2-0.2,0.2C503.1,234.1,503.1,234,503.1,233.9z M503.3,235.5
					c0.1,0,0.2,0,0.3,0.1v0.1c-0.1,0-0.2,0-0.3-0.1C503.2,235.6,503.3,235.5,503.3,235.5z M503.5,236.9c-0.1,0-0.2-0.1-0.3-0.1
					l0.1-0.1C503.4,236.7,503.4,236.8,503.5,236.9C503.6,236.8,503.5,236.8,503.5,236.9z M504.7,231.5c0-0.2,0-0.4,0-0.5
					s0.1-0.2,0.2-0.3c0.1,0.1,0.2,0.2,0.2,0.3c0,0.2,0,0.4,0,0.6c0,0.1,0,0.2-0.2,0.2S504.7,231.7,504.7,231.5z M504.8,233.3
					c0,0,0.1-0.1,0.2-0.1c0,0,0.1,0.1,0.1,0.2s0,0.2,0,0.4l0,0c0,0.1,0,0.2,0,0.3s-0.1,0.1-0.2,0.1l-0.1-0.1
					C504.8,233.8,504.8,233.5,504.8,233.3z M505,235.5c0.1,0,0.2,0.1,0.3,0.1v0.1c-0.1,0-0.2,0-0.3-0.1
					C504.9,235.6,504.9,235.5,505,235.5z M504.9,236.8c0.1-0.2,0.2-0.2,0.4,0C505.1,236.8,505,236.8,504.9,236.8z M506.6,230.5
					c0-0.4,0-0.7,0-1.1l0,0C506.6,229.7,506.6,230.1,506.6,230.5L506.6,230.5z M506.7,237.5L506.7,237.5c0-0.4,0-0.8,0-1.2l0,0
					C506.7,236.7,506.7,237.1,506.7,237.5z M507.1,233.2C507,233.2,507,233.2,507.1,233.2c-0.1-0.4-0.1-0.8-0.1-1.2c0,0,0,0,0.1,0
					C507.1,232.4,507.1,232.8,507.1,233.2z M507.2,236.5C507.1,236.5,507.1,236.5,507.2,236.5c-0.1-0.1-0.1-0.2-0.1-0.3
					c0,0,0,0,0.1,0C507.2,236.3,507.2,236.4,507.2,236.5z M507.9,232.9c0,0-0.1,0.1-0.2,0.1c0-0.3,0-0.5,0-0.7c0-0.1,0-0.2,0-0.4
					c0-0.1,0-0.2,0-0.3l0.1-0.1l0.1,0.1C507.9,232.1,507.9,232.5,507.9,232.9z M507.9,229.9c0,0.1,0,0.2-0.1,0.3
					c-0.1-0.2-0.2-1.2-0.1-1.3c0,0.1,0.1,0.1,0.1,0.2C507.9,229.4,507.9,229.7,507.9,229.9z M508.3,229c0-0.1,0.1-0.1,0.1-0.2
					c0.1,0.1,0.2,0.1,0.2,0.2c0,0.3,0,0.7,0,1c0,0,0,0.1-0.1,0.1h-0.1c0-0.1-0.1-0.3-0.1-0.4C508.3,229.5,508.3,229.2,508.3,229z
					 M508.6,232.7c0,0.1-0.1,0.2-0.1,0.2c0-0.1-0.1-0.1-0.1-0.2s0-0.1,0-0.2l0,0c0-0.2,0-0.5,0-0.7c0-0.1,0.1-0.2,0.1-0.3
					c0,0.1,0.1,0.2,0.1,0.2C508.6,232.1,508.6,232.4,508.6,232.7z M510.2,228.5c0-0.1,0.1-0.2,0.2-0.2c0.1,0.1,0.2,0.2,0.2,0.2
					c0,0.4,0,0.7,0,1.1c0,0.1-0.1,0.1-0.2,0.2c-0.1-0.1-0.1-0.1-0.1-0.2c0-0.2,0-0.4,0-0.5l0,0C510.2,228.9,510.2,228.7,510.2,228.5
					z M509.5,228.4c0,0,0.1,0,0.2,0c0.1,0.1,0.1,0.2,0.1,0.2s0,0-0.1,0c0,0.3,0.1,0.6,0.1,0.9c0,0.1,0,0.3-0.1,0.3
					c-0.2,0-0.2-0.1-0.2-0.2c0-0.3-0.1-0.6-0.1-0.9C509.4,228.6,509.4,228.5,509.5,228.4z M509.4,231.5c0.1-0.1,0.1-0.2,0.2-0.3
					c0.1,0.1,0.1,0.2,0.1,0.3c0,0.4,0,0.7,0,1.1c0,0.1-0.1,0.2-0.2,0.2c-0.2,0-0.1-0.1-0.1-0.2s0-0.2,0-0.3l0,0
					c0-0.2-0.1-0.4-0.1-0.6C509.4,231.6,509.3,231.5,509.4,231.5z M509.6,234.5c0.1,0.1,0.2,0.1,0.2,0.2s-0.1,0.1-0.2,0.2
					c-0.1-0.1-0.2-0.2-0.2-0.2S509.5,234.6,509.6,234.5z M509.9,237.2c0,0.2-0.1,0.3-0.3,0.3c0-0.4-0.1-0.9-0.1-1.3
					c0-0.1,0.1-0.2,0.2-0.2c0.1,0.1,0.2,0.2,0.2,0.2C509.7,236.6,509.9,236.9,509.9,237.2z M510.2,232.6c0-0.3,0-0.6,0-0.9
					c0-0.1,0-0.1,0-0.2s0-0.3,0.2-0.3c0.1,0,0.2,0.2,0.2,0.2h-0.1c0,0.4,0,0.7,0,1.1c0,0.1-0.1,0.2-0.2,0.2
					C510.2,232.8,510.2,232.7,510.2,232.6z M510.2,234.7c0-0.1,0.1-0.2,0.2-0.2c0.1,0.1,0.1,0.1,0.2,0.2c0,0-0.1,0.1-0.2,0.2
					C510.3,234.8,510.2,234.8,510.2,234.7z M510.6,236.5c0,0.3,0,0.5,0,0.8c0,0.1-0.1,0.1-0.1,0.2c0-0.1-0.1-0.1-0.1-0.2
					s0-0.2,0-0.3l0,0c0-0.3,0-0.5-0.1-0.8c0-0.1,0-0.2,0-0.2c0-0.1,0.1-0.1,0.2-0.1c0,0,0.1,0.1,0.1,0.2
					C510.6,236.2,510.6,236.4,510.6,236.5z M511.6,228.3c0.1-0.1,0.2-0.2,0.3-0.2c0.2,0,0.3,0.1,0.2,0.3c-0.1,0.3,0,0.6,0,0.9
					c0,0.1,0,0.3-0.2,0.3s-0.2,0-0.2-0.2C511.7,229,511.7,228.7,511.6,228.3L511.6,228.3z M511.9,232.7c-0.2,0-0.2-0.1-0.2-0.2
					c0-0.3-0.1-0.7-0.1-1c0-0.2,0-0.3,0.2-0.3s0.2,0.1,0.2,0.3c0,0.3,0,0.5,0,0.8l0,0c0,0.1,0,0.2,0,0.2
					C512.1,232.6,512.1,232.7,511.9,232.7z M512.6,228.3c0-0.1,0.1-0.2,0.1-0.3c0.1,0,0.2,0,0.3,0c0.1,0.1,0.1,0.2,0.1,0.3
					c-0.1,0.2,0,0.4,0,0.7c0,0.1,0,0.1,0,0.2c0,0.1,0,0.2-0.1,0.3c-0.1,0-0.3,0.1-0.4,0c-0.1-0.1-0.1-0.3-0.1-0.4c0,0,0,0,0.1,0
					C512.6,228.8,512.6,228.5,512.6,228.3z M513.1,232.3c0,0.2-0.1,0.3-0.3,0.3s-0.3-0.1-0.3-0.3v-0.1l0,0c0-0.1,0.1-0.3,0.1-0.4
					s0-0.2,0-0.2c0-0.1-0.1-0.2,0-0.3s0.2-0.2,0.3-0.2c0.1,0.1,0.2,0.2,0.2,0.3C513,231.6,513.2,232,513.1,232.3z M514.5,227.8
					c0.1,0,0.2-0.1,0.3,0s0.1,0.2,0.1,0.3c0,0.2,0,0.4,0,0.6c0,0.1,0,0.2,0,0.3c0,0.2-0.1,0.3-0.3,0.3s-0.2-0.1-0.2-0.3
					c0-0.1,0-0.3,0-0.4l0,0c0-0.2-0.1-0.4-0.1-0.5C514.4,228,514.5,227.9,514.5,227.8z M514.5,231.4c0-0.1,0-0.2,0-0.3
					c0-0.2,0.2-0.3,0.3-0.2c0.1,0,0.2,0.2,0.2,0.2c0,0.5,0,0.8,0,1.2c0,0.2-0.1,0.2-0.2,0.2c-0.2,0-0.3-0.1-0.2-0.2
					c0-0.2,0-0.4,0-0.6C514.5,231.5,514.5,231.4,514.5,231.4z M514.5,234.3c0.1,0,0.2,0,0.3,0c0.1,0.1,0.1,0.2,0.2,0.4
					c-0.2,0-0.3,0-0.4,0c-0.1,0-0.2-0.1-0.3-0.1C514.5,234.5,514.5,234.4,514.5,234.3z M515.1,236.1c0,0.3,0,0.7,0,1
					c0,0.2,0,0.3-0.3,0.3c-0.2,0-0.2-0.1-0.2-0.3c0-0.1,0-0.1,0-0.2l0,0c0-0.3,0-0.5-0.1-0.8c0-0.2,0.1-0.3,0.3-0.3
					S515.1,236,515.1,236.1z M515.6,227.8c0.1-0.1,0.2-0.1,0.3-0.1s0.2,0.2,0.2,0.3c-0.1,0.3,0,0.7,0,1c0,0.2-0.1,0.3-0.3,0.3
					s-0.3-0.1-0.3-0.3c0-0.1,0-0.2,0-0.3l0,0c0-0.2-0.1-0.4-0.1-0.6C515.5,227.9,515.5,227.8,515.6,227.8z M515.5,231.2
					c0-0.1,0-0.3,0.1-0.3c0.1-0.1,0.3-0.1,0.3,0c0.1,0,0.1,0.2,0.1,0.3c0,0.3,0,0.7,0,1c0,0.2,0,0.3-0.3,0.3s-0.3-0.2-0.3-0.3v-0.1
					l0,0c0-0.2,0.1-0.3,0.1-0.5C515.6,231.4,515.5,231.3,515.5,231.2z M515.8,234.2c0.1,0.1,0.2,0.2,0.3,0.3
					c-0.1,0.1-0.2,0.1-0.3,0.2c-0.1-0.1-0.2-0.1-0.3-0.2C515.6,234.4,515.7,234.3,515.8,234.2z M516.2,236.1c-0.1,0.4,0,0.7,0,1.1
					c0,0.2-0.1,0.2-0.3,0.3c-0.2,0-0.3-0.1-0.3-0.3c0-0.1,0-0.2,0-0.3l0,0c0-0.3-0.1-0.5-0.1-0.8c0-0.2,0.1-0.3,0.3-0.4
					C516.1,235.7,516.3,235.9,516.2,236.1z M520.7,233.4c-0.2,0-0.5,0-0.7,0c0-0.3,0.2-0.5,0.4-0.5
					C520.6,233,520.7,233.2,520.7,233.4z M519.9,228.7c0-0.2,0.2-0.3,0.3-0.3c0.2,0,0.2,0.1,0.3,0.3c0,0.1,0,0.1,0,0.2
					c0,0.5,0,0.9,0,1.4c0,0.2-0.1,0.3-0.3,0.3s-0.3-0.1-0.3-0.3c0-0.1,0-0.3,0-0.4l0,0c0-0.3-0.1-0.6-0.1-0.9
					C519.9,228.9,519.9,228.8,519.9,228.7z M519.1,228.5c0.2,0,0.3,0.1,0.2,0.4c0,0.5,0,1,0,1.5c0,0.1-0.1,0.2-0.2,0.2
					c-0.1,0-0.3,0-0.3-0.1c0-0.3,0-0.6,0-0.9c0-0.1,0-0.2,0-0.3s0-0.2,0-0.3C518.8,228.7,518.9,228.5,519.1,228.5z M518.7,233.3
					c0.1-0.3,0.4-0.3,0.6-0.1c0.1,0.1,0.1,0.2,0.2,0.3c-0.3,0-0.5,0-0.7,0S518.6,233.4,518.7,233.3z M520.6,237.7
					c-0.4,0-0.7,0-1.1,0c-0.4,0-0.8,0-1.1,0c-0.1,0-0.2,0-0.2-0.2c0-0.6,0-1.3,0-1.9c0-0.2,0-0.3,0.1-0.5c0.1-0.3,0.3-0.5,0.5-0.5
					c0.3,0,0.5,0,0.6,0.3c0.1,0.1,0.2,0.2,0.2,0c0.1-0.3,0.3-0.3,0.5-0.4c0.2,0,0.5,0.1,0.6,0.3s0.2,0.4,0.2,0.6c0,0.6,0,1.3,0,1.9
					C520.9,237.7,520.8,237.8,520.6,237.7z M521.9,226.1c0-0.2,0-0.5,0-0.7c0-0.1,0-0.2,0.1-0.3c0.2,0.2,0.2,1.3,0,1.5
					C521.9,226.4,521.9,226.2,521.9,226.1z M522.1,230.8c0-0.2,0-0.2-0.1-0.3c0-0.4,0-0.7,0-1.1c0-0.1,0-0.2,0.1-0.4
					C522.3,229.2,522.3,230.6,522.1,230.8z M523.1,226.2L523.1,226.2c0-0.4,0-0.7,0-1.1l0,0C523.1,225.4,523.1,225.8,523.1,226.2z
					 M523.3,230.2C523.2,230.2,523.2,230.2,523.3,230.2c0-0.4,0-0.8,0-1.1l0,0C523.3,229.5,523.3,229.8,523.3,230.2z M523.3,233.6
					L523.3,233.6c0-0.4,0-0.8,0-1.1l0,0C523.3,232.9,523.3,233.3,523.3,233.6z M523.4,236.5C523.4,236.5,523.3,236.5,523.4,236.5
					c-0.1-0.4-0.1-0.8-0.1-1.2c0,0,0,0,0.1,0C523.4,235.8,523.4,236.2,523.4,236.5z M531.7,236.4
					C531.7,236.4,531.6,236.4,531.7,236.4c-0.1-0.4-0.1-0.7-0.1-1.1c0,0,0,0,0.1,0C531.7,235.7,531.7,236.1,531.7,236.4z
					 M531.7,233.5L531.7,233.5c0-0.3,0-0.7,0-1l0,0C531.7,232.8,531.7,233.1,531.7,233.5z M531.8,230.2
					C531.8,230.2,531.7,230.2,531.8,230.2c-0.1-0.4-0.1-0.8-0.1-1.2c0,0,0,0,0.1,0C531.8,229.4,531.8,229.8,531.8,230.2z
					 M531.9,226.1L531.9,226.1c0-0.4,0-0.8,0-1.1l0,0C531.9,225.4,531.9,225.7,531.9,226.1z M532.6,230.8c0-0.6,0-1.2,0-1.7
					C532.8,229.2,532.7,230.6,532.6,230.8z M532.7,226.6c0-0.5,0-1,0-1.5C532.9,225.2,532.9,226.3,532.7,226.6z M535.4,230.3
					c0-0.1,0-0.2,0-0.4l0,0c0-0.4,0-0.8,0-1.1c0-0.2,0-0.3,0.2-0.3s0.3,0.1,0.3,0.3c0,0.5,0,1,0,1.5c0,0.2-0.2,0.1-0.3,0.2
					C535.4,230.5,535.4,230.5,535.4,230.3z M535.6,233c0.1,0,0.2,0,0.3,0.1s0.1,0.2,0.2,0.3c-0.3,0-0.5,0-0.7,0l-0.1-0.1
					C535.4,233.2,535.5,233.1,535.6,233z M534.5,228.4c0.2,0,0.4,0.2,0.3,0.5c-0.1,0.4,0.1,0.9,0,1.3c0,0.2-0.3,0.4-0.5,0.3
					l-0.1-0.1c0-0.2,0-0.3,0-0.5l0,0c0-0.3,0-0.6-0.1-1C534.2,228.6,534.3,228.4,534.5,228.4z M534.4,232.9c0.2,0,0.4,0.2,0.4,0.5
					c-0.2,0-0.5,0-0.7,0C534,233.2,534.2,233,534.4,232.9z M536.6,237.5c0,0.2-0.1,0.3-0.3,0.3c-0.4,0-0.7,0-1.1,0
					c-0.4,0-0.7,0-1.1,0c-0.2,0-0.2-0.1-0.2-0.2c0-0.7,0-1.4,0-2.2c0-0.3,0.2-0.5,0.4-0.7c0.3-0.2,0.6-0.1,0.8,0.2
					c0,0.1,0.1,0.1,0.1,0.1l0.1-0.1c0.1-0.1,0.3-0.2,0.5-0.3c0.3-0.1,0.5,0.1,0.6,0.3s0.2,0.5,0.2,0.7
					C536.6,236.3,536.6,236.9,536.6,237.5z M538.5,228.9c0-0.2,0-0.4,0.1-0.6c0-0.1-0.1-0.2,0-0.2c0-0.1,0-0.3,0.1-0.4
					c0.1-0.1,0.3,0,0.3,0c0.1,0.1,0.1,0.2,0.1,0.4c0,0.1,0,0.3,0,0.4c0,0.2,0,0.4-0.1,0.6c0,0.1-0.2,0.1-0.3,0.1
					S538.5,229.2,538.5,228.9z M538.8,230.8c0.2,0,0.4,0.2,0.3,0.3c-0.1,0.4,0,0.7,0,1.1c0,0.2-0.1,0.2-0.3,0.2s-0.2-0.1-0.2-0.2
					s0-0.2,0-0.3l0,0c0-0.3,0-0.5-0.1-0.8C538.5,230.9,538.6,230.8,538.8,230.8z M539,236.2c0,0.2,0,0.5-0.1,0.7l0,0
					c0,0.1,0,0.1,0,0.2s0.1,0.3-0.2,0.3c-0.2,0-0.3-0.1-0.3-0.3c0-0.3,0-0.7,0-1c0-0.1,0.1-0.3,0.2-0.4c0,0,0.2,0,0.3,0.1
					C539.1,235.9,539,236.1,539,236.2z M538.8,234.7c-0.1,0-0.2-0.1-0.3-0.1c0.1-0.1,0.1-0.2,0.2-0.3l0.2,0.1
					c0.1,0.1,0.1,0.2,0.1,0.3C539,234.7,538.9,234.7,538.8,234.7z M539.6,228.8L539.6,228.8c0-0.3,0-0.5,0-0.8
					c0-0.2,0.1-0.3,0.3-0.3s0.3,0.1,0.2,0.3c0,0.3-0.1,0.7-0.1,1c0,0.1-0.1,0.2-0.2,0.2c-0.1,0-0.2,0-0.2-0.2
					C539.6,229,539.6,228.9,539.6,228.8z M540,232c0,0.1,0,0.2,0,0.2c0,0.1-0.1,0.2-0.2,0.2c-0.1,0-0.2-0.1-0.2-0.2
					c0-0.2,0-0.5,0-0.7c0-0.1,0-0.2,0-0.2c0-0.1,0-0.3,0.1-0.4c0,0,0.2-0.1,0.2,0c0.1,0.1,0.1,0.2,0.2,0.3
					C540.1,231.5,540,231.7,540,232L540,232z M540,237.1c0,0.2-0.1,0.3-0.3,0.3c-0.3,0-0.2-0.2-0.2-0.3c0,0,0,0,0-0.1l0,0
					c0-0.1,0-0.3,0.1-0.4c0-0.1,0-0.3,0-0.4s0-0.2,0.1-0.3c0-0.1,0.2-0.1,0.3,0s0.1,0.2,0.1,0.3C540,236.5,540,236.8,540,237.1z
					 M539.8,234.7c-0.1,0-0.2-0.1-0.2-0.1c0.1-0.1,0.1-0.2,0.2-0.3c0.1,0,0.2,0,0.3,0c0.1,0.1,0.1,0.2,0.2,0.3
					C540,234.7,539.9,234.7,539.8,234.7z M541.8,232.4c0,0.1-0.1,0.2-0.2,0.2c-0.1,0-0.2-0.1-0.2-0.2s0-0.2,0-0.3l0,0
					c0-0.3,0-0.6,0-0.9c0-0.1,0-0.3,0.2-0.3s0.3,0.1,0.3,0.3C541.8,231.7,541.8,232,541.8,232.4z M541.9,228.3c0,0.3-0.1,0.6-0.1,1
					c0,0.1,0,0.2-0.2,0.2c-0.1,0-0.3,0-0.3-0.2c0-0.1,0-0.2,0-0.2l0,0c0-0.3,0-0.5,0-0.8c0-0.1,0.1-0.3,0.2-0.3
					C541.8,228,541.9,228.1,541.9,228.3z M542.7,232.5c0,0.1-0.1,0.2-0.2,0.2c-0.1,0-0.2-0.1-0.2-0.2s0-0.2,0-0.3l0,0
					c0-0.3,0-0.6,0-0.8c0-0.1,0-0.3,0.2-0.3s0.2,0.1,0.2,0.3C542.8,231.7,542.7,232.1,542.7,232.5z M542.8,228.4
					c0,0.3-0.1,0.6-0.1,1c0,0.1,0,0.2-0.2,0.2c-0.1,0-0.2-0.1-0.2-0.2c0-0.1,0-0.1,0-0.2l0,0c0-0.3,0-0.5,0-0.8
					c0-0.1,0.1-0.2,0.2-0.2C542.7,228.1,542.8,228.2,542.8,228.4z M544.1,237.3c0,0.1,0,0.2-0.2,0.2s-0.2-0.1-0.2-0.2s0-0.2,0-0.3
					l0,0c0-0.3,0-0.5-0.1-0.8c0-0.1,0-0.3,0.2-0.3c0.1,0,0.2,0.2,0.2,0.3C544.1,236.5,544.1,236.9,544.1,237.3z M543.8,234.8
					C543.8,234.8,543.7,234.8,543.8,234.8c0-0.2,0.1-0.3,0.2-0.3c0.1,0.1,0.1,0.2,0.3,0.3C544,234.8,543.9,234.8,543.8,234.8z
					 M544.2,232.6c0,0.1-0.1,0.1-0.1,0.2c-0.1,0-0.1-0.1-0.2-0.1c0-0.1,0-0.2,0-0.3l0,0c0-0.3,0-0.6,0-0.9c0-0.1,0.1-0.2,0.1-0.2
					c0.1,0.1,0.2,0.2,0.2,0.3c0,0.3,0,0.5,0,0.8C544.2,232.4,544.2,232.5,544.2,232.6z M544.2,228.6c0,0.3,0,0.7-0.1,1
					c0,0.1-0.1,0.1-0.2,0.2c0-0.1-0.1-0.2-0.1-0.2c0-0.3,0-0.7,0-1c0-0.1,0.1-0.2,0.2-0.3C544.1,228.4,544.2,228.4,544.2,228.6
					C544.3,228.5,544.2,228.5,544.2,228.6z M544.8,237.4l-0.1,0.1l-0.1-0.1c0-0.1,0-0.2,0-0.3l0,0c0-0.3,0-0.6,0-0.8
					c0-0.1,0.1-0.1,0.1-0.2c0.1,0.1,0.2,0.1,0.2,0.2C544.9,236.6,544.8,237,544.8,237.4z M544.8,235c-0.1-0.1-0.2-0.2-0.2-0.2
					c0-0.1,0.1-0.2,0.2-0.3c0.1,0.1,0.2,0.1,0.2,0.2C545,234.8,544.9,234.9,544.8,235z M544.9,232.7c0,0.1-0.1,0.1-0.1,0.2
					c0-0.1-0.1-0.1-0.1-0.2s0-0.2,0-0.3l0,0c0-0.3,0-0.6,0-0.8c0-0.1,0.1-0.2,0.1-0.3c0.1,0.1,0.2,0.2,0.2,0.2
					C545,231.9,544.9,232.3,544.9,232.7z M544.9,229.7l-0.1,0.1c-0.1,0-0.1-0.1-0.1-0.1S544.7,229.7,544.9,229.7
					c-0.1-0.3-0.1-0.7-0.1-1c0-0.1,0.1-0.2,0.2-0.2c0.1,0.1,0.2,0.2,0.2,0.2C545,229,544.9,229.4,544.9,229.7z M545.9,232.9
					L545.9,232.9c-0.1,0-0.2-0.1-0.2-0.1c0-0.3,0-0.7,0-1c0-0.1,0.1-0.1,0.1-0.2l0.1,0.1C546,232.1,545.9,232.5,545.9,232.9z
					 M546,230C546,230,545.9,230.1,546,230c-0.1,0.1-0.1,0.1-0.2,0.1c0-0.2,0-0.4,0-0.6c0-0.2,0-0.4,0-0.6c0-0.1,0.1-0.1,0.1-0.2
					c0,0.1,0.1,0.1,0.1,0.2C546,229.3,546,229.7,546,230z M546.5,228.8c0.1,0.5-0.1,0.9,0,1.4C546.3,230,546.3,229.1,546.5,228.8z
					 M546.5,232.8c0,0,0,0.1-0.1,0.1c0,0,0,0-0.1,0c0-0.1,0-0.3,0-0.4c0-0.2,0-0.4,0-0.7c0-0.1,0.1-0.2,0.1-0.2
					c0,0.1,0.1,0.1,0.1,0.2C546.6,232.2,546.5,232.5,546.5,232.8z M547.2,237.4C547.1,237.4,547.1,237.4,547.2,237.4
					c0-0.4,0-0.8,0-1.2l0,0C547.2,236.6,547.2,237,547.2,237.4z M547.2,233.2c0-0.4,0-0.8,0-1.3C547.3,232,547.3,232.9,547.2,233.2z
					 M547.3,230.4L547.3,230.4c0-0.4,0-0.8,0-1.1l0,0C547.3,229.7,547.3,230,547.3,230.4z M547.6,237.4
					C547.5,237.4,547.5,237.4,547.6,237.4c0-0.4,0-0.8,0-1.1l0,0C547.6,236.7,547.6,237,547.6,237.4z M547.7,230.4
					C547.7,230.4,547.6,230.4,547.7,230.4c0-0.3,0-0.7,0-1l0,0C547.7,229.7,547.7,230.1,547.7,230.4z M549.2,236.8
					c-0.1,0-0.2,0-0.4,0c0.1-0.1,0.1-0.2,0.2-0.2C549.1,236.7,549.2,236.7,549.2,236.8C549.3,236.8,549.3,236.8,549.2,236.8z
					 M549,235.7c0.1-0.2,0.2-0.2,0.3,0C549.2,235.7,549.1,235.7,549,235.7z M549.2,234.1c-0.2,0-0.2-0.1-0.2-0.3l0,0l0,0
					c0-0.2-0.1-0.3,0-0.5c0-0.1,0.1-0.2,0.2-0.2c0.1,0,0.2,0.1,0.2,0.2c0,0.2,0,0.4,0,0.6C549.4,234,549.4,234.1,549.2,234.1z
					 M549.5,231.5c0,0.1,0,0.3-0.2,0.3s-0.2-0.2-0.2-0.3c0-0.2-0.1-0.3,0-0.5c0-0.1,0.1-0.2,0.2-0.2c0.1,0,0.2,0.1,0.2,0.2
					C549.5,231.2,549.5,231.3,549.5,231.5z M550.8,236.8c-0.1,0-0.2,0-0.3,0c0.1-0.1,0.1-0.2,0.2-0.2
					C550.7,236.6,550.8,236.7,550.8,236.8C550.9,236.7,550.9,236.8,550.8,236.8z M550.9,235.7c-0.1,0-0.2,0-0.4,0
					c0.1-0.1,0.1-0.2,0.2-0.2C550.8,235.5,550.9,235.5,550.9,235.7C550.9,235.6,550.9,235.6,550.9,235.7z M551,233.7
					c0,0.1,0,0.3-0.2,0.3s-0.2-0.2-0.2-0.3c0-0.2,0-0.3,0-0.5c0-0.1,0-0.2,0.1-0.2s0.2,0,0.2,0s0.1,0.1,0.1,0.2
					C551,233.4,551,233.6,551,233.7z M550.9,231.8c-0.2,0-0.2-0.1-0.2-0.3s0-0.4,0-0.6c0-0.1,0.1-0.1,0.2-0.1c0.1,0,0.2,0.1,0.2,0.2
					c0,0.2,0,0.4,0,0.6C551.1,231.7,551.1,231.8,550.9,231.8z M552.4,236.8c-0.1,0-0.2,0-0.3,0c0,0,0,0,0-0.1
					c0.1-0.1,0.1-0.2,0.2-0.2C552.3,236.6,552.4,236.7,552.4,236.8L552.4,236.8z M552.5,235.7c-0.1,0-0.2,0-0.3,0c0,0,0,0,0-0.1
					c0.1,0,0.1-0.1,0.2-0.1C552.4,235.5,552.4,235.6,552.5,235.7C552.5,235.6,552.5,235.6,552.5,235.7z M552.5,234l-0.1,0.1
					c-0.1,0-0.2-0.1-0.2-0.1c0-0.1,0-0.2,0-0.2l0,0c0-0.2-0.1-0.3,0-0.5c0-0.1,0.1-0.2,0.2-0.3c0.1,0.1,0.2,0.1,0.2,0.2
					C552.5,233.4,552.5,233.7,552.5,234z M552.6,231.6c0,0.1-0.1,0.1-0.2,0.2c-0.1-0.1-0.2-0.1-0.2-0.2c0-0.2,0-0.4,0-0.6
					c0-0.1,0.1-0.1,0.2-0.3c0.1,0.1,0.2,0.2,0.2,0.3C552.6,231.2,552.6,231.4,552.6,231.6z M553.6,234
					C553.5,234,553.5,234,553.6,234c0-0.3,0-0.6,0-0.9l0,0C553.6,233.4,553.6,233.7,553.6,234z M553.9,234.1L553.9,234.1
					c0-0.2,0-0.5,0-0.7l0,0C553.9,233.6,553.9,233.8,553.9,234.1z"/>
				<path fill="#F2F2F2" d="M530.3,235.2c0.3,0.1,0.5-0.1,0.5-0.4c0-1.7,0-3.4,0-5.1c0-1.7,0-3.4,0-5.1c0-0.3,0-0.4-0.4-0.4
					c-1.9,0-3.9,0-5.8,0c-0.3,0-0.3,0-0.3,0.3c0,3.4,0,6.9,0,10.3c0,0.3,0.1,0.4,0.4,0.4c0.2,0,0.2-0.1,0.1-0.2
					c-0.3-0.6-0.3-1.2-0.1-1.7c0.3-1.1,1.2-1.7,2.3-1.9c1-0.2,1.9,0.1,2.6,0.8c0.7,0.7,1,1.9,0.5,2.9
					C530.2,235.1,530.2,235.2,530.3,235.2z M525.1,225.4c-0.1-0.2,0-0.4,0.2-0.5s0.4-0.2,0.7-0.1c0.2,0.1,0.3,0.2,0.3,0.4
					c-0.1,0.4,0,0.8,0,1.2c0,0.2,0,0.3-0.3,0.3c-0.1,0-0.2,0-0.2,0c-0.6,0-0.5,0.1-0.5-0.5c0-0.2,0-0.4,0.1-0.6
					C525.1,225.5,525.1,225.4,525.1,225.4z M526.2,229.2c0,0.4,0,0.8,0,1.1c0,0.4,0,0.4-0.4,0.4h-0.1c-0.7,0-0.6,0.1-0.6-0.6
					c0-0.2,0.1-0.4,0.1-0.6c0-0.1,0-0.2,0-0.2c0-0.2-0.1-0.4,0.1-0.6c0.2-0.1,0.5-0.2,0.7-0.1C526.2,228.8,526.2,229,526.2,229.2z
					 M526.9,226.2c0-0.2,0-0.4,0.1-0.6c0-0.1,0-0.1,0-0.2c-0.1-0.3,0-0.5,0.3-0.6s0.6-0.1,0.8,0.2c0.1,0.1,0,0.3,0,0.5
					c0,0.1,0,0.2,0,0.3c0,0.3,0,0.6,0,0.9l-0.1,0.1c-0.1,0-0.3,0-0.4,0C526.9,226.8,526.9,226.8,526.9,226.2z M527.6,230.8
					c-0.5,0-0.5,0-0.5-0.5c0-0.3,0-0.7,0-1s0.2-0.5,0.5-0.6c0.4,0,0.6,0.1,0.6,0.5c0,0.2,0,0.4,0,0.5c0,0.2,0,0.4,0,0.5
					C528.1,230.8,528.1,230.8,527.6,230.8z M528.8,226.2c0-0.2,0-0.3,0.1-0.5c0-0.1,0-0.2,0-0.3c-0.1-0.2,0-0.4,0.2-0.6
					c0.2-0.2,0.5-0.2,0.8,0c0.2,0.1,0.2,0.3,0.1,0.5c0,0.1,0,0.3,0,0.4c0,0.3,0,0.5,0,0.8c0,0.1-0.1,0.1-0.2,0.2c-0.1,0-0.3,0-0.4,0
					C528.7,226.8,528.8,226.9,528.8,226.2z M530,230.2c0,0.7,0.1,0.6-0.6,0.6c-0.6,0-0.5,0-0.5-0.6c0-0.2,0.1-0.4,0.1-0.6
					c0-0.1,0-0.2,0-0.2c-0.1-0.2-0.1-0.4,0.1-0.6c0.2-0.2,0.4-0.2,0.7-0.1c0.2,0.1,0.3,0.3,0.3,0.5C529.9,229.5,530,229.8,530,230.2
					z"/>
				<path fill="#F2F2F2" d="M518,221.7L518,221.7c0.1,0.3,0.1,0.5,0.2,0.7c0,0.1,0.1,0.2,0.2,0.2c0.8,0,1.6,0,2.4,0
					c0.1,0,0.2,0,0.2-0.1s0-0.3,0.1-0.4c0-0.1,0-0.3,0.1-0.4c0.1-0.1,0.2,0,0.4,0c0,0.1,0,0.2,0,0.3c0.1,0.2,0.1,0.5,0.2,0.7
					c0,0.1,0.2,0.2,0.3,0.2c0-0.1,0.1-0.1,0.1-0.2c0-0.2,0.1-0.3,0.1-0.5c0.1,0,0.2,0,0.3,0c0,0.1,0.1,0.3,0.1,0.4
					c0,0.1,0.1,0.3,0.1,0.4c-0.1,0.3,0.1,0.3,0.3,0.3c0.1,0,0.2,0,0.2,0c0.2,0,0.3-0.1,0.3-0.3s-0.1-0.5-0.1-0.8c0.1,0,0.3,0,0.5,0
					s0.3-0.1,0.3-0.3c0-0.3,0-0.5-0.1-0.9c0.2,0,0.4,0,0.6,0c0.2,0,0.3-0.1,0.3-0.3c0-0.3-0.1-0.5-0.1-0.8c0.2,0,0.4,0,0.6,0
					c0.2,0,0.3-0.1,0.3-0.3c0-0.3,0-0.6-0.2-0.9c0,0-0.1-0.1-0.2-0.1c-0.4,0.1-0.9,0.2-1.3,0.4c-0.6,0.3-1.2,0.7-1.6,1.2
					c-0.2,0.3-0.5,0.5-0.7,0.7c-0.3-0.2-0.6-0.5-1-0.6c-0.4-0.2-0.6-0.4-0.7-0.7c-0.1-0.1,0-0.2,0-0.4c0.1-0.2,0.2-0.4,0.1-0.6
					c0-0.3-0.3-0.4-0.6-0.3c-0.2,0.1-0.3,0.2-0.2,0.5c0,0.1,0.1,0.3,0.2,0.4c0,0,0.1,0.1,0,0.1c-0.1,0.4-0.2,0.8-0.7,0.9
					c-0.5,0.2-0.9,0.5-1.1,1C517.6,221.6,517.6,221.6,518,221.7z"/>
				<path fill="#F2F2F2" d="M529.1,219.1c0,0.2,0,0.3,0,0.5s0.1,0.2,0.2,0.2c0.2,0,0.3,0,0.5,0c0.1,0,0.2,0,0.1,0.2
					c-0.1,0.2-0.1,0.4-0.1,0.7c0,0.2,0.1,0.2,0.2,0.2c0.2,0,0.4,0,0.6,0c0.1,0,0.1,0.1,0.1,0.1c-0.2,0.2-0.1,0.5-0.1,0.7
					s0.1,0.3,0.3,0.3c0.1,0,0.3,0,0.4,0c0.1,0,0.2,0.1,0.1,0.2c-0.2,0.2-0.1,0.4-0.1,0.7c0,0.1,0.1,0.2,0.1,0.2c0.2,0,0.4,0,0.6,0
					c0.2,0,0.1-0.2,0.1-0.3v-0.1c0-0.2,0.1-0.4,0.2-0.7c0.1,0,0.3,0,0.3,0.1c0.1,0.1,0,0.3,0.1,0.5c0,0.2,0.1,0.2,0.2,0.1
					c0.2-0.1,0.2-0.2,0.2-0.4c0.1-0.2,0.2-0.5,0.3-0.8c0.1,0,0.3,0,0.3,0.1c0.1,0.2,0.1,0.5,0.2,0.8l0,0c0.8,0,1.7,0,2.5,0
					c0.1,0,0.1-0.1,0.2-0.2c0.1-0.3,0-0.7,0.4-0.8c0,0,0-0.1,0-0.2c0-0.1-0.1-0.2-0.2-0.3c-0.2-0.4-0.6-0.6-1.1-0.7
					c-0.3-0.1-0.5-0.4-0.6-0.7c0-0.1,0-0.2,0-0.3s0.1-0.3,0.2-0.4c0-0.2,0-0.4-0.2-0.5s-0.4-0.1-0.6,0c-0.2,0.1-0.2,0.3-0.1,0.5
					c0,0.1,0.1,0.2,0.2,0.3c0,0.1,0.1,0.2,0,0.2c-0.1,0.3-0.2,0.6-0.5,0.8c-0.5,0.2-0.9,0.5-1.2,0.9l0,0c0,0,0,0,0.1-0.1
					c-0.2-0.2-0.4-0.3-0.6-0.5c-0.8-0.9-1.7-1.6-2.9-1.8C529.3,218.7,529.1,218.8,529.1,219.1z"/>
				<path fill="#F2F2F2" d="M526.4,215.6c0.5-0.2,1.1-0.2,1.6,0c0.4,0.2,0.6,0.2,0.9-0.2c0.5-0.6,0.7-1.6,0.4-2.4
					c-0.3-0.6-0.7-1-1.4-1.2c-0.4-0.1-0.7-0.7-0.5-1.1c0.1-0.2,0.1-0.3-0.2-0.3c-0.2,0-0.3,0.1-0.3,0.2c0.1,0.3,0,0.6-0.1,0.9
					c-0.1,0.1-0.2,0.2-0.3,0.3s-0.3,0.1-0.5,0.2c-1.3,0.6-1.5,2.1-0.9,3.1C525.4,215.5,525.8,215.8,526.4,215.6z"/>
				<path fill="#F2F2F2" d="M527.4,223.2c0.8,0,1.5,0,2.3,0c0.3,0,0.3-0.1,0.3-0.4c-0.1-0.4-0.3-0.7-0.7-0.8
					c-0.2-0.1-0.2-0.2-0.3-0.3c-0.3-1.1-1.3-1.6-2.3-1.1c-0.5,0.2-0.8,0.6-0.9,1.2c0,0.2-0.1,0.3-0.3,0.3c-0.3,0.1-0.6,0.4-0.7,0.8
					c-0.1,0.3,0,0.4,0.3,0.4C525.9,223.2,526.7,223.2,527.4,223.2z"/>
			</g>
		</g>
	</g>
</g>
</svg>
