<?xml version="1.0" encoding="utf-8"?>
<!-- Generator: Adobe Illustrator 18.1.1, SVG Export Plug-In . SVG Version: 6.00 Build 0)  -->
<svg version="1.1" id="Camada_1" xmlns="http://www.w3.org/2000/svg" xmlns:xlink="http://www.w3.org/1999/xlink" x="0px" y="0px"
	 viewBox="0 0 22.5 29.5" enable-background="new 0 0 22.5 29.5" xml:space="preserve">
<g>
	<g id="XMLID_474_">
		<path d="M5.9,0.9C1,3.2-1.2,9,1,13.9C2.1,16.3,4.2,18,6.5,19l9.5,4.2l3.1-9.9c0.7-2.4,0.9-5-0.3-7.5C16.6,0.9,10.8-1.3,5.9,0.9z
			 M16.1,12.2c-0.6,1.7-1.8,3-3.5,3.7c-1.6,0.7-3.4,0.8-5.1,0.2c-1.7-0.6-3-1.8-3.7-3.5c-1.5-3.3,0-7.2,3.3-8.8
			c3.3-1.5,7.3,0,8.8,3.3C16.7,8.7,16.7,10.5,16.1,12.2z"/>
	</g>
	<g id="XMLID_473_">
		<path fill="#0698D0" d="M17.5,23.7l4.2,0.5l0.6,1.5L16.5,25l-3.4,4.4l-0.6-1.5l2.4-3.1L11,24.4l-0.6-1.5l5.6,0.8l3.5-4.8l0.6,1.5
			L17.5,23.7z"/>
	</g>
</g>
</svg>
