<?xml version="1.0" encoding="utf-8"?>
<!-- Generator: Adobe Illustrator 18.1.1, SVG Export Plug-In . SVG Version: 6.00 Build 0)  -->
<svg version="1.1" id="Camada_1" xmlns="http://www.w3.org/2000/svg" xmlns:xlink="http://www.w3.org/1999/xlink" x="0px" y="0px"
	 viewBox="208 57.5 324 245" enable-background="new 208 57.5 324 245" xml:space="preserve">
<path d="M470.8,241.3v-32.4H415v-54h-9c0-25.1-12.9-47.2-32.4-60.1v-8.3c0-2.9-1.4-5.5-3.6-7.2c-2.2,1.6-3.6,4.2-3.6,7.2v8.3
	c-19.5,12.9-32.4,35-32.4,60.1h-9v54h-55.8v-79.2h-3.6V95.5h0c0-0.1,0-0.2,0-0.2c0-9.6-5-18-12.6-22.8v-9.6c0-3-2.4-5.4-5.4-5.4
	c-3,0-5.4,2.4-5.4,5.4v9.6c-7.6,4.8-12.6,13.2-12.6,22.8c0,0.1,0,0.2,0,0.2h0v34.2H226v93.6h-7.2v18H208v61.2h324v-61.2L470.8,241.3
	L470.8,241.3z M244,100.9c0-2,1.6-3.6,3.6-3.6c2,0,3.6,1.6,3.6,3.6v10.8H244V100.9z M233.2,100.9c0-2,1.6-3.6,3.6-3.6
	s3.6,1.6,3.6,3.6v10.8h-7.2V100.9z M247.6,277.3h-14.4v-14.4c0-4,3.2-7.2,7.2-7.2c4,0,7.2,3.2,7.2,7.2V277.3z M249.4,212.5h-3.6
	v-7.2h3.6V212.5z M249.4,194.5h-3.6v-7.2h3.6V194.5z M249.4,176.5h-3.6v-7.2h3.6V176.5z M249.4,158.5h-3.6v-7.2h3.6V158.5z
	 M249.4,140.5h-3.6v-7.2h3.6V140.5z M247.6,129.7c-3,0-5.4-2.4-5.4-5.4s2.4-5.4,5.4-5.4c3,0,5.4,2.4,5.4,5.4
	S250.6,129.7,247.6,129.7z M262,111.7h-7.2v-10.8c0-2,1.6-3.6,3.6-3.6c2,0,3.6,1.6,3.6,3.6V111.7z M312.4,298.9h-21.6v-28.8h21.6
	V298.9z M290.8,266.5c0-6,4.8-10.8,10.8-10.8c6,0,10.8,4.8,10.8,10.8H290.8z M384.4,298.9h-28.8v-28.8h28.8V298.9z M355.6,266.5
	c0-8,6.4-14.4,14.4-14.4s14.4,6.4,14.4,14.4H355.6z M370,205.3c-8,0-14.4-6.4-14.4-14.4c0-7.9,6.4-14.4,14.4-14.4
	s14.4,6.4,14.4,14.4C384.4,198.9,378,205.3,370,205.3z M449.2,298.9h-21.6v-28.8h21.6V298.9z M427.6,266.5c0-6,4.8-10.8,10.8-10.8
	s10.8,4.8,10.8,10.8H427.6z M506.8,277.3h-14.4v-14.4c0-4,3.2-7.2,7.2-7.2c4,0,7.2,3.2,7.2,7.2V277.3z"/>
</svg>
