<?xml version="1.0" encoding="utf-8"?>
<!-- Generator: Adobe Illustrator 18.1.1, SVG Export Plug-In . SVG Version: 6.00 Build 0)  -->
<svg version="1.1" id="Camada_1" xmlns="http://www.w3.org/2000/svg" xmlns:xlink="http://www.w3.org/1999/xlink" x="0px" y="0px"
	 viewBox="208.2 99 323.9 207" enable-background="new 208.2 99 323.9 207" xml:space="preserve">
<g>
	<path d="M515.4,195.8c10.4-6.8,16.6-18.7,16.6-31.3c0-10.1-4-19.4-10.8-26.6l-1.4-1.1c-7.2-7.2-16.6-10.8-26.6-10.8h-3.6
		c-4,0-8.3,0.7-11.9,2.2c0-3.6,0-7.2,0-11.2c0-5-4-9-9-9h-72c0-5-4-9-9-9c-5,0-9,4-9,9h-108c-5,0-9,4-9,9
		c0,51.5,11.5,100.4,31.3,135h-76c-3.2,0-6.5,1.8-7.9,5c-1.4,2.9-1.1,6.8,0.7,9.4c18.7,25.2,45.4,39.6,72.4,39.6h175.7
		c27,0,53.6-14.4,72.4-39.6c2.2-2.9,2.5-6.5,0.7-9.4c-1.4-2.9-4.7-5-7.9-5h-76.3c2.9-5,5.4-10.1,7.9-15.5L515.4,195.8z M476.6,149.4
		c3.6-3.2,8.3-5.4,13.3-5.4h3.6c5,0,10.1,2.2,13.7,5.8l1.4,1.4c3.6,3.6,5.8,8.6,5.8,13.7c0,6.5-3.2,12.6-8.6,16.2l-40,26.6
		C470.8,189.7,474.4,169.9,476.6,149.4z M388,192.6l14.4,14.4L388,221.4L373.6,207L388,192.6z M502.5,270
		c-13.3,11.9-28.8,18-44.6,18H282.2c-16.2,0-31.3-6.1-44.6-18h72.7h120.2H502.5z M425.4,252H314.6c-20.5-29.9-33.1-76-34.6-126h99
		v50.4l-24.5,24.5c-3.6,3.6-3.6,9.4,0,12.6l27,27c1.8,1.8,4,2.5,6.5,2.5c2.5,0,4.7-0.7,6.5-2.5l27-27c3.6-3.6,3.6-9.4,0-12.6
		L397,176.4V126h63C458.6,176,446,222.1,425.4,252z"/>
</g>
</svg>
