<?xml version="1.0" encoding="utf-8"?>
<!-- Generator: Adobe Illustrator 18.1.1, SVG Export Plug-In . SVG Version: 6.00 Build 0)  -->
<svg version="1.1" id="Camada_1" xmlns="http://www.w3.org/2000/svg" xmlns:xlink="http://www.w3.org/1999/xlink" x="0px" y="0px"
	 viewBox="257.5 0 225 360" enable-background="new 257.5 0 225 360" xml:space="preserve">
<path d="M482.5,210c0,0-78.8,8.7-112.5,73.2v-88.6c24-2.1,46.3-14.4,58.4-34.5c19.1-31.8,36.2-130.2,3.3-145.3
	c-3.2-1.5-6.9-2.1-10.9-2.1c-7.9,0-17.2,2.6-27.1,6.9C383.8,7.7,373.2,0,362.5,0c-10.7,0-21.3,7.7-31.1,19.6
	c-9.9-4.3-19.2-6.9-27.1-6.9c-4.1,0-7.7,0.7-10.9,2.1c-32.9,15.1-15.8,113.5,3.3,145.3c0.3,0.5,0.6,1,0.9,1.5v0
	c6.8,10.7,17.1,19.8,30.4,25.9c8.7,4,17.8,6.3,27,7.1v62.6c-30.5-43.1-97.5-69-97.5-69c31.4,93.2,75.1,124.6,97.5,126.7V360h15
	v-15.6C393.3,336.2,439.8,303.7,482.5,210z M322.6,277.6c-10.2-11-23.8-29.4-37.2-59.2c7.1,4,14.8,8.8,22.4,14.2
	c15.4,11,27.3,22.3,35.2,33.7c7.9,11.3,11.8,22.3,11.8,33.4C348.5,298.5,336.7,292.9,322.6,277.6z M346.2,25.5
	c6.2-6.6,12.1-10.5,16.3-10.5c4.2,0,10.1,3.8,16.3,10.5c0.3,0.4,0.6,0.7,1,1.1c-5.7,3.2-11.5,6.8-17.3,10.7
	c-5.8-3.9-11.6-7.5-17.3-10.7C345.5,26.2,345.9,25.8,346.2,25.5z M296.7,99.8c-1,1.7-1.9,3.4-2.7,5.1c-0.4-2.1-0.8-4.2-1.1-6.3
	c-4.1-24.4-4-46.1,0.1-59.5c1.8-5.7,4.1-9.4,6.7-10.6c1.1-0.5,2.7-0.8,4.7-0.8l0,0l0,0c4.5,0,12.7,1.4,26.2,8
	c6,2.9,12.4,6.6,19,10.9C326,64.6,305.1,85.7,296.7,99.8z M315.3,160.2c-4.8-5.3-8.2-11.3-10.2-17.7c-3.6-11.7-2-24.1,4.5-35
	c7.7-12.9,28.5-33.4,50.5-50c12-9.1,24-16.6,34.5-21.7c13.5-6.6,21.7-8,26.2-8c2,0,3.6,0.3,4.7,0.8c2.6,1.2,4.9,5,6.7,10.6
	c4.1,13.4,4.2,35,0.1,59.5c-3.6,21.9-10.2,43-16.7,53.9c-5,8.3-12.6,15.3-22,20.1c-9.4,4.9-20.1,7.4-31.1,7.4
	c-9.8,0-19.6-2.1-28.3-6.1C326.8,170.5,320.4,165.9,315.3,160.2z M397.4,309.3c-10.4,9.3-19.3,14.9-25.9,18.2
	c5.2-35.6,23.7-63.2,55.2-82c9.7-5.8,19.4-10,28.1-13.1c-7.4,13.8-15.2,26.4-23.2,37.7C420.6,285.7,409.1,298.9,397.4,309.3z"/>
</svg>
