<?xml version="1.0" encoding="utf-8"?>
<!-- Generator: Adobe Illustrator 18.1.1, SVG Export Plug-In . SVG Version: 6.00 Build 0)  -->
<svg version="1.1" id="Camada_1" xmlns="http://www.w3.org/2000/svg" xmlns:xlink="http://www.w3.org/1999/xlink" x="0px" y="0px"
	 viewBox="227.1 33.6 293.6 298.5" enable-background="new 227.1 33.6 293.6 298.5" xml:space="preserve">
<g>
	<path d="M419.7,184.2l101-46.3C499.5,77.2,441.8,33.6,373.9,33.6c-67.9,0-125.6,43.6-146.8,104.3l101,46.3c0.1-1,0.3-1.9,0.4-2.9
		l33.9,18.8c-0.7,1.6-1.1,3.3-1.1,5.2c0,6.2,4.5,11.4,10.4,12.4v3c-1.9,0.8-3.2,2.7-3.2,4.9c0,2.7,2,4.9,4.6,5.3
		c-2.4,6.7-20,57.5-22,94.7c0,0,4,5.1,16.1,6.6c2.3-3.2,6.9-11,7.8-22.9c0,0,3.9,8.8,2.4,20.5c2-0.8,3.9-2,5.2-3.5
		c0,0,2.5-69.4-8.8-95.3c0.1,0,0.2,0,0.2,0c3,0,5.4-2.4,5.4-5.4c0-2.2-1.3-4.1-3.2-4.9v-3c5.9-1,10.4-6.2,10.4-12.4
		c0-2-0.5-3.9-1.4-5.7l34.1-18.9C419.3,181.9,419.5,183,419.7,184.2z M352.5,148.3l15.5,45.9c-1.2,0.6-2.3,1.4-3.2,2.3l-35.4-19.6
		C332.9,164.5,341.3,154.1,352.5,148.3z M382.4,196.1c-1-0.9-2.1-1.6-3.3-2.2l15.5-45.9c11.3,5.7,19.9,15.9,23.5,28.3L382.4,196.1z
		 M390.6,146.2l-15.7,46.6c-0.3,0-0.7-0.1-1-0.1c-0.6,0-1.1,0.1-1.7,0.2l-15.7-46.4c5.4-2.2,11.2-3.4,17.3-3.4
		C379.8,143,385.4,144.1,390.6,146.2z"/>
</g>
</svg>
