<?xml version="1.0" encoding="utf-8"?>
<!-- Generator: Adobe Illustrator 18.1.1, SVG Export Plug-In . SVG Version: 6.00 Build 0)  -->
<svg version="1.1" id="Camada_1" xmlns="http://www.w3.org/2000/svg" xmlns:xlink="http://www.w3.org/1999/xlink" x="0px" y="0px"
	 viewBox="245.2 14.4 243.6 331.2" enable-background="new 245.2 14.4 243.6 331.2" xml:space="preserve">
<g>
	<path d="M486.7,58.7c-5.3-3.5-11.1-3.9-17.3-2.5c-6.8,1.6-13.2,3.2-20.3,3.3c-7.8,0.1-15.6-1.1-23.3-2.5c-15-2.7-29.7-6.9-44.9-8.5
		c0.7-10.7,4.7-22.9-4.7-31.1c-4.3-3.8-9.9-3.7-15-1.4c-6.3,3-7.7,8.4-7.9,14.8c-0.1,3,0.3,11-2,12.8c-0.8,0.6-4.9,1-6.3,1.2
		c-4.4,0.6-8.8,0.9-13.2,1.1c-17.6,0.6-35.2-1.8-52.8-1c-0.2,0-0.4,0.1-0.6,0.1c-2.5-0.9-4.9-2.3-7.4-3.4c-4.6-1.9-9.2-1.8-14-0.7
		c-6.8,1.5-17.9,8.7-7.8,14.3c4.8,2.7,10.5,3.1,15.9,3.4c6.4,0.3,11.3,3,14,9c1.9,4.2,3.3,8,6.6,11.5c3.4,3.5,8.6,4.2,13.2,4.2
		c5.1-0.1,9.7-0.5,14.4,1.8c4.7,2.4,9,6.9,12.5,10.7c6.5,7.1,5.4,16.9,6.2,25.8c0.6,5.7,2,11.2,2.6,16.9c0.8,6.7,1.2,13.4,1.5,20.1
		c0.7,13,1.4,26.8,3,39.8c2.4,18.7,0.3,35.7,2.3,57.3h-11.4c-2.8,0-6.9,0.5-6.9,3.3v82.8c0,2.8,4,3.9,6.9,3.9h100
		c2.8,0,4.8-1.1,4.8-3.9v-82.8c0-2.8-2-3.3-4.8-3.3h-12.8c0.3-14.4-1.8-26.4-1.9-39.2c-0.1-12.9-4.5-25.6-6-38.3
		c-2.4-20.4-1.3-41.2-0.3-61.6c0.4-7.1,0.5-14.7,2.6-21.5c0.1-0.4,0.2-0.7,0.4-0.9c0.2,0,0.4-0.1,0.5-0.1c1,0,2,0,3,0
		c4.8,0.2,9.5,1.1,14.2,1.5c8.4,0.7,16.9-1.3,22.5-7.9c3.9-4.6,4-11.5,8.4-15.7c2.8-2.6,8-2.1,11.6-2.5c4.6-0.6,9.2-1.5,13.4-3.6
		C489.1,64.1,490.1,60.9,486.7,58.7z M347.6,51.8c4.5-0.7,8.7-1.7,12.1-5c2.7-2.6,3-7.6,3.6-11c0.4-2.3-1.2-14.2,3.1-14
		c3.7,0.2,5.5,7.1,6.1,9.9c1.3,6.5-1.6,13.5-1.6,20.1c0,3.5,4.4,4.1,7.3,2.8c1.2,0.2,2.4,0.3,3.5,0.5c0,0,0,0,0,0
		c0,0.7-0.1,1.5-0.1,2.2c-3.8,2-7.7,6.2-11.8,7.1c-5,1-11.4-2.4-16.4-3.5c-9.4-2.1-18.5-2.9-26.9-7.4
		C333.6,53.4,340.7,52.9,347.6,51.8z M350.4,213.2c-0.2-12.2-2.1-24.6-3.1-36.7c2.4,12.3,7.8,23.6,9.5,36c0.9,6.6,0.9,14.3,1,21
		c0.2,7.1,0,15-1.6,22.2h-4.4C350.1,241.2,350.7,227.1,350.4,213.2z M424,338.4h-90v-75.6h90V338.4z M397.9,255.6
		c0.4-3.6,0.7-1.8,0.7-2.3c0-10.4,0.7-21.2,0.6-31.5c-0.1-11.8-2.7-23.6-2.3-35.4c0.1-4.3-10-2.3-10.1,1.1
		c-0.3,10.7,1.4,21.1,2.1,31.7c0.8,11.4-0.4,23.9-0.4,35.4c0,0.1,0-2.5,0,1.1h-3.7c0.4-7.2,0.2-8.3-0.1-12c-0.6-6.5-0.7-13.4-1-19.9
		c-0.8-14.5-4.9-28.8-5-43.4c0-3.1-10.1-1.3-10.1,2.6c0.1,13.5,3.4,26.6,4.8,40.1c0.6,6.1,0.3,13.2,0.9,19.3
		c0.4,4.1,0.9,6.2,0.6,13.4H365c0.5-3.6,0.9-1.6,1-2c3.1-13.1,1.9-27.4,1.1-40.8c-0.8-14.2-7.9-27.4-10.2-41.4
		c-0.3-1.8-8.6-0.2-9.9,1.9c0,0,0-0.1,0-0.1c-0.2-4-0.4-8.1-0.6-12.2c7.5,2.2,14.4,5.8,20.9,10.1c4,2.6,7.9,5.5,12.2,7.7
		c2,1,4,1.6,6.3,2c2.9,0.5,6.2-0.5,8.9,0.7c1.3,0.6,2.8,0.8,4.2,0.5c0.1,1,0.2,2,0.4,3c1.2,7.6,3.2,15.1,4.4,22.7
		c1.3,7.8,0.9,16.6,1.5,24.5c0.6,7.5,1.4,12.6,1.3,23.4H397.9z M467.9,64.4c-7.9,0.7-16,4.1-19.8,11.4c-2,3.8-3.9,13-8.3,13.9
		c-4,0.8-8.3-0.2-12.3-0.7c-4.6-0.6-9.2-1-13.9-0.6c-3.7,0.3-8,1.7-10.7,4.4c-1.6,1.7-2.2,4.5-2.6,6.7c-1.8,8.8-1.8,18-2.2,27
		c-0.5,11.8-1,23.5-0.5,35.3c0.2,4.3,0.4,8.5,0.7,12.8c-0.6-0.2-1.2-0.3-1.9-0.4c-3-0.4-5.8,0.3-8.7-0.8c-4.9-1.8-9.4-5.8-13.7-8.6
		c-8.5-5.6-17.9-9.6-27.8-11.6c-0.3-6.3-0.8-12.6-1.6-18.9c-0.7-5.6-2-11-2.6-16.6c-0.4-4.6-0.3-9.2-1.1-13.8
		c-1.5-9.6-9.4-16.5-16.8-22.1c-3.8-2.9-8.3-4.2-13-4.8c-4.9-0.6-10.4,1.3-14.9-1.1c-4.3-2.3-5.7-7.9-7.5-11.9
		c-2.1-4.6-5.9-8.2-10.7-9.9c-5.3-1.9-11-1.2-16.5-2.4c-2.3-0.5-5-1.3-6.5-3.2c-0.8-0.9,4.1-2.1,4.5-2.2c3-0.4,6,1.6,8.5,2.8
		c2.2,1.1,4.5,1.9,6.8,2.3c0.7,0.6,1.8,1,3.3,0.9c12.7-0.5,25.3,0.4,37.9,0.9c4.8,3.8,10.2,8.3,15.3,9.5c6.6,1.6,13.4,2.1,20,4
		c6.6,1.9,12.6,3.8,19.5,1.9c3.9-1.1,7.1-3.2,10.4-5.3c-0.4,4.7-0.9,9.4-1.4,14.1c-0.8,7-0.8,14-1,21c-0.3,11.5-2.3,23.9,4.9,33.8
		c1.9,2.6,11.4-0.7,9.2-3.8c-7.2-9.8-4.2-23.2-4.2-34.5c0-12.5,2.1-24.9,2.7-37.4c17.8,3.5,35.3,8.4,53.5,8.5c5.3,0,10.7-0.5,16-1.5
		c2.5-0.5,5-1.2,7.4-1.9c3-0.8,4.6-0.7,7.5,0.5c0.4,0.2,0.9,0.6,1.3,0.9C474.1,63.8,471,64.1,467.9,64.4z M479,62.9
		C479.3,62.6,479.4,62.7,479,62.9L479,62.9z"/>
	<path d="M374.2,136c-2.9-3.6-4.4-7.9-5.6-12.3c-3.1-11.1-4.2-23.8-15-30.5c-3-1.9-12,2.4-7.8,5c10,6.2,10.5,20,13.5,30.1
		c2.9,9.8,9.5,15.9,17.1,22.2c2.9,2.4,12.1-1.6,9.1-4C381.6,143.4,377.5,140.1,374.2,136z"/>
</g>
</svg>
